<mxfile host="app.diagrams.net" modified="2021-06-03T10:18:30.865Z" agent="5.0 (Windows NT 10.0; Win64; x64) AppleWebKit/537.36 (KHTML, like Gecko) Chrome/91.0.4472.77 Safari/537.36 Edg/91.0.864.37" etag="AiYeMN7ENecqoBCNvmhB" version="14.7.3" type="github" pages="3">
  <diagram id="Sctxg6YUtqxgQXYKuY3S" name="Page-1">
    <mxGraphModel dx="1320" dy="1206" grid="1" gridSize="10" guides="1" tooltips="1" connect="1" arrows="1" fold="1" page="1" pageScale="1" pageWidth="980" pageHeight="690" math="0" shadow="0">
      <root>
        <mxCell id="0" />
        <mxCell id="1" parent="0" />
        <mxCell id="RoQbZ7euXp5oOt587yyU-1" value="" style="shape=image;verticalLabelPosition=bottom;labelBackgroundColor=#ffffff;verticalAlign=top;aspect=fixed;imageAspect=0;image=data:image/png,iVBORw0KGgoAAAANSUhEUgAAAfQAAAE3CAYAAABcqrOQAAAgAElEQVR4AeydBXQcR9LHj5Pj75iSS3K5XJg5Djp2HDt2zMzMzMzMzMzMbNkyyAyybBklmUmyHXAMwfrer1a9ml3tSrvSSpbk3vfmDfV093RX17/q39WzP4qLvyWnrt6WuIRbup1KMMfsb+s9133XOdc0bbxJx3POe7eFPGMTr51KuJN430c6LTPxWc3P9Wyy/DzKNOl95Gfy8K5PqM6T5e+jDh5lBXE/3jOtafNTV+8IfaJ77SfX+7v6KbF//N535Zn0/B3NR/s18Rk9vpqUv0e5V11953o+sVxzjXq5j2+762j6ztSX/PR5R3lJZSaW67f+Kd93l+9+3qtOie2ldUisq6mfkXetC8979FuijCWOiaRnuE6bevaV533zbGp7X3n4upbd8vFV37S8l3c+5OErH1/XvJ91nvvKx9c15zO+jn2V6y8fX2l95Wmu+UrvL2/zjK+9v3x8pQ30msnT7AN9Lph0Jm+z937WXDd77/uBnPt71lz33nvnae57Xw/m3F8e5rrZB5aniMiPAN+4ZEAVWAZpU2Q2b9tuVgasDFgZsDJgZSCUMuAGdONNhzJzm5cVVisDVgasDFgZsDKQOTLgBnT10n1SjplTEdvhtp2tDFgZsDJgZcDKQNplwAXoFsiTxwDYNrFtYmXAyoCVASsD2UgGkjz0bFRpa8Gl3YKzbWfbzsqAlQErAzlTBhI99OAi6aww5ExhsP1q+9XKgJUBKwPZVwYs5W6ZCUupWRmwMmBlwMpADpABC+g5oBOtRZ19LWrbd7bvrAxYGQiVDCigJ334xTZsqBrW5mNlycqAlQErA1YGMlMGrIduPXRLtVkZsDJgZcDKQA6QAQvoOaATM9MCtGVZj8PKgJUBKwNZUwYsoFtAt5a5lQErA1YGrAzkABmwgJ4DOjErWMux8Tfl2IUvkimFI+euy+HTCRLr9cczvurM84fPXJWj5z9Plo+v9KG6Rt2iz7rqeeTs9Qwtmz+AOXn5ZrIyqEMgbRSqd84p+Ry/+KVEn7kqJy9/laxNne/oSzbNszFXkvcHzyLT0Weu+ZRrZ96+jpEjZMrXPXsta3q3OaFfLKBbQA+J0pmzbL288PJr0r3/cIl1KMjiZSrKf/77PzmWCNIoyBMXv/RZZvO2neXRxx6XOo1a+LxvBlzYjkhp2KKte2vUsp2wcW3Y+OmyMnyXLFwdrtuCVZuEbf6qTX4Bc8n6bfK/J57SejZs0c5n2aev3pHh46dJj/7DAt56DhwhkTGXkvKLvyX9ho2VgsVKyeHTV5OuJ9yWjj0HSKnyVWTL/uMe1807B7IHmGL8ABuAx+YPvMyzqaXR+5e/8tuW3Kd/AcsTl27ovy6aumOwUL9QGi7N23VRmZm5eI3fdtt77Jy8+MrrUrtRC3EabJ17DdRnkRXqSN0xDjC6qGP47sPy1DPPS4OmrfSca/oOV27K8QtfeG4OmeYd337/Q3np1dclKu6K5h11Kl5ee/MdKVSsjER59b1pH7u3QJ9eGbCAbgHdryIMVLhQmP9++D9y//2/lDGT50iPASNk5qLVmu9b73wgP/rRj2TnoTjpNWikPPDvh6REucpy/GJyb75clRqatlzVOh5A4F2PqfNXyK9+/Wv58Y9/LP/457/kXw8+pOc/+vGPpUS5SvLY409qPpTr3Hx5aWu37ZcHH37Une73//cHWb5xh882+d+Tz2iZlBvI9otf3Ccbd0a58zoYd0X++cC/9dkChYsr6PFuKzbulN/+7nd6vV7T1n7+xjVlZXfo9FV5N/dH8sbb78v+E+fdZZI/ffH4k0/L/558WoqWKudxj/uA+fsf5tM0pCtXpXayOsCyvJf7I3ea9t36uP86lzwiDsZIwxYd5Mlnnpff/f7/5Fe//o38/Z//ko8KfCo7omK1zKnzl8uTTz8rTdt0SVYH8vC3VapRV4qULOuxjZ+5UNNXrVlX2238jAU+n8eQzPdJEU3TrE1nmTJ3qfQZPErTNmrRTq9PnrNUxs9YKC+/9qY8/9JrsvfoWalUq6G8+Orr8pOf/lT+/s8H5K338ihIt+3cS9p07qnPOWXg//7wR9l/4oLmi2Hw0MP/kT/+6c9y4ORFvdZzwAh95vGnnpWhY6fIkDFJ27jpvuvurz3sdf+ycq+3jQX0FBTJvS4cgbw/Hmje/IVUWbXu1EN2RZ+Wv/3jX/LAQ4/IvuPnxQD6vx50Adn//fFPUrFabVV0eC/bo2LcW8GiJTWfMhWryfaDruuAgTMNFD7eX8lyFeUXv/iFlKtUTWrUbaRA8+vf/k427TokxcpUklYdu8uoybOl18Dh8stf/kr+89jjEnsliZYFxOYu36DKGtDP8/EnUr5KDfnJT34if/37P2TirMUeniQe+uOJgN66Yw/p0L2v9Og/VPccd+zRT3r0G6rKvl2X3vLgQ/+Rn//iFxK2M0pi42/LrsOnZMehWBk6dqrcd//98pe//k0Wrd6k7/nia2/pe7/x1tvqFfLOAGgg7U+amCtfSdlKNeSnP/2p9B8xwQNouf9piXKaP+/2s5//XLYnAqzJH48SADIA9ac//1l2HDzpUf6MRasV3EyamvWbusuZv3KjPPDvh/V56vDb3/1e/vDHP2q7kx6DhbJo/7wfF5Rf3HefTF+4yiN/Uxdf+7/9/R/uupnyK1StJc3adFLQ5VrhEmX0vGmbTrqfv3yDetwNmrfVehcqVkpl7r08H8tvfvs7WbB6sxhA/+e/HpSf/ezn8uvf/Fby5i8oq7fskw/zfSJ/+OOftVwMlD//5a96DONkAD1fgULSsHlbvWcAPTL2smw7cEKQd65hMGLs/PfxJ5O9g3kXjGFf722vWeAOVgYsoFtAT5cygY4EEH/6s58pPfnUs8/Lr37zW70Ghfzqm2/r8fMvvyadeg5QwBk0apLgUTZu2c7tGTs9aecxSs95Pm7GIq0vCv3+X/5S2vfoL/2Gj5PX3nxbvdwVm3bJP/71gOBpt+nUUz76pIj87Gc/UyA1g+PwmWtSv1kbBRzyzlewiBw+dUWOnf9MyJcyAd0qtRrIvmPntDwnoJcoV1U+KVpar7fq2EOee/EVKVKqggJI+Wp15cVX3pAHH3pEfv7zn8vGnQcl+twX8sc//cWvQjeK3blv07lXwP2ybMN2re8rr7/lntow77r7yBk1HjB+nnnhFa1Du259PfI2gE59//zXv2maXoPHeKQpVaGaGgx4ndSzVgMXoO84FCd//8e/9BqgN3TsNNm2/5jsOXpW1m7ZK517DZKIA8fceS1NrOvrb70jxy4EFisxe+k6nUrBWKBvp89fLgNGjNcynW3mPG7WrqtMmrlQ68z1//7vCXnuhZfd7/fksy+oIcg9GJpGLdrIhFmLpUO3vrL7yFmtb//hrjIGj5kqSzfs0PLKVanpBvQBoyap0QfrYAC9TKWayerFNBLl5Pm4oLTu2N29NWvdUX7+818ou2X6y+4tiKdHBiygW0B3K9u0CNLkuct17vmpZ56TXO9+IJ8ULq6eLuDy7gd55JnnX1ZAXr1lr1K7ZStVVy940uwl0mPAcHny6efc269+5aLR//6Pf7qvke8TTz2rig/wNZ5d2co1NR88HxTqH/74J/UMdx8+JeF7jsojjz7mNgTyFyqm8/oEOY2eOl8e+e//3Pf++cCDUr9Za/Xq8PiatOmkCtaAw5/+8hdp1razBrIZyj33R/nVSODdyYu09913v0DdAngYNc+/9KoYyh2q/5MiJZSypk3ezZ1Xj/FkeZZ3dF3Lq3uOR0ycGXC/lCxXSfPB+2f+19mP/ROBDzq5RbvOmo75ZOaATTonoH9c0EVPv/n2e4IRQxrYAgCLNn75tTc0j5oNmuq92g2b6/mvf/0bWbh6sztPk/epq571oQ/e//Aj7TszLWPSprTHMMFoJB7j1NU7su/4ORk1cYa8+ua7mlfjFu303LA8AGdEVKw8/tQzKktv5HpH8n1SWEpXqCIFPi2m0zIfFyqmdWcqiL+PNgDeuGV7BWrmwZlGCttxUGYtWatpq9dpKG0TKfc+Q0bLoVMJyg4ZQB8zZY5Uql5H08IMlatSS37z299qeVPmLZeeg8fIvkRqngDQ+3/5KwvoXjKbkhzYe57jybs9LKBbYUqmhL2FJKVzFFrlmvUEUClZvrKULFdZSpStKADDlr3RUrVWfQVPPKsnn3lOge9Pf/mr7Io+I6cdyv7ExRvy/IuvJirY0R51Onr+C6V0AfR5K8LUEy5WuqJ66M3bd5N6TVqpov/JT34qud7NLXk+LqT38MzxtH/zm98qNUr0PHUlH+pjDAjOzWaAHG/wwYceFvLMX7CwGiMEznEfOv6Xv/qV/OOfDyjIMHcNvf6vxPnxtp17y4uvvuGm3Gk/wNG5nbl2R5569kXNb+SkmR73nO2SUttz7/jFG/LAgw9pPruPnPZoN8A91/t59F6rTj1lzdZ98ov77ldDAybD5G0AnXcm/gFK/L777lPqmDyGTZyloFmqXCUx0wMAOtMWBI3RJu/nze82Jpi3PnruM/fGFIkpi33Hnv31mToNm7ufcd73dewEdGNokO79PPnV2DOBbQ1bdtC8CXjjfssO3VQ2S1WoomCOnEK/T5i5QEZOmK7v9X9/+IM8/dyLarQwLTFv5SYZPGayevcPPfKodO0zWD4tXlrzZVrJUO5/+dvf1XCkrQygU2a/YS7PHvmas3y9jJ02T+av2KjxBLTx8Akz1WA4ctYCuq++ttdSBu2U2scCugV0D2WbkrD4uncg5lIivfwLDXgDBH/9m9+oMiTaHEXMnPk77+VWD/6DvPll4uzFycrcd/yC/OOBfyuwTpnjeZ+5dsAT0F28bqv0HTLGDcDMb+K14T2iLJnTfPrZ59WgWLlxh8xdvlEee/wpDdRaG3FAlyF17zdEA5jGTpuvwUnDxk2RYQQqjZ0iw8dNVXp++IQZcjDmkoydvlCoGyDyxNPPqlLfHhWn3h5AhtJes3m3fJivoN7D646IPCEvvfaWAg2U+6ylG2TAqMmJ2yQZOIptsvztH//UZwj6YhrCuUHnRsa4IqR9tbu5tnnvEZ0TxpggGMtcZx8ReVINDqYm1m3br7EHrESg3nUat3SndQL6nKVr5dU3cmmatl16K7OBZ0vbTl+wUp5/yUXbQ7nTPiY2ono9l8ceGRfvDvyjHLZ8BYu6y6Je81aG6/U33n7P47qz7t7HyBEG2n8ee0L7wtx/5vmX1Mtdv/2g5lWrQTPNm1UDpIFNoQ4PPPhv+ffDj8if/uya+ug9eJRS/gD+e7nzyNvv5ZZ33s8jXfsOlW2RJwSWCJCeuXCV/DKROSIuAMNhyLjpGlxYNDFQj0BD4i/wuDFe3sj1rpZJucjltAUrZH3Efo1fgLlp2b6b1GjQTA6dirceutW/AY8BI/Mp7S2gW4FKl0AZQEdZTpi5SKYtWKm0MQCwavMe+aRISSHo6Oi568LSnW79hsnCVZuSlblo9Wb1lvCow3Ye8ri/78RF+evf/qEgvmbLXtkZfUY69egnLdt3kUatOkjrTj1dFPd990vNeo2lUPEyGtz0wiuvq2Ju362vLF0f4Q5yw5PtMWCYdOs7RJfZUSezseyue/9hep09QMgAguY1lPvO6LMycOQEVdrPvPCy5tt/+Dg9BxSgs1969Q31hAmKMzS2AbhA96s370nVg9U56fvul+defNljuSB1xiunLOaPCdSKOHhSqtSqr9ce/s+jbtrdCehzl62TXoNGaZqXXnldNu87Kr/7/e81jwMnL2k55ElQXNSpBHng349o2jIVq2tdYWxefOU17XMMCdJCcdN+RhFt3B2t11mNYK6ltncD+n8fd+fFsjgC3DDqDpy8rHnVbugCdJYHkmfujwrIT3/6MxkxYaYaJDXrN9GyocvbdumjrApBfQAxzMuQ0ZOVeZg8d5lMmbdMl7ktXhehSyHHTJ2rAXAE1tHHTKXARphj6jNm2nw1onjv+++/X5mgCtXqyieFSyjzMXvxah0fGAnTF6xQkP/fE0/K6WtJ7ZNaW9j7afdgc3rbWUC3gB6wUvU1GAygG8ra7AF0PFcT5Y5XypIm7kNjoqCd+ZUsX0Xv4XFB1zrvEXjF3DTPbtoTrfd6DR6t56Y85/53v/u9rjuGDShRprz0GeIZ4LVw9SaNanY+Y45RxM6t16AR7roYQN+6/5jbCwNQNu46JO98kFefwyPDwzOUO8vWoFyZd3VuLOcy5RCI1rJdFzVMktL0kL3HPZefOdvEHC8P26HTCk8//5ICkblOGz73kmsKw5Tj3BPtPnPJOgVhT0Bfr54978E0AlHjPFe3UQs5efmGh4d+KuGWECvBffrWucabeph3zP9pcXcbcn3DzkP6DEu4nPS5qbuvvQH0fz/yqADAg0dPFr59QNlMhZjYgSTANoDu8tCd785xvyGj3VHuUOjv5s6nwM9yyImzFmn/PvvCS8JGHAj7//zXFdzGkjxznXtmw5hgXp4VDETmI7NL1m2T/sPGaoBkrvdyq2HZtG1nNV4JpqQutIOvd7bXLHAHKwMW0C2gp0uZAOgsuwGkZyxaJXOXh8kHHxVUenRleBKgMzeJJ1WiTEVZFb7LA3zmrwpX6hpQZflXXMItjzpt2h2tAW/c33XYZQiw9n3I2KnSqkN3jXBv2qq9RtGThnL4mMyW/cekftPWqlhhDszgWLAqXAEdD7Fb38E6R+rcQ8m/+fb7qmx7DRiuzwE87mVrnXvLj3/8E6XMWaf8yhu59H3/kBgB3qhlB/XQAUSzDh0P1bXdFij7Rx97Qn78k5/Ifff/UpV7h54D1dPXNImMgKlvSns8bwyYv/ztHx6U++J129T7w7CCAn4/Tz75IE8+3UMlAyRlK1XTd3MCOhHlp67e1iA+0vyetD/5iazddkA/FOOk3KlX175DNC/S4rU7Qd0AeoHCnh46ZZCe+X2n5+7rPflIEUu/2nXto+1Eu+Nxv/Tam1KhWm3Np2rthu6+LV/FFWU+dMxkvfZhvgLqMbPOfN7KjVKnSRt9BsrdLFtDNmETPsj7sUydu1xgcF576x155rkXdcNgoJ+ps3MDsE0a9kxDMOXDGn2zDp1piWcTY0PoC5bHUZ4znyeeeiZgw8ZXG9lrFviNDFhAt4DuVoZGKILZG0AnApn5SZYuQTUy38kcuvHQm7buqGusR0+ZI4WKlRaoc8phvfnDj7g+7MJHZ6Li4pPVZ/GaLerhoMhZ9z5pzlL9wtfv/u8Pep2PqXTqNUjXngPoKEs8TNYRE+CVJ/+nsmRdhDtfA+jvfpDXfc37nQ013WNgcg8dQCRf1pE/mLj+mrn0KXOWCHXCuEFJA+gbdiR9WIYyVm3eK0895wqGYz570OjJquAJrGrQooMu5/OuS0rnrO02y6JgDkzaanUaaTs8/J/HtE0xSFzbbalWt7He+/Nf/67TIE5Ah3InDz52YkDn2edf0jXkUMoG0GvUd82ZEwH/aqKXTno+XkMAWcEiJXTpINfye1HugDPXiZA3nrWpt/f+5MUv3MGGPEObPvKf/8qHHxfUdeMs+1q8dqvWmbyKl6mgefPFQPLKna+AniObeM7mAz5OQC9cvLSs2LhdwvccUaaFj8+YehCHoEbBT38qj/7vCc2LYLi//u3vmh8rNZyxC8yx8x0BA+h8WAYPvUjpirpMs9/Q0RpDMnjMFA0g5Z2YGjLl2b0F5/TIQCKge3pE6cnQPntvCaSh3AmOGjhyogwbN009ZryR1Zt3S673PlRqHE+Sz2ZWr9tYz/noy5zlG91LyJg7n5QYLLdpzxFhiQ8bS8Fee8u1lh3gxwPki1zv5/lYKeqhY6ZIsdIV5Oe/uE/++S9X4Bz0/R///BctB7CZumCV8JU2I5uGcgeopuhcqassyuMrdGzGu+TzrTzn9NAJjqrTqLleZ0kbCp4PjsReuaVL8Qi2Y97aeOh8WAYgr1qnsdLjKHEC+fgIDnnXb9JKDSCu045E7i9ZHyFHz3+ZKuABYlVru8CbD9yQH21E3AL5la9SS057Ga3zV2xQ7537zAs7AX3WUheg8wEfAsNI06E7rMntZB668a4PnLion601X+/jGbM99J/HdE7epAX8cr2XR4PsqAf5prYVKFxC3nz7XfV8iWkgEBCDiTLKVKwqW/cfl8VrtwhfojNBepMTQZmgOGSx18CRMnz8dClTqZo+13fIaGncqqMeG/AfOXGWnkPbw6LwWdk//cW1Lp9vKrD+nTJffvUNQYZYKaHnr+eSvsPGCawR7+L9pTj6iJULyMHuY+f1Azf7T1yUrn0G6fPeQYOptYe9n7rM3KttZD30ABTKvSocgby3AXSWpA0bN1VpSyhvPPTw3dFKi+I1Q8tD/RIMxNfiloXt0C/KcY/53E69oJxdf5LBml+uG29bj4nMbtRSjQK+RlejXmP53xNPK0AStFW3YTNp3r6rPgMNvGHHQcEDhzmgLnho/UdM1PXG0PFQnx75O8ozYMQeD8y0g5lDZ17UfNLz2LnPJPLkRTUy+AY9LMM/H3xIvW6Mip2HYqVlx576KVTyg2UAZLbuO+YGa+amCdAzEdikY309nyAFDEz5vvbc512ZywfkCEpjeR5fZ+ODM3uOJM+DADCmQ7i/89ApzZ/vBCwP2+7xnXFiA5ZuiPBgTdZFHJBlYduTfW0OY2139GmZOm+5eqTjps+XlZt2aSS38x1Ydgi78dY778sJH5//9fWOvNPJSzeUnseYw1iijZin3nPkjPQbNk6/Gkjbcp1VFgQjkpd+M+DnP5fZS9bqh12QQ9IMGz9NBo2epP3EVAlrzv/8l7+pvPQYMNIdqc81jDrajLrzLAGP5B2+J1re/TCfPsP1UuUrq3x6A7rznYitoJ+h6/lOAfQ7qzacaexxyjJv28d/+2QRQLcRntlVSJ2ATpASIMmX4j4uVFTi4m9qdHXx0hX04ynMQRMFjnfO+46fvkCpcW/akmViGAjMXfJtcT6E0qR1RzcdHX3atTQKSp2vuW3YHqn5des31A3o5I9inTh7iRQoVEQef/p5/Roc16FFMSL4BjyfjWWrWc/sG0ut+o0F7x0lzbpsnnF66DsOu74kxnWzAVpETvMMGwBLdD3xAIA/VDXBT3iDgIN5zuzxYLfuOyr1mrSUhx/9n8xavDpVMDfPAqYNm7XWcl1lJtXLpMkK+2MXv9S5aT7Cw1rvtNQJo48laQ//57+yIsz1zX2i5vGk+eY6YDtq8hx33tDl9PX6iEilyCkbUN11OE74YiDBfi+89KoaQwT4dejWR/9ngOmAuk1ayc6oGHde3oBO/WE3RoyfppHrTOVwzR+gIyNlq9SWP/75r8ogQeE3atne5/8apKVt7DNZU+4zs19cgB5vGyIzGz0nlQWY8EcrLOFB2R6/8LnEXPrSI+iNwCaUHBsfI3G+Px4XeTivcY5HFnv5hs7d8pwzDYoR7xHPzXkdz515bfYe+fEvZJeS6GueW7wmXNZvj/QJmoDr5n0nZNGazfoJU/LiGkCsnyv1qq8pi3fjPvO+Jy95gjZlUgfNy2EImGfNnnfj3c15oPuTl76ScpVr6EdTzJ+EBPpsZqWbNn+FfjOfJX7pLZP2pK1c+fAvbjd0w4h05s28v/nELIyASzY91+vTb0Y26WfyRWbPXL3tKOO25rNl3zHZFe1iNUw5PEN6c86eMcFyNuc1re+VryTm8pcq23GO/xZwprPHpl/tPlhZyCIeuu24YDvOprcy4y0DAAZMgvf1rHRO/U45vhCYlepm62LHVHaXAQX0WLelm4U61Neg93XN1N3XPV/XTPq07EOdX1rqYJ/J0oCV3RWCrX8W0oF2rNuxHqQMWA89yAazCs8qPCsDVgasDFgZyIoyYAHdArq1gq0MWBmwMmBlIAfIQCKgewYlZUXLw9bJWsRWBqwMWBmwMmBlwL8MWA89B1hlVsD9C7htG9s2VgasDNwrMqCAzrKLe+WF7XvawW1lwMqAlQErAzlRBizlbj10a8xZGbAyYGXAykAOkAFLueeATsyJlqZ9J+tBWRmwMmBlIDgZsIBuAd1a5lYGrAxYGbAykANkwAJ6DuhEa8UGZ8Xa9rLtZWXAykBOlAEL6BbQrWVuZcDKgJUBKwM5QAYsoOeATsyJlqZ9J+tBWRmwMmBlIDgZsIBuAd1a5lYGrAxYGbAykANkICSAHht/W3advC5hUfEBbFcCSBNIPoGl2XgosHSB1T31vHJ6eWEZ3J5TNsRKr7mHpP/CaFm575KERV2RHSeuu/8mdf62M1K8+yYp3CXMbrYNMlQGkLNZmz3/indf3OdWfwWk51PXlS6dm7l4gD4Jla4PLJ+Uy4s4fk1i/Pwdc1rYiZAAeuTpL6Rcn80ZOrisAr93AaxMr3BBkSLggxcfsXJmgTzTZGDIkqMenmvlAVszrWyr83K+zivdK1wdlrSAt69nEgE9fd9y3xv7mRVyq2QzVAZggCyg53wFl9VAzBvQs1r9bH2y/5jYHH3Vw2j0BdSBXnMBenxwE+/emacI6F0TG5z93dgA2pCVuzH1vNJTXiBGgWnPlNIGkial5533QpmXM19/x37KyzBA9y6Pc7vZNkiUC5+AnlHywZjwztvXNe80oTzP7PJCWffsmFeXMAk9oKczGAA6VC3F7Nig2bzORboFYGSE8B0zuzxVcF3CZFfMZy4PfclRK2sh7M9kAGLzTgLVLmEy2ItyL9L1HhhvVgaSZCCj20IBPSHEHno6Ad3DQ8/oBrD5Z56wZZW2BtC9KfesUjdbjxwtj5nqoVtZytGy5NN4th66D1rKDoScPRAsoOfs/s3C49cCutW3PoE4VDKbEYB+Kp0euqXcrdBntNBbD93KWIbKmB8FbQHdyl2Gyl1GALp3kFuw5xbQrdBntNBbQLcylqEy5gvQu4SJBXQrdxkqdxkB6LEJ6Vu2ZgHdCn1GC70NirMylqEy5gfQvYPibPCvlcOQynPkzZwAACAASURBVKECeqiD4tL5pRoL6FbIQyrk3srVzqHbOXRvmcikc+uhW92W0bot9MvW0rkO3QK6FfqMFnpLuVsZy1AZ82MgWEC3cpehcpcRlHucBXTrAflRaBkqzIGWaT10K5+BykqI01lAt4CeoTrQAroVsAwVsBArxJDU1QK6BfS7IZc2KM7KXUbLXYYAul22ZgU3owU3PflbQLfymR75SeuzFtCt3KVVdgJ9LiOC4vj702CXqjnT2zl0yxqExBP3NwgsoFvF6k82Mvi6pdytbsto3RbyoLhTCXfuKUAv3TtcyvfbIua75KV7b5Zyfbd4KE3uF+ueud9trtBvi1A3I0Ale26Siv0962Xu3VN7C+humfDud+SlYv+tbln2vm9k3Pt6Ws7Jq9KArYJcmufL9mXsbHafm+s5ZW8B3T+gl+i5Sfg72aLdk+QhkH4v1n2TlOodLkWD1K/IuVM/umQ/m+tHS7n7F7DUhAnAXBBxRmZtipMDpz6XEcuPSs85UbIh8qKER112KyUU14Xrt6TFhD0ybUOMbDl8xWNbtfeCNB67W9YfuOixTVx7UqauPykzNsbq1nHaAak/aqfsO3lN9sf43rZFX5EyfTZL7WHb5fJnt2X7kSsyeuUx6T77oKzcfU4SvrgjY1YekwELDkvz8btleliMbmNWHpVVe87J+v0XZJ1jazhqp/s9UmuPbHP/HgL0eiN3umVtyY6zMtVL/jZFXZY6w3doHwOmUac+k7jLN6THnCjpMiPSvVUZtFWqDo6Q7UcTpMHoXbL+wCV3vk55bj5hjzAuvGXZeT5pQ6wU7bZROs+IlFvffC/Ua8yq49J+6n45cu5zOXL2cz3vMO2A9J4b5Zb/cauPJ8t3+a5zUiEbGan3EqDj2Gw+dFnlZEPkJdWPTlnhuO2U/Sp7xXtsknUHLsq1L+9I3wXR0nVmkuzVGeGSz2FLj7r7H/267Ui86sHos5/LmfivpOusg4JRsOHARdl1/KpsjY732PacuKp1QE81GLVTrn35tdYP2es6K1I2RV2Si9dvydhVx6XPvEPSdvI+t+yhQ9fv99TPyDR6NkvpvYwA9Hvl06/l+26Rkxe/FATlfMINOX7+c+k3/5B8/tXXcvz8F4KyQQkB5LfufCdjVx+X/bHXJOLIFRmx7KhuiyLOKMg2GrNL5mw+JZeu35LTV75SQRu54qgC8t6TV+Wzr74R0raatFe+/e4HGbXimKZdvvOc7Iu5JodPf6b3P//qG6k2JELLj4y7rnXZeviy5nfr6+8k5uKX+tykdSel59woPf7sxteydt85+eLW1zJnc5x8+933snj7Gfnsxh3pNisyawlsKCjRewjQW0/aJ3e++V4i465J7KUbKquA9oQ1J2Tl7vPy9bffS7NxewTD7cSFL+UHEblw9abEXbohp6/c0Pvf/yDSZWakekAnzn8hGw9eUnleseucbI66LEfOfK6G6s0730m3WQdVyfE/yodOfya7T1zTPM5evSV7TlxTWec6CvXqF3dk1/EE+fLWt5rnvpNX9Zjyo8+4xtLUsFi5cftbOX/1pmyKuijXv/palu08K5S1YNtpQd5rDs1iStWfjN5jc+iwlOiSfTFX5Yub38jqPeflXMJNlT2coO++/0H6LzgsVQZuld3Hr6rsxX9+W2UPo5I+RvbQVYBmWORF1Vc4JujCyLjP5PpX38jwZUel3/zDUn9EhJTqFa5pkLHVu8/K6r3nZVXi/vqNr/W5sn02y+n4r9QY+Or2t7L50CXBEbr9zXdqzCJrgPzAxUck/vM7Cvxr9p2Tm3e+lflbT2u9F247rXLZetLerKUfM2IOPb3L1vbEfJa1GsnPAMWDiP/ijvzwg8g33/0gVz67LXtPJsjtr7+TjZGXVIix4gB3foD6wVOfqcAdjLsuUXHXVXjxmlFKWJ1f3PxaPvvqa1WuCLux/vDIUWCtJ+5WcN5y6LJsPxIv33z7vZy6fMN9Deu0+uCtsv1ovHo+WK4oSvLdefSyrN13XtOPX3NcinQNUwHfe+Kq1B2+QxBu6sUgxEC49fW39wag++lf0/bZed9msgvQUUQA+u7jCWpobj18ReUQ2as6aJt6xRimgOyB2GsyaFG0bDp4SWVi5saTggdVbXCE9Jq9XxqP3qnKbd3+i4ICRtHhiSG3GIB4Lfx6zz0ozcbuVKWIEm4yZofsOBqvLEDNoRGCwbl4x1nN4/CZz+TitVuy7fAlNTqQ915zo6RItzA5du4LmR4WKwMWRsvtb75XsMcQQWkDFNkV0HF8cvKX4gB0QBtHhX5atee8Oh84C+ilb777XhqP2SXI0dFznwuODEA+bMkRdSgw5NbtOycAsAH06NM4L9fVMbn65R01FnFScKyGLj0isEwwPGw7jyYkbccS5GzCTZkVHqdTPHtOXlP9iAO172SC4NSgTzFWyW/k8mPKIq3dd0HQtY3H7FYdjzHMOyF7yOC9AeihiHLPBkq21cQ9cuz8F6rI8ILobJTml7e+UaUW/8Vt6T7roHo2gGWbSfvUEg2LvCS950SpQExed1I6Tz8g1QdHyKkrN1TJYgAcPfeFCvX8rad0IEBFYZWOXnlcLcuDp64LShBvHWodAePa7hNXpdOMSAXkXceuyNLtp2TpjjOydMfpxP0Z2XH0skTGJkiDkTtVwZ648IX0X+BiFiauPaGAPnNTrNJfOdlDj4m/JYMXR+dopQqgo4CufXlbDTkAHTDHQ8LTHb70qFQfEiF95x8SjDyMOwxUPCN+Jy7ekIURZ9QLgpLk1376QQV6poIijsTL2YSvlKa8fuOOTu1A4fP79vsflB3gmDqgAMkbua07YofWZ8OB87J85ylZvhMZPSvLdp7TekWduiZLt59W2vN8wk01dqesP6kyOSf8lBoR08Jis5eH3tXzW+6x8bdytOwRN4R+uvrFLblx61tZtfu8wPBMXHNCYBZhiZADpnbGrDqmBiRyYmTv4vXbKg/jVx+XKgO3ycaDF9U54TnkF4MQQwGQRhabjt2lOm7nsXhlfnYcSxA26PedxwD3K3q999xIrcf26EuydKeRuXMqf8t3nZU9x69o2iZjd0tk7HXVpYMWHVaZn7o+Rr7/4Qc1MNHzWRPQr6Yrhs0ZoM7Y/RGC6rwY7PGe2Ozhofeac1CWbD+j1mDYgfMyYc1R9YAQsiFLjqgCqz9ypypDlBkefMyFz+Xzm98orYlyw0O6cPWWDFkcrV45NCc0JvNCKNyEL25L9JlraiUOWnRIrcZdxxIUxLFooZGY9+GYvABi5uxrDYuQcwlfqdIEsBlI7I0VXHnAFkFIqeudb74TaHk88gvXbsoPP/wgl6/fUmDPyYCOnA5afCRHK1UAHU+HOUBDuXOOgYhHjPJknhqvBNlbveesHIxNkKFLjsjAhYdkyfaz6hED3LWGbVcF3WHqflVupF2794LgxSzfeVZlEQMWQMce6DT9gNQaul0pS8Ca5zEmMD6Ld98kHaftV8+IeuFhmQ15Zn6UYDmeY+wACNuiL6thgAFLvdlD12cbD90L0NGL2Zn9Sa3uADq6BY8bPQPljo5B9phWAexhXpAJaO6Nkedl74l4jfPoOuOA0tswNTg4ZXpv1jluvOjoMy5mBg8d/YfeYzqx1cS96s0zdYQswTKic9F5Uaeuq7zP3XJKdSjOjJneNHLHnimBmEs3pGyfcDVSccSg4sOjLqns8Qw/I4P3BKDHXU3fsrXsAuiDFx+Ry9dvawejHM/GfyXtp+zXoAysNwSEKF4ECwWEVYngLt5+WvrPd3no0zacUC++/ojtcvXLr2Xu5lPSdOxuBV+sxatf3JZuM5PmsQkmgk46feVLDWJbteesrNh1RhUxhsKCracV0KsO2ip4TMy/Q8Ob7UDsdaU4yyRGvy/Yekq9slI9N0mfuVEycOFhpfEnrT2h8QCVBmTzqE9fTE/iHHrMlZwP6Hg/yB4Kj3lxPHQ8ZIy93nMi1bgEgDfsPy8R0XgmCQqg0JMoT+YW2QPOBLt9//0Pwtw5NHv4ocvKRuH9H4y7JtdufKOUO/Pj/FCkJy98qVQlc5EcQ23CZCHHBB2h1LccuiKwVmY7HX9TaXcMU7ajZz9XxV998DYZsPCwemQA/MBF0UrLM2+aGrhklfvOoDj10H3JZw65Vm3wNmVkmAvH8IJyB2zRld1nHtA5cvTl7PBYiYiO12lCYiIAfAxI5I6NYDj6D/YRGYGenx0ep6wSU4TEKFEG4IosYBBuOXRRFm6Lk89vfi2HTl+TBVtitdzF289qXhia1Im5eyN37HGkeJ7Iecpcs9dFuUP7MwVK4DMyO2blcZVFjJasIltaj4yZQ0+fh67r0LOBUJfvt1ktQIKLZoTFyoVrt6RS/63a0Si02ZtiVCGV7BWuXhLeC9Q8VicWK+DOHCQCWmNIhFL3F6/dlAtXv1KPBK8HD53nOs84oJ4NAouFytw9wXDkZaLeUbLQ8nQsFBVRnNzfEnXBtR26KJujLmgkO4ONdAR3HD17TSkvLF0C+vDQv7z5jdanz7yorCWwoZCLLmGy4/g1QaFilGWpARmK93Pk0X/+ITUUJ611eegAOp4SXg9zmMRtAJrQmMx1YiziEUN9ozSRbX6s3mCZD5To1S/uKO0IO3Xs3OcSHnVRjVYUMYwOnjfAz3QSUxooTubOYaHIHw+dJUYAOrEnKG3mKTUi+tBl2Xroosoxsk7dCJBjLpVoeMYNXhPsFseMH2jbbNGHXcKEf1tzfqcjW9TbIU/B1JdAS4B25LJo7StkCZ1FdDuyB2NIVDqGGbKHjPAjmnz25lM61YO+hE5nyS8G4bwtsSo/0zfGyrp959VTbjlhrxqmeOjIDCCPE4Xu++qOK6CScmGhWOXBOwDoGIUHYhJkc9Ql3TACth6+pM4PxiuyB6AzPTlx3Umd3sFR48ce+UMvB9MmmZF2c3TI/23t3vDQsdpY6pU43Sh4vwMXHRaoIDwiOhw6k3QINvQhFBHR7yjWNpP2yrzNsWq1Aug8N2/LKZkTHquBQHhCKKwp607IoghXUBN54bGcjb+pVCdLzNbvP68bVCplFOuxSQGdsvacSNBAuLV7z8u6fRdUWBlM0KbjVh3X+hAEh4fVZ26k9JsXqVT7hDXHpf+8A9JozD2wbC2NCiszBmd6y1iw7ZSCN6stTFAcnjjAyo+5RYLY8DRQnMgpgZyAJBT56BXHNB3UfeWB25SFIh4DWZu64aScvgxNf17BH2+ox+yDMmHtCZV9jErqD+0J+LecsEsiY6+5PPREQMfbIfjOvVRy3wX1znW1xuBtKq8EmQL8lNN33kEhSA9QH7AgSuWVGID0tlNmPX8veehM6aG/WAKGLgTQ0V2wPvxgMFlhUbpXuHq+6D+MPaYpkT0cGYzLUcuj9RqyyVQQy3cJOv76m+/k86/uaNDl1sMXpc7w7dJo9C7NA/kmmBLZwfnhnA1jAvreADrTl+hFI39Md2K0Nhu3W8cD9eacgNG+cyNl2JLDej56xRHpN++g1iuzZCfQcjYdik/XlLdzipx++lG6o9yzyRw69B+gGX7wgvSff1gpJazAqLhrOo+IhQhFg7WIMBKlDuAS1IOgYKEyJ4NgA+h4OERZhh24JKeufKX0O0vcmIe6dedbmREWI5xDpeNNEynq3LjOAGJtOcqUurnmiVxLkJgjZVqAoI6OU/dLz9kHBWqdQYDCPXPlhiu/K1+6jq/c0LWhOS4SN9FDR3DxDgIdKNkx3axNsUop0ufESbBMjDgJaM9xq0/onCHGHSslUI4zN8aogiXAEkMVhYjSMx/ggCpfs/ecskIlemxSjwjvnd+db7/T6SLm1mGN8KrwcqD3MUjxtlCOc8Lj9DoeOvU6l3AjSfbiv5Irn9/W8VFt0DZdssQSTyLsD5++pvLJdMDZeJcsE5A3ZtWJbNOHTg89p1PusHssWQOoYYSICUIfoZf4xkbspS+VIdMlY18TNHdGWAoMNc8PMOc5DDYAFl3HcjJkCG+977xDSo0TrwTbuSjilBBEzBQOG3PzGJMYERwD5owB6qWAfvtbHQdOHUo8Ez/KG7gwWpkr5tuJxEd3spHeHPNOWU0vZICHnj7KfW/c51mukXx1GgpNqZmuri/AFem6UWlJLE7Sl+wZrkqtYr8tri8gddsopXqGS62hEdJw1A7heahvlvag/FiPWaSL60M3fDGJ+XfSVxmwTZ8nDQJPflD73htfgeMa5bPMqM2k3cK8I+nNVqn/Fmk3eY+U6+OYd+wSJsV7bJRSvTbps+zNRh1zHKB3DZNdJ12U+yCi3HOwhw6liUcCOCJLNYds1xUVMD28N8t8AF1kDdkwbYFcVx8UIZUHblU5NdfZIxPQ7+YaNGeTMbul6sBtwhhAlpBf7nNO3gQZcZ8lcsgm9/giXPspe1W+VT4TZZo6tp20250uqRyXfGJcODeTn0mXlfdODz2nB8XRD+grZKFs7826B0iNzuQDWBiILG+rOnCrFE3Uo6Rl1Q9OCbJl+rNcn80qe+SBbjXX2fMMsk55Tr3orSs5Rz/yPHqQcpzpkdEOU/fqmHHmT3qnzJlj51cOnenv5vGmw5Zy9xCOu9kZAZcN8PvbnADlK43z/j16bACdj0cE3Ob3aFsF3D6JxmjA6e/B9hy89KjEJi7rzekeuocc3C3Z8NZ/vmTOmcbX/Wx2bdPhEFPuzqAPJx8f6PHebEK5ewjs3er01ITR+z7nd6uuWahcguLi4m+6lq1loXrZvsnZ8umk3JmatP2ds/v7bvRvyCn39H76NbtQ7nejs2yZoVEAO09clbgrN10flrGAboElk2RgyNKjHgFLdjyHZjzbdkxqx5B76OkF9Ozy6VcrRElClN3aAkA/FX9TBuTwoLjs1i85vb5KuSf+vfQ9RblnksGU0+UnkPcLDzXlHpfOL8VZyj37AmUgApcV0uw8kRgUt8TOoWeF/rhX6uBBuefwL8XdK32a1d4zy1Hue2KzR5R7VutIW5/ADSED6DYoLvA2s/KV/rZyUu4Ex9k2TX+b2jb0bMOQU+7p9dAt5e7ZQVZgQ98eADpyagE99G1r5dV/mzo9dEu5+28nK0Npb5vQU+7p/JZ7dvn0qxW6tAvd3W47A+g5fR363W5nW77nGHEC+r2wDt32v2f/Z0Z7hIf806/pBHRLuWe+EGSGoGWlMgygWw/dylpmyqUH5W6XrdkphwwIFswAyj2d33KPyR5/n5qZisCWFVrgMYBuo9xD265WTlNuTxvlnnL7WPlJf/uE3kNPZ5S7pdzT36l2YKTchhbQU24fKz8Z0z5Oyp3lvbadM6ad7+V2zXKAbil3K+QZPSD59GtcQuL/oWcA7ZXR9bf5Z88xgoduvpgZYyl3a9BkgO6xlHsGNKpVuFlb4eKhE2Vsg+Kydj/ltHFkKXcrbxkt0yFfh57eb7lbyt0KfUYLvVLuCbfsl+KsMZupXqJS7ol/zmIpd6vnMkLPhfzf1tIL6Hvsn7NkqpLJCKHK6nkaD33AIvuluKzeVzmpfs4od0u5W0DPCNkOPeWeaIGauaJg9/bDMlbQM0LQnXnuPH5V8JDssjUra065yOhjZ1Cc/bCMlb2MkLeQU+7BArh3eku53z1BL9JtY6ayA5ldnhlAu05el1MJ9ktxpj3sPnPGnBPQ0Xt3S/5tf2dOf9+Ndg455Z7uf1uzlHumgurdELq7XaZdtpZzFdrdlq2UyrdR7lbuUpKPUNzLAMr9jntphrf3Hci5nUO3Qh8KwU4pDwA95opdtpZSG9l7oR+HTg/dUu6hb18rs2GS5Sj3vXH239asYGbsYAfQodztl+Iytp2tHHu275AlSevQcW5s+3i2j22P9LdHyCn3QLzwlNLsjrkesKBn9hxU5peX/g4OZpAU6ZbTy3PFCOzKJEDPfHnJ3BiIYGQrLWlzWvu5PPRbymDGXLkpOX+8ZbY+yVz5z4ryufHQlXQx5E5sFhH5UdzV9FHue+0cesAGTVqUpH0mTMyyNRvlnrkK916XPUu5W3nL6DEQeso9nd9yT4lybzH7qPRaHpO0LXMcm+u+rpl7we698/I+Jz9f15bHSPv5x6Voj3AF56I9N0vHhceT6u2vHt55eZ+nUJ5HuyTm33PZSUlpo+7O+70S05cbsstlVHQJk7oTDnqkcaYP9thfec58vNM476V23H3JCSnWZ2uqBlFSUJxdh57RCsbmnwRiznXo/ij3Yr23SNfFJ1Sv9F4eK64tRnov997MPfbe9zhPfp+x5Uqb/J5nHoHej5GGUw+5x1vDKYc86psR5Zl6+so76ZrrPV3nvt+l2+KTHrqiWO+t0n3xSb/tnpR3Un5J11Ivz9Q7qV9MXzj3/vP27LcYKT1wh7vdnWMs9JR7fDr/bS0FD33UpvMSdvR6ttim77goRXu6AJ1BOm/vlWxR7w1Hrkn10XvdwtJ5wfFsUW/kYlVUvBTru81dd6egO48NoA9cFJ1y2u4bpeGUKGk583Cat1azoiW7bzXG7vfZTsh38X4R9/SGse6UrZSO9dOvid/p8BcUh0G6eH98thlzfVfGud+/59KYbFPv5QevSnGHruB4WWRCtql/haG73e3ulLnww/EhptzTCegpUe4jN57LNg0+fcclT0Dfczlb1N0F6PvcwtJ5YXYC9ISgAD21L8UV6b5JpkZcENokkA2jwpkuuxifqdUTr8KpNMxxyQE7ZOXBeFkVlZAh20qvfL3PM6rcQPOlPmUHJ7JZAXxG10m5x/n5c5bsBuh9ViTJRs9l2QfQl0XGZ2NAvybl/QB66Cn39H4pLtZ/lPuoTdkM0BMp92K9tsi8PdnHQ68xJnsC+upDVwMCdD4s4/pzlqM+gcoAFlMmU7dfzBaGWGqgnJ770H2mTZx7AD09+eaEZ4MBdGeUe6yfKPdsB+gOYy87eejZG9Cv+wX0kK9DT/e33GM+86k8UCSjspWH7kW5ZyNAd1LunRYcyzZKOxjKPZBlay4P3QJ6Sh562NFr2UY+Qm1AwMYEA+iB/NuaAvqB7EO5Ww/97kwB+6fcE0JLuacX0Pem4KFbyj3jhQclVX10koeevQA9cMo9cEC/cM8ClgHAlD30exfQaZ+gAH3JUXHqRyfbYY4toGe8jqPfsruH7hfQo0MM6HHpjHLfkwKgB0K5rzucIOsP+w9uWLr7lM5zGmVl9qsjL8qqSJc3Bqgt3RWXoiInjXnW1z75HHrKlPu6Q/ESlkqevsrxvqb5+AkcXBuVch3IKyMAfc3BwOIH/NWPOq09lHrdmfsMNCgukC/FqYduKXeNXDaA49xbyj04QHdGuQPszrY0x+ml3NFjqekmb53hPE9JdzrTmWMPDz0EQXHrDvtmJ5bsTFkfU2/z3mCAP11i6k0AXKBBcWujkvSXCyP86/710QmyPvpqitiQki5buf+8UH9TT397f4AecsqdYA/n4vRgj1P6tzVfHvr4JVulVvPOUqtFVxm3ZIu06TNa6rTuLhOXRcjMDZHJGubTstVk6a5THtcRhg8KFJPWvUdK77HzZMDkJfLex4Wl99i50nfCQlm2+7SMmLNOhs5cLROWbpMF245LwVKV9Xji8u0+DYjkgJ4kFKaT1hy8JCv2ntWtSeeB0qr3SPf5mqjLwv1ytZtJ1UbtpErDNlKuVtPE47bSrt9YfYdle05Licr1ZMW+s7Jo+0kpWLqKLNkZq/kwuMln+Jx10n/SYnnv4yIyZMYq3UYv2OjRBqZOLkB3RLn7CIqbuzla60N5VRu3l8oN20rJqvWlQp0WUrlBGxm7aLM7bwZikfI19Xzamr1SqloDmbf5iJ7PXH9AKtVvLcv3nJHp6/ZLsYq1ZfneM3rOgKTdafOuw6fLx8XKu+s+ZdUud/6m3uyDAXQMz9S+FGeC4pxl3IvHlnL35zVmHuXea+xcqdumpzTrNkR1VOUGrVUXVG7YRnqOmaPjAWP+k5IVpW2/MTpuGDtsZrw17TJQGnXoK4OmLhPGYr4iZfX+sFlrdKwh24069pfB01dI/ba9pEKd5lpGhbot3Hl4y78HoPsIikO/TV+7T7fR8zfIW7nzy5RVu/V8xrr9CrzUW/Vd1GUpX6e56g9zbgC+WIVaqmfb9h0jtVt0kVotukjd1j2kccd+aux3HDRRBk5dpu3QuFN/qdKonb4bZXvXmfNAAR0d/Empym5joVS1hqpfTZ60U8V6LaV1n1FaXvsB46VohVp6PHZRuJa9MOKE0IY8Y/IDuF3nl6Vd/3HSqtcI3fIUKiXVm3SQVr1G6tZrzFzZcCS5geAP0MMPh9pDT2dQXEr/tuZrDr3rsGnSb8IC6TdxkTbAc6++JZ2HTBY69aPCZbQjAARAvk7rHvLUC69pg3Fer20vWb73rNRo1lmadRssDJLhc9bKR0XKSO0WXQWQBfimr9snparWl+KV60qh0lUUhCrWbSGdh0yRF15/R1buT07LegC6BsUlB/R6bXpKySr1tVwGT7FKdRQQAUXeh04vULy8zAmLVCH/tExVPcaooC4IRJ/xC/Q9eIYNUAQkeZeeo2fL/K3HJF/RstJn3HzpM9619R43X3Llzu8WUiOc7F2AnkS5+4typy0xDjAo2Go27ywj5qwVGJDVBy9pWdSjTI1G8r+nX5BK9Vvp1qB9X21TyuEZhNl1r7UOBBRUxXqthMEwZMZKfd5ZbwyujwqX1nd31pvjQIPi3MvWFqe8Dj3Uc+golzELXYPcWXeUFkot2ZborczbckSMYuM58kBJmDxQ2KsjLwlMCEaW55b+yOOMotyRAfPOzmO95vBSpq7eLaPmh7nf17w3+8U7YnUbNS9MxwvG3qywgx5p52w6LBOWRajnpG1NeyduzrzSchwc5X7ETbnzJ1bGK3fu/VHudVp1VxDGcK7SsK0Mn7lSZq7bJ30nLJDaLbvpuCXN0y++Jg079FWnpNPgyfLfJ5+VkfM2aHvkLVxaABxAGwcGfYP+eCVXbgXY+VuOaCJy3AAAIABJREFUqGEOoHcfOUtqNO0os9bvl/c+Lqrj2lf7eAC6Dw+9w6CJkq9wKanTvJNu1Ru0lJpN20vdFp3knTyfKLjnL15BytZsog4L+ot3xHlBx1Vr3F6I0yhUpooCOkYADg6GzeTlEZL7k+LqvOUpVFIKl6shQ2euko+LlZMuw6ZKmRqNpXarbh6yYN4hEEAfs2CT4shTL7wqzboOlqEzVsrzr+bS9q7Vsqu2MXiArm7Rfai07Dlcddrw2WulcNmqKrPINW3Oe2BAAdjPv/a2tj/nHQeOl0krdqgz2bzbYHk336eqD5t2HSz032wfTinv4C/KPTzUlHv6/20tuCh3AP3DgiXk/Y+LSIkq9aRZ14Ha4YXLVRc8QF4e4WWQz99yVNNOXrlTj0tXayh4m407DxQsPzzJak06SKEyVdVaKl29kXQcOFFmrD8gTToPUIDHUyQN97jWtu9onwLjAeisQ/cRFFepXisVCjxUwJCO3RB9Va/BGqzYd05efzev1g3j4s0P8ukxwgzTALXzxvv5ZNravdr5DOzaLbuqwGHNL9kVp4D+xvsfSfWmHT02hMoXNYQApjaHjgeOUYAVDXMxfc0ewThBaZoBwz2Mpbnhh4UBi+cN81G/XW9NQ1888/IbCv68GxY3LAsb74clC6B/UKCoR715jw/yF3WXY8pjH7CHHuD/oYeCcoclgjViw5p/7tVc7vP+ExdpG76a6wPBWCtQoqI88tgTUqh0ZWWAXnsnj04D0Q54CasOuAzHOq26qayYd8cLwwgdMXe9KhTa6JmXXlclQrt6M1LmuUD3KXvo/rzX1K+jdAuXrS6vvvOhGuGvvfOhGsz5i5fXMUv9GBvPvfKWlKhcV2o07aTGN0ofBct9PFc8M8Bs/tajqsxRsozPqo3bqaEzZPpK9aDw6J59+Q0ts0jZaoKiTl/bBOehp4dyBxAw0gEBAH3qmn36jsjM7I2HZPjsNfqOyAiyUrxSXXk7b0GBwTT9XKBkJQWLwdNWKNjkKVhCHRK8W9KUqd5ItyLlqqvRjbc8ekG4yta4xUmsm8mPfWqAjg6GEShTs5l0GzFTHZNarfsogPefuEBW7j2jgGfyxBGbumq31oe+QUbQLf998hnBO8YBAOzGLQxTo6xohZqyav8F1dcwquVrN1NjwIwBnAYMXJO/2QcC6HM3HhTaCh0Mi4G+BiMwEN/L96ks23NGx22NZp2k89Ap0rzLQClbvaE06dhXylStJy17DJXFO2J0LMKIUDbjFB3P8cZj12XTseuq59947yM1tBp3GiCNOvZTHV6gRIVk9Tb19+ehh5xyZzlQsDS7M32wlDvAgEIDCBDm0fPDVEjxSrHsma/I/UkJBRQ8GMBlwdZj6s1UrNtSgR0Pp9PgSYJgIwgAOsdseAYYA1i3GAZYglDaeNZYw3Q03pFpaLNPDujJPXQGaIP2faRJl4GJ79BFqa/cBUsIczEr952TdxIHJe/4SclKOkCxAF3W9Xx55LEn1VLHQ8EL7z1unnrHfccvUI8FDx0WAWvVbCg7FBvgbepr9i5AT6LcfQXF4QXhJeMltuw1QuuOsixRpb7SYNDsk1bsVNDBO6DdOGdKA6ODAYaH/98nnlUPbcDkpaqYqTvboKnLZe2heAV0BpOpN3sGNfmZ+jr3AQP6iWu6bC3QdejOMoI9ZqDzzihWLH4MoPFLt8no+RtFKcdDV9Q4Y54OAwiFsfrABZXl4pXq6J45Nbwm7lN+rRadZdLy7e42wDAjX6ZYXHNw8cKzGEXB1tdX+pQA3ZcM+crD17Vuw6erh0m/dhk6RbqPnCGAb4sew9Qoh66lPToMGK/ME4Zjj1GztP9nb4zSd3MDeuvu2sZ4ZNCXbfuMkiU7YnTajDH06tu5dUqrVNUGrjY5ck2Zq0DmK33V3XUtOEAPOMrdx4dl0G+Tlm1VvQOjxdSaMlv1WqkxD6MF8BUpV0N1XLu+o6Vszcbyfv6iSveOW7xFDUacHpi7T8tUU8OZPKB4mdpbuO2oFClfQ/UjOubRx59WgxxdAhD5WtHgAeg+KHfGetkajWTk3PVSomoj+bhoOekwcIJgIMCQwpSMmrdBGnXqr/qoXM0mqsPR5cgwMrBs50nJX6ycGr+0O+zq1FW7VLdTX/Q63jHUN2DfZehkadq5vwycvEjqt+nhYfyavgwkKA4dzPQqLADvAQMKc4ChUaKKiyHFEKcNmeItU72hNO4yVBp3GSY1W/aU9v3Hqbw+8PCjMnXNHpW7V3J9ILC7leu3FvAHgxU9j5PStt9Y3ZhOZQwUKl3V7/j1B+ghX4eeXg89Rcrdxzp06PSeo+fIy2+9rxQRCgAPHIH8tGx1nUdn7hhKmwZ87Knn1Qql8xnkgDnCg8BC7QKwzIFwDHWFtYQFrN5vi66S99PSKpQYAJOW71Dw7zZiRrKGTw7oyYO6mFcZs3CT4JGs2n9ePipSVi1CBiaCB5Wd68NPdP4b+gXFxFw4rAQMBB49RgHWHwBhqGn2/SYslFUHLurgfDnXByp0VRq0ETaEKT0eOkocJQygM9eDsYHnjSeJ4NOe1BeDiPsIsctAmqTpsJpRQLAd0Kt4WAbM2ZMPAx1KP9eHBaRy/VY6Z8+7MngYYGZgOvfBAHpcAP+2FgoPHUBHAaHEMDDxrqgze9qP98doQR7L126uRiJywfZ2nk/UoESm+09a5H5nPFTkgHx4HmMKhcx5pXottQ+gK/EOAHlnG6XlOKMo9+4jZ0qhUpXktbdzK6Bj8DFnCFs2KyxKDedpa/bIrLBIHbuPPvGMPPTo49Jh4EQ1xJFD7sOCMD+cp2BxyVe0nMpPg3a9VfZ531JV66k3S1wGY402gznC609LezifCY5yT4pyD5Zyr9msszTvPlRBuWqjtsrEMB04ePoqfffJK3bo9BQe7Jvv55PWvUdJpyGTVe4GTl4iK/ed1Wdh12A6cEgA9QcfeUwNyqZdB+mYfeG1t9U5giYuW6Ox9gV0MnLsfG9znBqg00fIKg4ROpnAX96D6VDGvQlmAyyZTsNYp37IP9MBphyYHNIyxVKudlMdO/Qncj54+kp58Y13tE3Iu8eY+dKi53A1cvF4MWZMPmYfCKCPX7pVHZey1erLh58Ul5nrDkjp6g11qhUmgbxow1kbDirYQ6eDH2z0EQbLwCnLpEaT9jJ19R4FbuQT/ci4LFapthoHAPq7H32qz4E5TEvCwuHAmfp67/0Besgp93QHxQUZ5Q64YXHSiHQ2FiCULQBD49MQAADzuggXFBUeNsfM1zI/iYfdsGM/VQwEbUDFYSURbNZrzByZs+mQ0u1Q7ND0NDoBYJQDDY6geTd4IICOdUfUJKwByhelXLJKPQVo8puxfr8OhH6TFknX4dPUimNwoAhR8qSBigPQoRnzflpKFVaB4hX0HfCUB01bLj1GzZaxC8J0IAGWK/ackXb9x8qEZduS1Zt2ca5D9zWHThos/bK1mkq9Nr0U0BHeSQ7K3bQHdYDqM+cwCUwH4FXSV3iRr+R6X/IXK6/nKFz6AIEnRqHn6Fkyc/1+9SJ4T1YfYM3P23LUnafJOxhAd31YJoA59HRGuXcZOlW9Bxgj+hjFxoDGOKMNYJDof9oUGS1WsZYCDgYNgEPa/pOXqEFk3pP2gWI253iZ5ME5c5EYVSgXldFEatqkTcs+JQ89LfmZZzDGoYoxZmin19/Lq8Y0YxcGCM+NKRcMQFgsAAxaHbDC027ZY5hONwF2z7/6lno1HQdNkpfefE/HLsGgeFNMXWA8YhDijWL8ovj7jp/vbkNTp+D2wXnoTso9Jsgod9qA2Bn0D3PIoxds0jZA6UP94k0yl9tjxDR1VPqOnyf9xs/XIDM8bN4Lp2XYrNXqZZav1URlCzYS/YeRgywujjiuDhGG4cz1kSpXUPe+ArPIMzVAp50BK/qHQOJPS1eWQiUrqWFGgOzYRCofcIbtZB4cz9Q7ZgJmFG+c6TmcKt6XscH0AvVGX6Mv6N8KdVuqofJO3kIqW+hp734NBNCpQ/NuQ2Xjsc+UUUT/4HD889+PyOwwF0PEO8GOwRzmLVRSHUecLQwm6kq5UPIAOvIIUJu6mABtggSJY2jUoY801q2v1GnRRXELeffFjPgD9E2HQvzpV+c6SyeVHuhxsJQ7niBgzjw6XmnVhm1VOPF+oEdoPKw+aGKCkphrH7dosx5DW0PZozybdhmkEdgAZuPOA5S+KlnVFZFN5zEPDX317keFNFKUzuE5M5dtOsnsPQDdR1AcRgWGBlQrQXfMMXMNhQ+YMcCgkZhDIk/ula3ZSOdclu2G8qmn1w2gY7ws3n5S1h26ohuDBbodA2borNVq9RE1jkD2GjtfYBVQmgCuqTP7wAD9qgJS91GzVDEyz4QXOmZRuNJftIvJ0wA6lDPvy1wRipl5pI+LlldlwgCgHXQ7eFkKl6+hxhWUG8GKMAAMplHzN0rN5l2VfuYZ6mrKYR8MoOOhp/Zva6GIcof+HThlqSoeQ9/RXsxta50PXFAAgvEgGOjh/z6h3iTTIswpIwt4Mnj47DFAeXfYJxQZedAOABYUvgH0EtmAcscYR05hIgB0PHTAHa+TwC3erUqD1mrsYWRjyGDwYazgIW2ITlDDHc8PmcLI4f0JjAL8iCfB0EQ/YATMCT+sYAWwoS9WRyYPZqXMwDcAfafP4DZnoJs5Tg/lXrRiLVm577y+H4A+Y+0eyZWnkItxSBxvaw5eUeYHhkOXwB65pnE+sIC8Eyt3mFIcvTBcpzDwip96/hXXM/3Gqs6DOYKVxJNkqhGGEI+fNvUFLKkBOuXCoHYaPFHWU8/oeNkQHa9TBosSAzvRBUyzoRuQb9gTmDmcD5wl5DzPp6XUE4eKrt+uj15bFHFSChSvqO/Wrt846T9piRrJyBJyhdMDu+qr3oEAOjIFk0C8BvLCiiYcLgxEGAzXuCunMoaThwNIHILS6jBudZqr3sYYm7xip863g0EYI2zEQyzeHiNNOrg8evXS2/SQag1aqfNWtUFrnToCC7xl0h+gZ3vKnTmTlj1HqHVnBKFC7aZSqkpdVXo0BBZfk04DFLQBbqx9NpQDlDtCjjGAYEEFM/h5DsuJ+R88nmmJyx8wDBp26KfBNxXrNFOK1AlgpuE9AN1HUBx0ErQ9CowAncJlqwnBKBgI7BEirGcC48iT6HGsT4C4QMmKavVxHXqKoDiAGyuRaQW2Z19+UwfkqPmbdF6eAYqAsTH/BrjADniDIuepBcVRLnO1zHnCBhQsWVEKlqioFniRctU0wMm0A4F5hk1gcJpAPMrBqyR47uU331dvEo+S+r35wccK4NPWuKLC6T+uw2BAsdHeTCeYMsw+KEAPdNlaOj10PCqCKmFYmGeD8oROBHCo99zwaDf1qxRipTo62JFFjDbeE8+LKRKMAww3FA1TGAAWedCGRDNDL2LEIq8ol9DNoWfMp19ZXkUgH+2hbMyomVK9WRfJlaegYLSafmWeEQ9tzYELsunYZzJz3X6lhbm/eGesjvNiFeso/Qk1ivyjLCcu267U7NAZqzQQkfTI/TMvvRayGINgKHc+/conX3FugqHc10RekupNOkr7AeMUfPH4mBbE8+4xaqYeD5mxRueZaUfes22/cSo/eJBGh2AImvFHGsYgVDbHzg09077/ePkgfxF1fGDFmA7Ey3Sm4zgQQGcKkMBH6oJHjf556NH/CYAO3UwQKGwfDofJn3gRjFzA0FzDsC9YqpIs2XVaPixYUkGPNmBM0d9E/MNY4AUDgjBi6L2OAye48zB5BRIUx/syppj/NzFMTGMwrgi+w/MnbsipQxduOy51WiZ54ZSHoclUCEY8QE7/wUQ4PXgYVuJB0JH0F4wDdW/Za2SyupOnP0DPXv+2lsqnX2lY5p2hSLBQTQSrEWjTmWaP94PiNOfs8XChcpzXvI8RQpQv5Xh7uCZtaoDustJMtONnmtfGxIGl9cfjdILWkWtaL+rG1IIxIvDsOfb+YA7nzqkArFyeZUspEIg2dFLuvoLizDuaPfV2191LOaBATD+Y9GbPgKM83sdcM+fszTWCXlx1T95fJg37rAboLGeEHcK7hsFgYBO0RdQ2SpP4AoxR5iipP8CMJ7Ziz2lllFCiyOiAyYvVy0cBoOBoGyhQlFeTLoM0WI59txHT5fX3PtI5dWJKYJqgPInKdbZTsMcZRbkD5AT3wUwwR1uvbU+ddvm4aFllpxhn4xaFS55CrvlXGCe8JFYL4N0zBolsxjti+gq2ClaH6Q2OmZoiD7zLFj1cbBeeHxQpihoq2ZvaDa5tMohy9/HpV6XEoy67FT5jwtTVtWTxkhu4uU56QNHoCa75GocwfyYfs+cZxq3TIEwr5U6e1I/xa/JnT7lG99JHznvOY6cOc7WBi5Vy6k90G3qfOhNE5/G813uYe4EAuklr9t554xBhbJr77KmD9zXwB1wx78J7G3aNZ7QtHPrO5Mc49y7T3PMP6CGm3AOl1v2l25PC36f6+rCMecGstk8O6EkDMKvV1VkfhCgQD9084wKXJPD1PjfpMmMfLKBnNOWOAgU8iMieunKHTGFbsUODGTlmqoUpHpQR7cOAZ0qE5X8wNwCS+Xog4AU7g8IwbQlLYpYK0u5TVmyXMfM3yLgFG2TMgjCNmxgzb30yBWOeD3SfEqBTbqD5eKeDKmfelPeCscDjMYGCzIUT9Im3BQ3LszAczDMS9U57ADwTFm/W92W+fcz89frOHI+au17GLNiooATTRrAdc/MYuqYeeGAmWt5cC3YfjIfu/Le1nPL3qR4euo916MG2Z2alTwugZ1bdAinHH6CHnHL3B9SBXg82yj2Ql78baZIDevIo97tRr9TKREE7Ad1XUJwzD28AT4+Cd+abluPgAT3l/0MPRZR7Wt4jlM+Eoj9SjnL3pGtDWffskFcwgO78tzX0oZlbd+79fVgmq7aFB6D7WLaWVesdyBz63a17yoayP0AP+Tr09Ee5p/Bvaz6Wrd3dRvevzKbvyBn/thYIoDv7IBQA4swvmONgAT2gT7+mcw49mPpnRNpQ9EdKHnpG1Dn75Bkc5U5QnHFsUvTQfVDuWbVNLKD7x4D09VkaAT3UUe5xV++4hdYIbzB7S7lnlIAEli8A4PTQU5tD9wYM7/P0CXVgdTZlBAPoKNSMptxNvTJvn1wJhKI/UgL0UOSfee0TnDwFUq9gPHRLuYe+/QPpI19psr6HnnJb+fPQsxzlvjfO/6dfB687K8sirzq2BMex83pojpdGeufvfe6/nPFbLkjRnuFKqxXrvUWmbr8UQF09809evv/yPNvFlW7pgQRJaWMeyeO+nsdL1VFJX4prN/eoZxqvPJcciPe4733uzN93eV518Mrf+Xxqx/P3Xg7w39auSsB/n5qtPPSMAvSMiXL3pWiz27VgAD1Qyn3mzssB6IrgdAH6Ibk+8dQ3vnRIate6LUmSjS6LTnrV2zP/5OUH/w4p18ezPPSNv/Szd11O9m9rc3YH2+7+8/dXbmrXTRuZvWd6V3nc8/ct99BHuafzz1lS8tCL99kmd3XrHVz5RbptVEBnLjZN9e69NW3PJbZTsd5bJaitjyt9kR4uQ4S5vaK9NgeXR7Blhjg9be2ck/R1zJ+z5ExA92XVJwf5YEEzJQ892LxyUnrYiWAAXdehJ+pHf5R7mnVFALoRXZAmPZRC3uRpxliy/IPUl6GuW2r5OXVFRrZ7avVIy33jLJq2N/uQz6EjqMFQ7N5p96YQ5W4qfc/su4S5B0ua3pnnzdbVcezvGmlCuZlyzN5XHcw9s/eVxvua9znPci3ADUAPhHIv3G2jlBq4Q8oM2imlB+7w2AK5RpqcsJUcsN1n2xbvFyHdFp+8pzd/beNLFp2UO7FGvtIku2bGRVbbBzLWghyXyd49kDJsGg85Cj3lnl5AT4Fytx0eOGjZtvLfVgEDulEW6VGmJg+zT6uS8/Wcr2umnLu1T09bBfvs3XrHNJbr/PQrjowdo/7HqG2btLVNyD10b4872POUPv1qOzltnWzbzbPdAqXcbbt5tpttj/S1RyCffrVtnL42vtfbL/xwiD8sk95/W7OUuxXojB6UO0+YoLiU/5wlo+th87+3ZN2DcrceumUo0sj0pKQ3Qk+5p3vZmv8o95RexN67t5Rjevo7aMo9AwZeeupvn82esu6k3Pmmu+3H7NmPWbnfQk+5x7v+fCBYqt2kT4ly77goRkaEnc0WW4/lcUnL1nptkb6rTmV6vYdvOCNmM+1mztlzzfP8jAzbcEYqDt/tUjZdwqTxtMNeaVzt7/lc4Necz/k6Tl6nwPMesv5MgMvWrklcAH/OUn7ILhm2/rT7/YdtOC1mo+7m2OyHh3le0/cLOyNc97uZPnKm8XfNmcbHcfUx+7XfinYPl+7L41xlkpczrb+8TTpzPxP3nZfEiFkRUmdCZFJ9TZ2c9fc+9k5j6u1M5+ua87459s7LXDd7H/mUHhTif1vrvVUGrEHmkvSc83gE1/3cS5bOoSud9/wdj0AnBJp3ov5oMfuY2zBpNvOIW8f5K8N5PS3lufSD77ZhvBk9p/sU3mXg2tMa8Q84I3tdlsYm6kPfeTvbJeU6JD2f1vfzeAdHH5rr3ZbFiTNC32lghJxyT++X4lL69Kv9lruvZUmhvcZSHOeHZVL7UlxWWoYUzIdlAPRBi1P+9GvlEXsS/wiFP0Px3PhLxuTXXP9gZa5nfNs4l6RdkwaTDroAvUe4TIlI/m90GV+ftMni2M3n3YDeYobzj2Sc70fe3uf+rqWtHoG1T1Id6Oeglq3xb2sOh8epiM0xn35dsj97fCaa9uq3ItYN6L2WnnR/Jz+wtszIfko57+WR8e516EW6b5QJW85nm7pP2nbRP6BHJ6RrlZlxrNnz+5HzQlqO98T6p9xHZatPv15K8tB9/H1qVhV4lJQT0FP7UlxWeo9gAT21L8W5AD3pz1Cy0rv6qkvDyUmAPjlHAHrKStlXG2T2tWAA3YNy97NsTb/lvj/5/19n9nsFWp7Hp1+z6Z+zAOh8CCzQd77b6VIC9JBT7ub/ftMC5jyTEuVuPfSMV3D3CqDHXAncQ7/bAzjQ8hvmOA894+U90Lb1ly4YQA8kyt3+OUvm9Lnz39ZyEqCHh9pDT2+Ue0qU+6hU/g/d36C7G9dzyp+zZC8PPT6gOfRdJ68rLTVwUWCU+92Qn7SUmfMo98xR7mlpa55JD+WOnjQ0u3NvAT1z+twCeuqxbkq5n0pI75+z5EDKvdcWmbcne8yLoaRqjNnnVjbZaQ599aGrgQH6CYLibqb65yzZjnJP9NCL9NgklnLPHGAI1kM3zGVMCpT7omw0h+6k3Htkozl055+zEBQ3fnPOmEMPOeWebkCP8f/3qalR7mujrsjK/ck7ZtWBi8K9lCzxdYcT3GnWHLwkqyN9BxWtTuGeM//k/4d+OVn566OvyrpD8cm3w8nn0BZGnFCPwFmG83jV/vN+7/PutIFJv2zPGS3TnDv33pR7egB9/eEE8Vdvylm6+5S7TqYOG45clbWHrrgDzpbsjEuWxqT13gc8h37yun76ddCSlNehm6A473ICOef9Fm477ieQKznYLN7h/z1X7D0ri3fEptoOgVDui7Z7Bi6t2HdONkT7jxNgPDEWVh1ImmOkf9YlyijXOffVJjyb2rjjOf9BcUntRBnUlfQeY8bHWDF1WR+dICv2nXXXjbrSL9xn7Pkb49ynTdzbEf/tEyygm6A4f99yD2QOnXpTf/OeZs+7ebRNom4x99nPCjsojEuO6cN5m6OT5aPpCQL1aIOkYEBnfn1XxLmN/55+/g8dfRqW2O4865Qlzs27+OoPc2/Z7tPuevKey/eccZ+b+nDdO4/Vkb51eSAeOvJj8nbuaT9km/LYnPfQd+aeuc65OaYtTPuba2av+SW2Oe/tnbdJl9IcesjXoWco5e4jKG7q6j3Sc8wc3Rp26CsfFizhPu8zfr4KbZ3WPaTLsKmyZFec1G7ZVWo07Sg1m3eWUtUayuQVO7Wx2w8YLx0HTVQlzHPVGrfXYzoIwZ+6ere06z9OSlSpJ8Ur1dFjziet2OHuLNPg7AOh3Ks0aivlajeT8rWbyfv5i0i5Wk31OH/xCioUGBkr951XUPygQFFV6pyzOZUwbfD0i69Lv4mLZOjMVbqNXbTZXa+ZGyIlz6elNE+E66MiZWVuuO+BjBBVH530b2u+KHcMgmKV6kjZmk1k+Oy1UqB4BSlWsbYUrVBLipSvKdynDbqPmimvvvOhtOk7Rtr2G6tbtxEz3AOhZJV6woCjrcvUaCxlazSSyg3aSJWGbYUBTF0Ll6uhZRQqXVVKVWsgpas31GsTl0W438+0+6qowCh3sw69fxoodwZjjWadtZ4dBk3UuvLevH+BkpVk3GJXu9PmTz7/irTtO0ba9x8nRr6QQYyvcjUbS83mXaRum57aFy+9+Z70GDVLZddbKQ2YvEQadhyQ7H3Ne5t9apQ77fnK27mlXb+xKr+jF2yUSvVbidNomht+WMYt3uLeGCOteo2QMjUayfwtR7UOdVv3kIFTl+n4aNN3tDTtOkiPF0WcEJQgzzM28hcvr+3EMdvM9Qd8vkNqgL426rIMnblaGrTvK7M3HpIKdVtI7k+K69ihfkt3nZKOgydpGw+ZvtJdxpxNh6Ri3RZ6joL8pFRllSvaa8qqXTreTNuNmLtemnQeIE26DJRmXQfrOC9QoqKUrt5IPi1bXZbuSm5wMVaCAnSi3BP/nCVYyn38kq0ydMZKGTJjpRQqXUXbdeiMVXptwtJt+o6Dpi2X2q26Ses+o6R1n9G6r1S/tYI47zlx+XZ5+sXXpHGn/tqnDdr3kXfzfarvzTOMTdqgWbchUrtlNx2T+YqU1XHO+FwTldwpcXro/gC9WpMOKmOTV+7U+r+Tt6D0GjNHhs1crcBcq0UXrRv6ZOKy7aqr0YX0c+NOA1RfFCxdxV3+moMNUrdZAAAgAElEQVSX5eNi5WVlooHHu9H/6LzydZon9neC5tl73HzpPGSKWyZMf6cG6Mhx5QathbFXsFRl1fmFylSVKat2C+OmXtueMnj6CpUXkyd78AVZr9umh9Z77uZoKVqhprt8cGf4nHV6jvHVYeAEbfOWPYdLpXqttK3zFi6te9I68zbHKQF6tvq3NV9R7ghDr9FzhIGMIKI4GZwox09KVlJhzvtpKSEd9z4tW03wePAcWvceqZ3CwASIugydKrVadJVazbsoyHCMMbBg23Fp2mWQNGzfR/qMX+Daxs2XFj2GSY1mnXw2enIPPbkXg5B2HjxRuo+cqeVPXrlLGIDFK9eV5XvPyIApS3XAVazbUsGMDkcBo5ja9Bmt5QJsGDFdhk1TMOC9jQAiAAOnLJXX3s0rDCJAA4BlEHPsBH0jLC5AT5lyX7Q9RtuH9uo2fLoqvwVbj8q0NXsFY2RV5EU1KqhX3k9LazkTlkUIA4JBQhmdBk+S51/NJa16jRSEecScdQqK8zYfUcCeE35YmncfJi+/9b50HTZNEHLuLdsVK1UbtVOQN3U2+4A9dKXcCYoL3kNnEKJ4MKLqtemp/TZ/c7S+e9XG7WX0gk0qLyictz7ILyhZ2qVRx37a7hg7eBe0AzJYsmp93VB6tMGrb+eWZXtOu5VTtcYdBGDJ9WEBbXP6H0Vi3tm5T8lDp80xlgBfDNa+ExbIjPUH5J28hVSmMEhgFDAuUSQ6Dlp0Vdmq3byTtOw2SMYs3KRMD0ZWpyGTdUxhlFRv0kHTAxAYYlUathGAnjIoi61Oq+7a1876muPUAL3n6Nkq82+8/5HKwvR1+1QG8PQAXMAORQ5A5MrziSpJxiaGB+3Wf9JiHU9PPf+KNOzQT5p0GSSAC+9q6oChxdjrPW6e1G/XW0GlZJX6On5oG2PMmPRmHwygO6PcU6LcF/ug3HN9+Im07jVcGnfoK216DpOW3QdLg7Y9FbSRNerDOMHwdfVdF91/VKSMoFfoF/RC3wkLpX7bXmrUVW/aUZp3Hyq07+LtMSq3eQqVVHkFwIfPXqOyN2pemBQsVSWZZ02ZTkD3RbnTVzWadZRR88PUkeg8dIrqO4CsaMVa2ncYZSUq15XS1RpKyaoNhHE0aXmErD5wQb13HK1nXnpD+/WVXB9I/mLlBQfn46Ll5NmX31BDMXeBYoI+feqFV9UQweCk35A99JTpL7P3oNw1yj3JizZpAGNkunm3ITJg0iKtG45J1+HTVUYwEuu17aVYAw6wvf5eXgV/3mfBtmOKOR8WKqlyh3FQq2VXxSdTBgZq7oIlhHZCPzLGwCscA6chYNKzTxnQs9inX4ONckfJ4+FhUUInsS9crrqCda+xc9WyL1iykqZBQOl4BgDA8//svYV3XEmS/7v/wzvv7Dm/ffvbnd3ZmZ4d6pmeaWayu+02MzMzM8iWZJaZmZnZli3LzCyzzCDLdre7Dc3xziduZelWqapUJLlkZZ1zz6W8CZGR8Y2IjMz66z/eUuGI1vvhF1jAl1VY12zWUbV3mLrHkInKDAhCBgBKgTladB+k1r6b2OY6P6Dn124R1DAcTPHWR6VV6KPdffpVNdlw5LoMm7FCrQWTpzljhSOw6HyYesLS7WqtMGjrtuomdVp0FqYGSE/+KDHdU8Yr+FRr2Ea6poyXUhVr6SAzeZqzP6AHstBx2/7p72/Iu5+VlUHj53sG0Dqp0bSDJI1foC4lhCmKExb83998X1594z3VXI2rFvdphVpNFKQZCFi5DGaYH7rM23JU2/j2x1/I7E2HVKFZuddxF6N8+buOqX9RAPqW0/cVmMtUra9Ahqdi/tZjyi8ISqzrXsOnKODDTwAKfYvQMu5fAB2FirbhLRk4do4KNCwShDJtQUHDUsT6REmDr7lGyes6eGw+AcU3IQH97APpOXSilKpYU+q26qrWMzyEkEeBwCIiD0Af/m7ff4SCPx6EQRPmS/UmnWTHuYcqHOmreVuPab/zHQoOZ1N3PE94y8w44Yyl3D3VGUuU4z5CATr8OGVFhlqU1Rq2VusGRZ26Q1OUiWlrdqvViQcCQY9Cz5imPmWq1JFZ6/erAtKkYx9HYJavroD+2tsfKUgYdzD9h3IA3fEevflhKaUV/YSccdfZXEcC6O6tXyN1udNGjIqKdZrLmIVbZfyyDKlQp7lAayx0lHPkE544xrtzNJYPS1dQQJq/5YgA7vQvSiTAz5l+Qc4hg2gT32GJA66N2veSV994V4Hqvc+/CgjoPi73AMvWWnRLUoUfsMKTiocNBavPiKnSuGMfnUbB6wm/f/RlJekzYpo069xfUCIW7zwjy3efVwUYebX6wBX1eDXvMkA2nbgtrXuhmEzWvoS3pq7OlIq1m6jHCyxwAH15YEA/meuzDt1/2RrfYwRCV4yncjUaKZ3wbmHEoPTB18g/6gV9F2w5ovwI36HEIwuQ5eMXbVVeBMwZxxg5c7cc9fITBhpeqE/LVtEyka14WsAow2fucyhAL/Yud5gZsKXzcAvCsPO3HVMLEGBfmpklYxduFgYzghQtDkIjKHCHwlwItc/KVZUNR29I31Ez9dv+o2fp9ej5G5Wo7foOVysR4VWjaXsVYgBPs87BLPQ7UtHzv+KVNCguP6Dj4ho8YYEMmbRQLeeUCfMkdeIC6Zo8XphrAdAdTXmLAiPgyMHA7jZ4rLo3aQdAzoD5099el5TJS3zmq4bNXCnt+zquyi6Dxmib0Qobd+grk5en52MY8msyKbSFjouWdqdOXqgDEQaE4aE9NMfdjKCp2bS9fF6+ulpKDNjPy9dQrwkua1zt73/+lX7DoMeVhdXLgZsN9yCK2n+/8idNgxWvlsT+y+pypJ5uJuc6XEAnyp1lawWtQ28w4YjyibscXO5Yg8t2npTWPVNVEaRdtB2gg9foP/gEZQuhOXLWKgWIz8tVU6sE1zQuX4CVuWGmbeBB3MhdB4+RRTtOqRXgBfRJi7yAjscFi8FdJ+c6b2MZguL8N5ZhigbryJku6K51NdNHTDsBZuSDsoQgw/IFyCavyFA3LYohnoH3Py8n1Ru2EtrQL22WME6w1hk3uCLJA8UEftCx0qS98jBtw3Wfv96h59BxffYZOUOad+4v735aRt3ClIuHh/wYD8gA6sr01Yely0vHASN1igxAwOpGieRbhOSy3Y4Xgim0ms06KJChwKM0/eEv/1CPBXzbtFN/9U606zdcPi5TJSCgw4M10w5455Dd0eqBrtNWZ4Xncg+wDh2rMGXiAnVVI+jLVW+gXjD4jX5BKcN7SD8ybdCgTQ/p0H+kYHTQLyjQWLpNO/VT5Qd5husdbxfTb3g34Lf/+K/fSfmajfSAz1BIGXuflK0aENDdFnpyAEDH6PigdAUZOG6uyh48N4BcrWYd9BmKeaW6zbTs/+f//VfpPxKg76v1whqnbPoPDx2yGu8lIAofAZoYABOWbJeug8dp21GeuaatjEdkaIEWOkFxAdahY8ylTlmi3qavFNDbKYjTF+36DJGF6afkq+r11TvMOEdZYdzglaN+jKt/+4//UjzCI8GUKIBOniheKDjIjX//zf9IjcZt1NCEp994/zP1vOAVCTReQgF6/F3urp2QTERnJOfDIf4PPZDLHYuWeR4ECJ1Zp0UX1WwQ/syxAAyA/Vsffq4uv0/KVNJBjCsFTQkBiQD9okpdBdGxCzeJ+8A6hKgoDQhu5j6rN2qj871YCgi/QETPb6Hnd7njvmG+mIO5rfqtu+s1gwzrFmbEBdZ50GgV9Aj7roNGqzUEOOPGRon5z9++Ir/5n1fkkzKV5atqDdQlVaFWY63XiFlrFChgnI/LVFJ3DtcIZoS1f90RUu6NZQIFxWF5vl+qvA6YgWPnKX1rt+gkm07mKB1xhVJPXGeAH8IWjRaao4ys3n9JwYwBu/7wNQVw+oKpDgYGTI+7i7YBMAPHzlb3MJ4VQH7M/PX5gJZ2RALoV+8XDOiBguIAYASq42Lrr23Hfc60TIN2vZXfmP7BS0KbcRUC/LS9Ta8Umb1hvyqWuKCZkqDvsZaSJy1WwcvzIVMWS9L4eSoIsUCZm4eGtL18zcZKQ/9+4z6UhU48BlY0AhFFgmkXhAyWNAAMMOCCx1XIM4QsXivc73974z39Br6B57CMmRJyjxOuzRw59ChXo6HUbNJesKprNW2nbTXTRP51D2Whk3b4rNUqVBFwWN6MZ4TllFW7lEcAdIAMcEBQIuhJg+Jav3VXHddMa/EMFzMCGQUSBYD88bDA9/QXFvqEJdsUPHB5AvRYZYGCsPg2Igt9zTnvLl6hXe5+QbFZD2Xh9hM67YCCgtVKfAB9hdIIaLKLHvPgWNwA+V//8bbHom8qePCoK30GQGPNmgOrGAWc9zvOf60WOtYiUw/ELZSuVEvnkYkDCRT86AvovgGX5MnBOCYWCfqi5NFP9AP8TztqNe+olu1bH5ZSUET+8Zy0OsXVrIP89g9/UcWF8cGYqdHYMd6QMRgHTEUh3377hz8r+NNnuPSZYigQ0IO43KFL2tz1SlcMFRRA6IAhRlvwZCCfUJagJ2UmT14qfUdO03Yz1YEiwxhCYcfDhmzDg8S0pIljgq9pJ4ox/I2SgqIaqN7QMzSgx9nlzpaakQC4f9pQgB4oyh0h0nvYZCUgbrEO/ZzgIZh8ykoHsAB1gJf5ZlyOANn01ZkqINFusbqwtrHm//z3N6RG47ZSo1EbncutULuJznUCRLhSNx67qYJg3eFr6mpp0rFfQM01P6D7WugIDuZNcTuhkf71n29rfRDgPKczg7vcN0m35LGyaOcZmb5mtw7s3Re/ll0XvpaMC49k0/Fbqu0BrATHMHg4V67XUgcM1x0HpqlAN655M/j8AT2Qy33Z7vM6qHQ+bPwCtcSZm6zSsI1qxuQFs0J/XNLqDluZIZOXpcsXletqXwEwuNhJSz0RHAhgPCi4u7BgcXdVrNtc05AOjRs3Kd+a+rrPIQHd9d/h+y8+FIKSCrLQAwL6qRylIYMVoAYkxizYLNWbdND6Ma/GPPnUlbs0PoL2wGvTdU6smdIFwYpgQvjSFjw+ztzifLUQ8SABOih8tI/5QObguWYuEqvF3W5z7d4pzt9CJw2CHuDGjQ6PMV4YG//1+z9qHwCMCCXS0AfMj09cul0BhCAfPEEIY9yxjK9/vvORWhaMFwQWYIPbm1iWfqOma3qUCOZCl2ae1zldAppMfc25IECHDh0HjlarkbGL8g54dRk8TucrqTfxDIAGgA4PE9wHP1EnUw58SEwGghhAd8+hkwa3M4IU2qOwoXBicaFoYo2ZfNzniADdtfVrJC53aIqh8ufX3pJqDVpJzcZtpVbjtupepj3IJsCW9gF2TKn99fV3pFuyQx83oAOaKGzt+gxVJRPlzh1IiKcP5RRLERr8+R9vabAW/GqmjNztL8jlTn+/+cFnanGjCOKVq9m4jVRv2FreeO9TWbj9uCqXyCgULO6RGesO31DPDkBHedTLXHNftlpdWX/EE+me9UiV7FX7LqpyOnPdPq8nYui06FzulEGbsaKRxSjdeD/hDZRDBfSTd1Vu4ckg6Jq0KMXEDDC2iLuAFzGemIIkz+ZdfOfQeYbLHaOybe+hSieMO3CF8cqqH9K4j1CAHneXe6yAfiQ7wnXoWQ9VkKK14lpCG+TaRG1CiHGLt8r//O9f1EJngOrSqFP3VPCkzV0n288+VCto2e5zUqlec1mUfkoPhAf54coieItgIIQaLlI6Du2MyFO0LjfBuc4P6L4WOkCKQFm557y6xViWhAXEfZ3mHWXV3gvqoiFAgvlCc8D4aK7cUw5giKfAcVkf0jNAiPbLIJ/mmV/jGUyFO5trDoQ5c8LuujuAnhflHshCR3OnHjA280W4mvqlzVZPAYEfgBpuMrRV6rbh2G1hYBPoxqCmPGjOfL7ThjvaF//6b/+uAwUBxnO+AzDXHb2pzwmGwR3KKgOsKne9NZ9TuWGtQyfKPZw/ZwkE6MyX4UUA8AAR6scc7+/++KpaiWZ54Ix1+3X+EsWGfjDaPGAO2BCpzBxt56Q0FVwMaPgWwUH7ERzwB/RkSoJyuAbYUcb82859QVHuxF7gSjaCmjlAeJppEVYirNhzUSrWbqouSxRdwG3Gmj3aT/A4lisBkQA6ylqjDr29YwULHcsK8B08aZEKYLxMjCHGE0IafiEQ1b/uIQE966G2He9YqQq1NM6FsQgPAkREMKNcEDTGuMC9S/7wG0oh3gLuqQv8o9NkXQYoLYlIZswDYFhdzDejmAAIWFNYfYwTrnXplZ9gxSqOBNBHr86z0DFkArnlQ20sw/z2kh0nhQBUDsYv/EL74MvWPQZLq+6DpXXPZPX4cW7dfZBO0cBT8N4HpcopzZgqQYmEfh+UKq95oIgRNIsSBo/SbsYaRhPXJv7F3X8+FnqAZWvwDIpS9SbtVOFAbsDreBwIOmRKBXc2MpoA5Glr8tpkLHTKQzHG44oxwThBvuGJ4R4LHUMBhY760ucoN8hYxlEgS7egKHemqBgbTNvg7mfMYGwxtYHsJ8odmr/yl9fUDV+lfispXamO9Bo2VQEa/IE/4R/iD/BA4u1BMWZswXcYkIxtYoxQnllJQdtoK3mDNe7VTIbuoQA9/i53z7IMf8s73PtQQXGBdooDgJp27KNMCLBgUcOQzNmlTlnqYfZsBQC0KpbUQCwEKoMfTQpwIcgJ5iAiHNDjgMgm6IkBMWLmChVuMBoHnQaRA7miFNB95tB9AX3O5sOaP9+jmSFwsLwYOMNnrpR+o+eopYT17u/aZG6HOUS+ZQkU7lgiW3HttOg6QAUrrjXDAOYMcw+Zuizfc/MelxvXBW0sw3wp81koR5OW7VANG61/5b6LOpjQiivXa67MijsKgc7gZb4JBYoyuqVO0n5Cs0XItu41RGauPyCNOjiBPXhTsFRxMVeq11I6DRgpW08569OZQyNoy9TbnNlYpvKwvQEFpVt4MocejoXOHLr/H4IQrNdv1Exh5QEDFH7D0ga46ZeW3QapcoLVitIBsNCHCGO1srMeqts6afxCBUV4Eb5t3qW/tO2VrIMbJY35NgTIkKlLPccy7Tu1ftNm5Gs7NDCAHmpjGYQgvMsUAIIPkIXOTI3gNQIEiWMgKIxxRAwH/IfQRJFF8UTJRVDhrjVjBTAnP6LH8XgNHDNbgd+MFQCTsRoIFCZnBPtzlkeaV5dBY2XdkRtqidZt2VmtbixvANeUOW1VhuYPGFMGlioKd9q8jbIN5bFxOwVxAARFhW9RzIy8wOPCGIQWKGpYZ8ytI8i5Hjl7bQCaRwbo7q1fieEw/zDn5k0APdjGMp+Vr6G0r9eik9Rp3knHGIFu9D3evHa9U6Vtr1Rp29vxHDHF076P84x5ZmgIeNMe90E/kgcuZhQXQAzlnzT0NbKFaxQIM9bMeci6y97xFijKveewyerVYc8J4jBKV6ihgcRMH0F/xhceIcPnxCww/03+9DFWeft+I3VaFaOlbotOypfIBZR7eBR+nb3hoK7SMDFHyGu8hrjKGbOmvua85vh9n39b899YhjFIcB7jAlnHd6zaoG5MgzL2SUMsBrxDDMLC7SeV9wjGxnOCoolHmClKpmyQ2Rg0KB3wHcrt/K1H1QDCoweNUZyRB1zDh4C+qbM5z9xzW4L929rO03F3uRe8pVwocD8SYg49kMvdNDLRzvkt9PyuxkSrM/Xxt9ADudwTsd7UKaTL3fWf5ljozl7ukS9bS9S2Uy8D6ARjBnK5J2rdQ1ro+axiX/fji21ThIAepcv9xbYxNL0Lcrknat3XFhDlnqj1pl6hLPRCcLnHCOiRutwTdMDnB3RfCz1RGcYf0AO53BO17pEAenbuMxmx0gJ6IvRlSQF09zr0kC73AFHuidBPgergA+gBXO6BvkmEZwW53BOhjsHqEArQ4+5yNzshhbLCQ70LFRQXKMo9WKNf9PPiDeh5y9ZeVgsdHowmKO5F81Wo8gsKigv17Yt8V3wBPfIodyMfIwmKe5F9U1DZPnPoxXUv95fo71MzzsTZ5Q6jhgLsgt5Zl3toF1dBAyzW9yXBQifKHT592QDdutyLeuxE73LPDvHnLKuKkYXuA+jWQs833x2rPA70fSgLPf4u99zYAP2lstBDBMUF6qhEeAagF7SxTCLUM1Adwv63Nf4+9f4zIUjJHZDkf91gwuGAy0YClZ0IzwygEzBj/22tKMA9MkB3R7ljqfvzG/fh/DlLIvCaqYMPoAfYWMakS7Szj8s9yMYyiVZnU59QgB73f1sryAIv6H2oKPfUjVdl4cF7xeIYm35TKiZn6KCtlJopk3beirjeC2Js64IDdyWy456mJ7rbCJuui7IizCOSMp3yIqtj8PwJBKs0dI+37qYN/udw/5yl7rhDMj9iGubVr6h5tfm0E9p2guLStt2ImN+Kur6mvGGbr3kjvtvOPl1s6s34rJF2sEB+M/znjnIP5XKfuqtgWRGNbFhwIP6ys++KS97291p6odj03Yw9d3y2fh2++XqxqfuorTeCRrlnnMmNyUPuxmfP/6HHGBR3Jfg69IrJu8R7DN4lFRP18NTTLEvh7K0378Kud0YEafPnW2FQhoQ6qIf7PUBQAa9C0g7vIMXa45keBeTnzivQtebvysP/PtA3YT8LUHcjSP3PBy4+kKsaFHfW207/NHqftCOitvu3J/x+zt93EX1r+G3wTm1PPn5zj5sEvTZjBRr6jJUXWd8w6hJs+VAgfnLv5Y7gDJQm4r4LW5bAY7HJk8A86RgttAUDJmH6Lgy+MTznQ/OI6BnjuI22rORdXgXYn4cyzsYZ0LNzv49JQzgcAtD9K2/v0wMKhUKhCzutJfLhWpZWUPuNhV7QHLpPPtG2PYJ6+ZRnvys63i4iWruj3PlfdNvfRSi/iqiPX3SfFiuX+4smVokvP1pQM98xqMw1Z//7YM/c3wS6jnCwmq1fRxTwf+glvr8jpKulV2iACsflbmkYmoaWPqHpE3eXe6xR7kdDrEO3nRm6My19wqOPbv2a+7zA/0O39AyPnpZO4dFJ/23N8+dV7FRo6RYe3SydwqdT3F3uMKp7Yj3Sa+tyD7/zLKNHR6v9F8L7cxZL3+joa+kWmG7W5R6YLpZf4keX+LvcY/371MtfB9VcnaAOAjuKx+ETdBFVnXfG1FYNaCOoLdgx2O+d594dFMdgC/p9sHyDPQ9SXtzy95RbkIAIy0IfEHm7K/q1r7jwaTj1DERTDSaKiq+jHb+xjYdw2umbpuDy4N1AtAn0LByXe2HSlD3+fdsXbT/Y7140HQ22+PNZ3Nehm52QIrXMTfpQLvfB67Jl9p7b3mPWnluua/fzvGvSz/L5Ju9dsOfhfhMq3cgt1/KWraVkytjt1wusq7s+Tt6xtW/m7lsyi2PPLXFf88x7777WdDeFfxlzM0ry+mxvPpqfJ8/Q+eSVHXG6Pc63weoYqg7DNl0NuqTDtAlAx5M0PNQc+oB06bXsvMzcfTPqA7q/DEfPped9+MHQseqI/b58oe29nfdMx56hAePQxRM+1wG+UR7z/yZAOlOmT37ucjx55EsXRt4F1uGW1Bh1ICBtDI3cZ3eUezCXO+vQJ+244ciKvXd0T35kAUsy55h7n/NtmbPXc+y55XM92/vckXlz9jjpyM98o9fmOek9eei3QfO7Jfny9pQVTt5adrR5+9TV0x5XvUPnDR0NrTw0cdc7orzvKK188gs7b6efAtHY9Av94JO36bM9t2X4pmtBZVzcXe4GmKM9h3K52z9nKfzNMvx3ikMTnLTzZpHsgGQ2TojljFJUkNVEUBz8WVCU+9D1V/TPaqCJ/0EdC3oWSzsS6dtU1z9quQEKQIcGiVTXoqwLbY/o71PX5P196uUgUe7OxjLF438fipLWtqw82V+s/m0t1MYyxRbQUzJl6eHi9G9reXu5l3RAt4LkkVhAzxOmbn5wAD0CC33NOWG5GspkqI1litPWr2562OvAfBJvuoTaKS7uLvdoLXPzXSiXe/H6c5Y7eS73VAC9eGjdCKnGk/J2isMim5zxclnoYbncB6YLFnq8B2NxzM8CemBBHbGFzt+neoKGQ7ncVx2/b/kuQf9FMxHG78zdwb2Qcf+3tasxbywTPChu4o7iAywvy7+tvYyAblzuo1aF3inOAroDZBbQ4wTo1uVuFZU4KCqhLPS4R7kXJqAXW5e7WujF0+UOoL90c+hhLluzgG4BPZRFFqmF7g6KC+1yLx7evFC0se8CK4HxoEsoCz3uLvfC3FgmFpf7kowzku4K4Fm887SPtrj+6E1ZfTBbn60+cEVWHQjsbl1z8Kqs2HPB59tAnTRvf1G53B+Kacu2sw9k/rbjAeuG8Jm98VDAd+76+7vcmUMP5HLfcOyWbDmd5xqct/VYPpqtPXRNVuy96C1zwfYTstX1DeWuO3zdS/eVey/JGk8fuOvE9ar9l33y8n9v7sMJijPL1kbG2UKfsnJXviAx6LQk46yXBltO53j7y9Q5nPPaw9cE+gVKC523nc31vlu045RQrjvttjO5suXUPaF8nnO9+dQ92Xomrw/d6d3XsVjolDt/6zGBNxemn/SpE+PMXc7y3eeFcWieUbdNJ+54783zSM/wpvlmw9Gbsmz3ee89z7dnPZDNJ+/m469lmefy0dHk43wXYVDc6rygOKYY3QGG5rq4/NsachAectMj0PWCIPIoUFrzDF528++q/VcC8j68gvxwH25+mbflqHc8Kh/61WX72Qey9UyuLN2V5dMOxlo4Mt7Ut6jPIYPi4v9/6LFuLBPC5R4g2nr8km3y3udfSelKteULz8F1qYo1pXL9ls7fX2Y9lEbte0uPIRO142as2ydfVK7j04ndUsZL7xHTZO7mIzJ44kKp2ayDzNl8WO83nbwrk5bvkJbdB+t3ZarVl5Y9kvV+3KLNPvmYzvVxuWtQXH6tu+fQSdK0c3/v0aSTuR4ga9XUHUgAACAASURBVA9fl17DpkizLgOkRbdB0jlptHxeoYa28d1Py8qYBRu13OV7LkjF2k21rjPX7ZdPv6oq09fulTmbDqnggunb9B4iTTr1k7++/q606D5Yj/b9RgSstwPovkFxgQA9bd56qd64nUxekSHDZqyQ5t2SpELtpjJk2jIZOn25AszQ6SuUpltO5cjG47elda9USZ60SK8NsHToP1L6j54tszcelP5jZkvdVl1l9qZDMmfTYdl04q6MX7xV20/bv6rRyKl/t0FCvxtau8/hAjpzmAVt/VqQhY5AQFBwAD5fVW+gCot5Rr3gNejP+5nr9gmKZf02Pbx1n75mj5Sr0UjKVK0no+aslbc/Ki1fVK4tpSvWkq9qNPQCcK1mHeWTslWU71r1SFaa9B01Q/MZMnWZ8B5hBl0HTZgvTTr2Fehu6Fy/TXep3qiNlCpfXQXYp2WrSM2mHaRS3eZCO9w09L+OBtANGCMsy1ZvIGsOXZUqDVppHakn7+u06Cwpkxer0AXwOw4cJWMXbtL6wIdLM7OUplNW7ZL3PisrpSvVks/L19Ax+EGp8poXY/bjMpWVZm99VFo+LlNJ37/zSRmZvGKntuvLqvW0Xyh3YfoprQ/8CH/RVsY146lxx76y+eQ92Xj8joxbtEXa9hkmU1dlBqUNdYwkyp116CZWKLSFXrCS5d9HRX3P+K/bsosqav5lQ8t1R26oAfVBqXIehemejJi1WmmJwok8atp5gM/BM4wTFKlSFWvJ1NWZMnTacuk5dLJ8ULqCXnMPwMPX8G73IROle+oEPbomj5PmXZO8/cX4QWlFWVt/5IbyBfwIH9B3PYZMktHzNkjVhq2131FQaNeouev0nX+7EuU+JKCfvu/lMcNr0Z7j9G9rwQE9kMt92IyV0qr7INl2+p7M2XBANp+4LTvPfy1TV+xQAYKg6DlsitRu3lk+K19dqtRvKf/76j/lq+oNpW7LroKVQBqEDnl1GpjmHEnOucvgsWodAjwA66AJCyRp/Hw92vcbLk079fMykLvDfQA9iMt9wuItMnLmCj1GzVwhabNWStqsFTJy1kplQuqGcEexwNIF3DMufC1dBo9RBYPyuqVOkL6jZkonT305d04ao8fo+RsV1AH5gePm6UHduUb40W53nbn2B/RgLnesc4TdqDnrpFXPFHn9/U8VvNv1GaLnCUu26QAChCrXayEASIWajaR8rcbySZnKOqDRjhG2Q6Ytl44D06TjgFHSKWm0CnaH7lekVc9kzd/Um7rzDCHsX3fuwwH0vDn0rIBWkrGWCgL0MQs2ScN2vfRAKPzrv/1fqd28k/cZSpUqgj2SVeMHuJfsOqt0ad9/hAwaP1/GLd4qA8bMUdCHtzoPGq0W/Yw1u6V8rSYKRKStVLeZVGvYRrBiUX4++qKi0o02Q8eJy9I1n7LVGiifv/r6O8rT5IGCQf0QanVadVdLmT5B2FWq1yIgH7hpGw2gT1i6XcdLg7Y9VBHBi/DmB5+rwGUc0Q5AFYWtX9osqd2is7z+3qeqmHM9cvYa7V/ohxKIgpI2d628/fGXQt6V6jTT79v2GSoz1+7RcQEAoyAxRnoNn6qKJUrCH/76D+XJP/z5ValQq4lUqtNUKtRuIq/85TXtj3c++VLK1Wgor739kTRo21MmLk1XZadd3+HxBXSC4l6iKPd6rbvJyDlr841DeA3QxvMBECNTUOgwhOCrtLnrpVqjtjJ52XaZuHS7TF6ern0Kf6MMwM94o+ANQPfVN94TDC7kQ6/hU5R34N03Pvhc86nVpK3UbtJOqjZoLTWatNcyUPTod+TIq/98RyrUauzt+z+++rpMW71bZVLV+i3lT39/Q+q16qoKNUoCinWPoZPztcs9Jl7kdZG63LF8otUI+O5IiL3cA7ncAWEsxTa9hypwYInP2nBAECRYBIAWzIQLBWv2oy8qKLNxz4F7Z/CkRfJB6fKyct8lZQgsFw7yhZHoPJgJQWSAkTPCpGmn/gE7Pj+g57fQYfTAjOE8B9DLVquvSgcM3rB9L03fvOtAWbTjtAq0V/78d/UidB40Rmo2ba/1h6kBFjRZ3IuflasuA8bO9TkYDIHKdwA9dJQ7Fh1WJnmi8X5eoaZqugxiABtFAtd68qTFqjkDNh36j1DBDHijAPBs4Ni58nGZKrI085zSmnpzMNh7DnMGFFZ9654pPnUHzFv3GBSw/uEAutflvjI2QDd9Bw8h3P7zt6+ol8E8Z5oAK+HNDz5TwP79n/6mHpS3PiwlKVOWqIKG0MIq/+e7H6uyCE8B7PAxQgfX5oCxc2TT8duCRf7Kn/4m5MP3ACJgDQByb8pduP2EVG/cVnac/1qfMQYAbvgdvkDRAOjXHrqqZywW822gczSATpnkqxZ6tfoCoDsW+l19jhWGJw0+Np4Ox0LfrG1KP/dQ8CKhYM9Yt1catOspqVOWylsffq4CF28Q7cf7wRip07KLKpUoTXh5sOixtLC4UYqxGPuNnKbtxxLDowGP4enByuuXNlPK1Wigljl9wlhq1y++gD76JXK5Iycq1mkm73xaxusFMryD0TRp2Q61tN/6qJSe4Tn6mzRYwe36DsvHc217D1XZ0WfkdPX4rT6QLdUatdG+gU+QAyj8jAnSYITVa91d8D4hjxiDleq2kJTJjhcQYwElNmncPO13vmvWub90T50oM9Y6nrMhU5fqmMQjgxFSsW4zVTgSGtD33Am610b8o9wfxPr3qcEt9ECAPnzmKu1cBjIuF+ZNfv+nv6uWXaV+KwU0mMCx/NLkT397XYWAsQTRMGGMUhVqqIBr0S1JgRvw5hrLECbEGkcgGYsRUAL0YwF0lJGPvqyU78ANz4BBSGE9fPxlJRVO735aRpp3GSivvv6uWqjdUibI3958X+ZvOSL9Rs9y1XuQvoeBAfQ3P/zcmSJgmgB3bffB8trbHwa0zBxAz3O5Y60GcrkjTKn/wHFz1etRv3U3VaI6DBgpFes217yp05dV6mpdGnfo43VN4zKmrxhwX1auLSv3XRSUFNxlznmgghp0B7wZ1DrFofUfLFUbtnG8MgE8DOECOopnyJ3iIli2hocEiwA+wmKftmaPV1jNXL9f2vYeopYMU0IAGYJnxtq9gtcHITJo/Dxp2ztV2/y3N95T6xEeKFezkQoe3I8ANPzWd+R0gedrNG6rUxAoPMw3Mk2EQsp0BwDFtAzXTIngev7j315XpQneYSoK6wVFAOsE4WiEcaBzNICOAMcDhlIMjwPoWOCALco2dYU2tB+lGb5B8azZrKNeQ0+EMVYb0xaV6zWXFl36S51m7aVNj8E6JbHx2G0FBgACNzm0mLQsXa9xwyqgn7onb35YSvsHl72JI5m14aB6SvB2QE8sQRQDrkfP36CKJZ6ReLvczbK14u5yJ9bFGduDVFF3802vYZOlfouO0qBVF/n33/xW6rfsLLWatFP6kg43d3BA36CyD9kC36J4AtjIQpQ7xgQyjXHUoE13NbQatu0pzbsM0Gv6DF7Dyv+kbFUdC8ijER6PD3xXplo9mbIyQ/saw4wpG/odfkFJgZ8SGtBDLluLs8s9+/6z2Cz0K8EBPZjLnblmBiOAiyX7X7/7o1qAaIoAD/PiHLh3/u3//kY7nnvAnw4mqII5ddw4Yxdu1nk85vI4SAcTAkBo+jBmxdpNpFbT9oJ7s03PZMGacDM01z4WepCNZZhH3Hryrmw75Rxcb+X6dI663NEWYeKG7Xt7g8KMpwHGpt5YcnO3HFWvhKkzZzRO5plw1SPQajZpp9ZzjSbtpGaTtmoR7sgK5nLPs9CDbSyDBdZj6CQFE1xseDlSpyxRywarMXXqUnn3s7LSqEMfmbBku2rQuHlRstCqZ64/oHECpSvV0T7CfY27jbpzNnTHSmN+GQDDXUo7ylStKx36DQ+okIQD6Pw5C96gUatis9BRfvA4qAJzJlfK0ydHbsiHX1QU4hngA0ALKxJvC9M8uNw/+6qKtgnBQT+Vq9lYPi1XTZLGzVeFsVbzjrI087y6EKFzt+QxOl/J9MWHpSuoQoBS0DV5vNCHWLhYmwTfJY2do/z91gefScr4ud5YA/oIQVe3VTcdI7gWsaDV5X4mL6DOn4+5jwbQNZ+sh552N9CyUcwITIVuvCdgCtf6yn2Xddzh6cGix5OGMgotGdO42HGnN2jbS1r0GCpdBo1RQb/5+C2NP8Grw3uUX8rgGiGN1wLlBSUGCw/lEN5jrONaxx1LPT4sXV7e//wr+cNfXtN4HKYAyLMwXe7ZIXeKS+w5dPoPRQ0QxAv14RcVlJe0z889UpmlMjHrofIrrne+wYsI0Ia20Ddon+CVWn/4mlSu30KVMIwAphxNsDLKHnE1PVInqOXfoE0P6Zk6Qao1bK3fowTgvcRbS+wU/f1llXqqULbsMVjrC6+gbP73K39SfkEhBNB1Dt263JlCl3+JGdCjcLkTKINA65YyUecPceci/AEQBCKMhtBDUALMuNcBc8OAuEwZ5Gh9CMIO/YZJh77DVFgg8FAKsMhxwW04ekPnI1fuvSCLM7JUQJroeJMfZx9Aj3hjGUfgYb3g6ge0mUPEZYWVwTXWHuUAmIAfAVktug506t5vuPzzvU8ElxXWGsFpw2esUEsMa3L90Vtq0eN9MMLV1J1798YywaLcEZAIS0AEqwtNFwFarXFbHXSUjZbNXKbJm7oA/OaevilduY5G5r/zcWlp33eo0h1rHiscyxMhjHdk3aHrWh4KyuKdZ9S6DBQRHy6gY6GPjNHljkDDesa6RPH6yz/f1v4iruHtj79Q6xhLAMGDFQygA1jQC8UMIUQQIe5e3ImDJyzUvAgOIrgLyxRaoXQu2XFK56KnrdolSzJOy7zNhxWMeU8AYa3mnbx0RalV8HQpmuVrNlZhWq91V5m94YACJa5ngN2MEdMv/udoAJ3pGNygeBVQcFAm/vnuJypYEa7QhWkYAB2eQyEnaBBhinVNHVCC/v7me0IAHCDLeJ6yYqfUa9VNAzAZlyiIrC5YnHFGxwk8R+AhoM5cKPmgEDLGuV5/9IZalobvkQtfVqkj87celWZdBmp/AAAEaMbd5e4KikOhNLEa7nNxiHJnSoipNcMn9DUKJsANkKN0Ql8O+t48/7hsFTWa8IAwrlEo3QdeUd5h6HxRpY72f5X6LXSKiHcEDRN7QeAckejEBqHY48FEAUN+oLiavsXowUgz9Sxfs6GsPZi3soIxgcxn+gUZ2rh9H/XkJLyFHtLlHncLPbY59FBbvwZzuROIRScybztv61EVXAh9tC2EFZ0FYDM/SecC5syxEYgFQPAM9xHMQjrm0DiYs4NBcB0zwMlv+e4LauHM33pc546xwNDsDNOYc0GAjusPwY4ryf/gOYMGywRgIOAMBibYZ+PRG2rlwayU1bhjP5m75YgKZoSZqTsWH0vY8CLgNmzSsZ9axAg/LA+iRYkyBnhNnTlDx8aTCna5A+DMRTHlgLs3acICBWsUoJTJSxTch85YoYBOWwlWQvnA1UYUPtHGWPK43QEgBDrWKgf5YQGgpEEH5ktxs9FvpEWBox1Y72bwmjaEA+h5c+ixbSwD76B0cAaoS3ksTIAIQUVMAXxFlO6K3eflkzKVtO3TVmdqsBy8BqjRZ1jxKFic67TsKq+9/YEX7Jg/r9u6h4I+c8KUOX7xNlU4aTfCDl7Fu4TyhuL0fqly6nJnBQLub2jIGW8ASi19p4Ber3AA3fQHShdxBBuOXPcoGc76XAAWIIVWKHD0P/0OmP/Hb3+vdMIaI26gYp2mSl8Unb5pM9X7hiKCJY8XyJQFbxF3gBDH+nYDurr41+3TMYU1Dg+iQOCqB/DhLcYUblp4EO8A9WLsmPz9z/BepFHuxTkoDmBGMSUgEwvZTQ/kJIGGPH/9/c+E1T9jF22WV994V6+h6T/e+cgB9Hkb5Ld/+LNaxXhSzPFfv/+jjF2wQUG2Qp2myssohcg3puKQH4x7ouOHTFkiXZPSpGvSKJ2qQaHlvnNSmqD0Ujf4jvgp+pk5cww5PIBco2Dizid+B5lF3zNuzPQVK5Dc7Uuk6xkhXO4Z8V62lp1btC535ghx0boJznwJLhe0epgBRnMGZp5rnPWoCE+WUmw/+1AtiZV7L+o8KIKVA0AhEA3Q23o6R6YsT1fwZW6wfuvuCoqUi5bvLp/r/ICepynyHsZh/g7ratYGjoMye9NhdS8BgAgrrF8iQrEEjaYJOKAAILzJhzkj1vfyjHlHU3ciShFiHIAAVlGdFo7ygHa8gYCqs7n5ANEB9DyXO9bDZL/lgqRBK0+evFjntlGk6AdAmwh7Aq+oM6sKUHi6JKXp/LhZoscSNyx1lC0sOJQvgAYlQRWFIRN1CdGq/dm61p22Mt9L/bEEUFyog7G63LQPF9CdZWuxudzd5XLNsic3L1BHDpOO5XmAb8vuTowDPEmEO8oV4GE8S1ipTKcAYGMXbFL+BZih19RVuxQYqzdqqwooFhGuTARU6tRl0m/UDLX4sfr7pc2Q/mkzdf4Qb8+o2asVNAF0FCOsrEBzmaa+5hyNhW6+xXVOQBsASbt3XnAC9VhOyVJM6AMvMO/KtAvjAQUH4UoejAMim01+szcclC+r1lVaM2bc8/8ofzPX7XWW51WspW72hu16q6sWIKB8tfQ69pUW3QepgoRCwf4HjCEUfiw2lvvBq4wplB5Ttv+ZukcE6K4o92JpodNXExeq7PKnBTKAIFfOrCpiOojYCGKVOPdIHa9R7ijxKLrwun8erC7gHdNVeBIZ6ygI8ACKKuOePmGZZpteqXq07ZWqvIBMMc+6DR4rHQek6bhBtuBip78Znxoj1X2QGnlM9cCfGCVLd51VGdt18DiVX9TDv36Jch8K0OO+sQyMGssR6t/WAlnoiUJk/3rkB/T8Ue7+3yTCPUIqHAs9EeoaqA7hAHq8lq0FKv9lfBYLoL+M9DBtihTQR7tc7gTHuV3t5ro4uNxN++258HaDC0XbIt361biUogX1kC734rqXe5CguFCd9qLe+QN6sDn0F1W/gsoNB9CNyz3WjWUKqsvL8t4CemDB7QD6gYDAbADafWZjGSMfi3uU+8vC28WxHaEs9Pi73GOMcg/1b2uBotwTtUPyb/0a3HWXSG1wAD3P5W4BPbAwT6Q+K+y6WEAPzAORWujuvdyLpcs9Dn8sUti8WhLyDwnoZ3Nj8pC7DfG47BRnXe6BhUdRMaq/hY6FEWgdelHVJ9JywrHQw1221nv5BZmz9070x767MvclOHotuxDQCq06Yr/M2XfnpWgj/TQnwr6i7TVGhW+h+7jcQy5bKx7Tc5GOTZs+PrK9SF3use4UF8rlXrws9Lt+/4denCx0vyh3v6C4RB6YYQH6xYfiBMWFjnKvMGin+BxJO6VCiKMi6V3vKw7KkGJ7DM6Qiq7D7To213hv3GkKv607i5iefuW56GHaDX8YehR0ti73+ABaIsufoqhbKAs94YLiQrncB6zNlqmZt/OOXa5r9/NCup4SQXlDN13zAfSRW2/k1TvM+kVSng9dPPlP2XVLIjtuy+SMW1Jv/GEfITVwbXaE+YRb7u2455uy4aqCcCjhaubQR64MDeih8rDv0n14xNKjYHq4Xe4olIFoRlDcmO03I5YVgca//7NY5Yl/fqHuKctdnvs61HcxvYtAPsdUjpHfL6i8lA3Xgsq4jHi73N0++GiuQ7ncsQi8x8AdUiFRD1c9zaB9EfUuPyBdzGFoZe45u59xbeoa6qzfJPmm9eYzME+oaXv98nQ/C1Re0LzDLc8vXbB2EOWOQB1ZwE5xwb63z/P62dIifFoA6EYmXg7icvfKCZcMid+z9Dz5WSj5u+RzOPkjv/3TGZke6HlBz9z5ua/Nd8GeBXtuvjNn/3Tue/d1sPQ8J10kaU1efudg425nvNehE71pmDaacyiXe75GAFguENHrQM/805SUexegu4Hcew0d3GlKCF2MhV7Q1q/5eKuE0Me2O4BciUPfh+Nyt7QvHNqXFLrG3+UeI6CHcrmXlE6x7SzcQQ2gY6EX9Ocsth8Ktx9KGn3V5e7ZpyOYy72k0cS2N75jLO7/tsafDkRjmZtvDof4cxbb+fHt/JJKT2OhF7SXe0mlj2134Ywzd5R7MJe7pX3h0L6k0DXuLveruTH+ferl4P+2VlI6xbazcAd1uMvWbD8Ubj+UNPq6g+KCbSxT0mhi2xvfMVYILvfYLPSj2RbQLZPHl8n96Xng0iNn2ZoNissfgxKHuWJ/ett7h5/dQXHW5V64Y7yk8px1uVsBVuKEutnLfeQqu2ytpAq+F9FuguLM1KJ1uVtALwwejLvL3TBstGc7h24ZvTAY3Z0nLne7bM3ymZsniuLautwtzxU2nyWcy/1I9jclzmIs7E62+fsKEhMUN8pa6HasFaGHbrRrHToGjx2XvuPS0iN2esTd5R5zUJyNcrcDvZCFrFm2VtC/rVkBE7uAsTTMo6GuQ/csW7NBcXl0sTwSP1pYl3shg0dxYlZ2bSrK+hZ1eaZtBy4+0rnMUauzirS9pnx7jp8AK0609He5vyj+L040s3WNbKzE3+Ue47I163KPrAMtw0dOL+Nyt1u/Rk47y2/R08y9Dt263KOno+XB4LQrBJd7bMvWbFBc8M6yjBwf2hiXu90pLj70tHwZHh2tyz08Oll+ip5OGfHey53o4Wgj3PnuiJ1Dt27gQp4GsRvLRC8wrLCNnnZulzs7alpaRk9LS7vAtIu/yz3mrV9tlLtl1sDMGi+6mH9bs3/OUrh0jld/vSz5uKPcr9god6vQFILhEv+guFgB3W79ahm9EBjdDQreOXT7f+iW1wqZ19x8Z/9tzSqQbn4ojOuMM7kxecjd3nURkX/JjsO/rdnoT8v4hcHsJk8D6BPWn7eAVoSAZuhfUs/j152XKy6Dx8o5K+fiPRYyzsYb0HNj+z/0c7efyPAVZ6X3nON69JnrnLl3X+v9nGPhpQuShzs/97V/WeZdrznH8tchnLw9bSmoTaYck653jO3j+16zncN9zTP3vfday8v7Jmg6/+89ZQQqy5u33zfh5h1uOnc5Qb+Zc0xSlpySMzcfqxZ76sZjWX/4lqw95DkO3pI1noNn68xzz9m848y7YO/Xut6vO3xb9Dh0W9Z6Du7Xm+ees3nHmXfB3q/zvPfmy/dh5m2+9ck7zG/DrVdxzdv0kTmb/gjVVwXRU2lx6JbTl4duyanr33gBnXXoY9aclz4eucbYL/TDI78KvRxPWxiTRVWWllPU5RVFn0VQRvLiU3LyxrdxttBjBHQY/UrOU7nxAMXgmVz1HNc433+q93rtuc+7zkt79b5z7XzDd8/EnY5r7zv3dYB0Wr4nP/d1Xn5P45K3Ux/f9mXf983b0CLc9mXnPBXygG4+1557yuS9zzv3N55v9XtPOu2DQN/keMpxpfPPm3p76xMsHXVy14HrAHnna5P7G0/e/u2Dn9SD5OdFupzzVOA76nY555leO/cOL7rf8b3e5z5XPnXyfCqXPTyS9/1TZ2B5yqLv1Drz3j936pL7XHmadz4BpeT3wPPOlcZxiTnvjDcs9ryfe4GGPCk3X94Eu2obg7wzwbDuenva5LVKI8ibvoOmbhcgdPfSxJu3J43rHd94aeKpl9LWS3vfvP3fmb7wrzd55s87BL08ZWu9PXLM0FVp6ZFnXF9/4PDVdZe8M/LP4WOXDPOkoT68M2dzzb05zDPyNfUwzzhThnN+7shJD8/5fu/7zvCBI4ecd9Sfb3zfObL3uoefvOld9eM7vvGvE3kZmgR6p3X2/w4eCIMm7rY59fWll5cm7vw819538Bjy2dDL897J29DE4UNfmrje8Y1+56Qz9fLSy9W3hhcMvUw7DW3Mt8RmuMdMLNcel3v0GeoAMoQzgw+CwRBxrKjNq2TS0yugLS/Z8fSCeADBqwoq5fspLMilULLO/5373n1t8jHCPeA7j+s/4DtPPQK9M3n7KJ+qQDkyxf8bt6x90e/cdfavi/vefW3aG5SWHj4i73zfmXchMMz/m3DpRTr+4AeFgmtV1lzGhjufaK8dQI9xoMDwVC7aStjvSiZY2363/W55wPJASeYBVRbjiJ0xB8UpkMexQiW5c23brXCzPGB5wPJAyeKBeBrDMQG6zltZMLeeiRg9PFaAlSwBZvvb9rflAcMDnhihOMnQmFzuOh/gCarYfeGRNBi1R6qn7irCIyOMssJJE26dw8krnDTBy6uWkiHmqJ6ad533bJf3Pc8Cp8n/nfk+1DlwXi+6PN/yg7U5VLvMu3Dbl5+Ho+3TQN/5P/O/hzcCPQvOM3n1DfSd/zP/+5etvEB0CtTmQOn8nwX6LtCzcL7zTxPoPlDegZ75fxtOGv9vgt2Hk1c4aYLlH83zoi4vmjpG902N1F3SefZJ3+DaGMA9JgudKD4TDbh83027PtiuD7Y8YHnA8oDlAcsDEfBA5cE74wzo0WoEuNs9Lvele2/YToygE+O9OYHNz254YXnA8oDlgeLHAwB6vObR1UKPZmkQ31zJeeYNwV9mAd0qNFahsTxgecDygOWBiHgAQI9XTIECunutX7gZqxLgCohbusda6FY7Ln7ase0z22eWBywPvEgecCx0EyQX29kzhx55JrgIdA2dx12/3FroEWllL5KBbNlWgFkesDxgeSAxeKAQAD2yTWG81rlrlxvrck8M5rCD1PaD5QHLA5YHig8PxN3lnv3g+4h8+AC62ZcXFz0uewvoxYeB7GC3fWV5wPKA5YHE4AHHQo/MqA42NR71sjX/qLwldg7dutxtMIzlAcsDlgcsD0TEA3F3uUcaFKdg7gqIw2K3FnpiaHtW67b9YHnA8oDlgeLDAwB6pBhcgIUeflCcuts9f63nttKX2Y1lItLK7IArPgPO9pXtK8sDlgcKiwfibqGbzWGCob77OYDuRLfn+fythW6ZvbCY3eZrecvygOWBl5kH4g7ojAsrJgAAIABJREFUEZn7RLbnPPVxEfC/s9blnoCDbkC6VEzZJZWG7C62R+Uhe4q07pRXeegeqZi8KyKPC+nbzjolHeeetkcENGgx/aRUSNoRNq2rDtv7gulb1H0cn/IaTDgSNo1fZvBMxLbF3eUeKaC7LXZzvWyv3cs94ZhlQLp0nndaVh29J6uORXes9vvO/z7afIN955+//32w76J97p8/9xyNJh2NSABWSs2UJYfuyvasB7I962GIw/+9/32ob6N555+//300eYb6xj9//3vfb6ftuiUVBu0Mm9a1xxySbWdzXXT2z9//3re80H1TcNptZ/3z978vOI+I6uBfnv99SF7Lq8uAlRfCpnHCybGXPMgu7hZ6NnPiYe7nznav/gqAdbknoHXuGQTdF55VcEk/90jsER4NELhNJkcO6EsP37M0jpDPpmXejhjQ6R/Ly+HxsqGTBfTEldEOoOdNYYeLxYHSRbRTnO4O54pud2doXe6JyTAW0CMTfEYARgzoKZliAT1yWiugR+Byx0JPP2cB3fBpuGcL6Ikpn/GGAOhuLI3lOrJ16K6d4fwLtYCemAxjAT1ykEFIRgzoqRbQwwUXd7poLHQL6JHztAX0xJTPBtDxcvtjajT3Cuj+LvRAGVHgtQdOhDtBcO401uWeuMxiAT1y4WcBPTqauYE63GsL6EVDawvoiSuj4z+HHsSN7gbty6Qxhx+gk84GxSUmw1hAj05gWgs9OrqFC+QmnQX0oqGzBfTElM/GQndjbSzXYVvogPnlnOAT99G43DtNOyxdph/2Rl82HJkpgxedlEqDw496NRGZFZN2SPeZR6XpmH3e/PrOOy6NR+/13tcdnimUab6J17laSobWu+OUQ3HPO9Y6WkCPTmBaQI+Obgaowz1bQC8aOltAT2xAj6vLvaDM1MXu+btU3O7+GkQ0LveOUw/Jd89/kGv3n8rus/dl1b7rsuv0Pfnhp19lb9Z92XnyrvSafVROZD+Sk9mP9N35m9/IrQdPfY4RK87I0GWnJeP0Xbl857Gs2HNNsm58Iz3nHJPvnv0o/eYd94LsoIUn5VrOE6k/Yrc8+u4Huf/Nc8nxHNyv2n9d5my7KM9//Flu5j6VR999L3cePZM9Wfe8Zd7IfSJdZ+St6ayRukvri2a0L+u+AO6xgnA8vwfQwxWuNl2ecLWAnkeLwuQLB9DDX4dee/RBGxQX4UoC+s8CemIDenY859AL2ikOwL6Gm12D4vIDurrcI9j6tUryTjl2+aFsOHRLruV8J1uO3paMU/cUXNOP35J7j56rxdtqwn7Zm3VPHj5+JjO2XFCAHbf2nDz89geZvvmiXL//nUzeeF7GrTkrV+5+Kw8efy/nbnwjV+8+lvk7Lsuvv4rcefhUsu99JxM3nJfdZ3Pk22c/ytRNF+SHn36R5MWnpNPUQ3ocOH9fNh25Jc3H7pWffv5VlYjbD59K5pkc2X7ijqzZf02WZl6Vr7/7QRqNytTNMBqn7dZ2fP3kBxm/9rw8+PYHOXr5oTT2vI8nMEebl7XQowOmlx3QE2XpVyJa6PGijZNPYkTkW0AvSYAeYE7cbYWzXM29b7v7HdfRWOgZp+7ImWtfy52Hz+RqzhP5+Zdf5dKdb+X0ta/lwbffy/ErD6XK4J0yddNFuXL3O2mctket6ifPf9K0z374WYF38oYLMmHdebnz6DlGstx99Ex2nLwrWNJnrj2UWVsvytPvf5Jhy05r/s9/+FlW7Lkuv/wq8vjpj/Lds5/UIifNuoM3pHGaA+jbjt2W8zcfq6KRsuSkpkUJmLv9klRNzpApGy8ouPNsXvolwfqfv+OK/PjTL/LoyY8ya9tlqZYS+dRBtMAd7LvCBvQZ6/bJ1jP31QuAAHPuc6PyCoycs1a2n30Q9NtV+y/LmIWbQq6r33TirkxYtkNmrt8vaw9fD5pXQVbniwL0aWt2S89hk33qDV1Hz98oKVOW5DtGz98gbHay7vB1Gbtwk4xd4HvMWn/AJy/aPW/rUemXNtPn+YLtp6TL4LHSZ+R06Z46UUbMWu1T1vqjN3zSDxw7V1r1SPZ5VhBNA70vKkCHr0bOXqttWph+UtLmrvdr301ty/qjN6V+mx7CeePx297D1H3xztP5aAzNl+7K7wlLnbpUpq7K9KHRuMXbpWvyOOk7aoZ0GTzOp19HzVnnHUumvIbtesqw6St88jDvIjlbQE9sQC/IS+6PucHudQ69IAtd34cInIsG0BfszJYdJ2/JnO0XZPa2CzIv/YLM2X5JZm+7KKv3ZUvGydvSdfoROXvjG8ECxpUO0I9ZfVbPWOg37j9Ra3vnyTvqEn/43Q+S+/i53H7wVAH7+JVHMmDBCbmV+0RqDsmQ5MUnVYHoOOWg/PjzrzJ06WmZs/2yKgE9Zh2VdpMOStqqswrKp6/mqgJB2RdvP5bbD5/JsSuPNG3naYcl/cRdOXj+nuaHEmEOFJQD53NVqag8OHxXYjBAjvV5tIA+c91++dsb78kXlWvLF5VqS+lKzvmLynXk/VLlZdPJuypkeg6bIo079tXrmesPyOcVasiW0zleAVSuZmP9vkzVesJRtmp9efPD0jJrwwHZcOyWzN1yxDk2H5FPvqoqszcd8j5bsfei5tN9yERJnbpMpq3eLVUatPLmbQTa6gPZsnzPBT3mbDosX1VvKEOnr5BqjduqYDbpIjkXJaCPX5IuVRu2ljotu0i1Rm3kn+9+rNfcd0+dIJtP3ZOPvqwoSePmKOC++cHnMmDMbOk/epZ8Vq6abDpxRyYt3yEff1lJeg+dKD2GTJJeQydJ50Fj5PPyNVQB6jVsijTt1F+adOonleu1kLc//kKvm3buL826DBBo/dEXFaXTgJFSvkZDQVHoMXSSTFy6XfveC1hZD2XwxIVSuW5zzY/+j8WiLSpA33zynpSv1UR6j5gmnZLS5MMvoOdcQTHheknGWdlyKkcq1Wsuf/jrP6R5tyRp2X2wVG/cVv782htePkKJqdOyq/QcMlF6D5ukR40m7aVT0mjtB76BphwflC6vvGjuAfJ5W47Kx19UkE79Ryq9p6zMkORJi2TCku3yefnq3nHFGKKv2vYeIoyhySt25uP7SPjZAnpiA3owgI70eViAHmh3OP+CIv23teqpGYJLm/luLGpzHLn0UL599pMGt3WYckit+O+e/SDLd19TgMUdzu8nTGwRtZSnbjwvK/dek3tfP5eRy0/I5A3nZd2hm3q/+chtOXTxgQDi2Xe/E746d+OBnh99+1zn2fEO4MbPvvtYJqw7p4C87sBNdd/jNdh2/I7sPHlbDl3IlbnpV4S61xiyS+fux6zOEv9j+PIzUjVB5tKjBfQpqzKlUp1mgmU2bdUuFfg7zj2ScYu3SMW6zVR49Rg6WUH6nU/KyMdlKqsgfPfTMlK2ekOZu/mICiAUgXVHrum8545zD4WjbuvuMn3NHhVuTTr2kcYdekvjDn3k93/+uzRq30vveT5k6hJVDn7zu/+VT8tVVxD6P//+GylbrYGWgfBEqKFkVKrXQqo3bidV6reUV/7ymlRr1FZqNG0vqVOWRiUIixLQ+4+ZLb2GT1WaLt2VJShTgPSiHaf1DNCgDAGqC7adkC+q1NF3i3eclvI1G2saAL1x5yQfcEVhQsGCRkt3npb5mw/rMWTKYqnXqpvM23zYObYcUcvwk7JVpH67PlK6Uh0FkFY9U6RyvZbStJOjsKHENWjbU2o2aS9bTtyWrafvS9s+QxX0Vh+4EhWdiwrQ8dyUrd5AlRQUHYB7yooMpStKD+8btuslgyYsUA9FgzbdBSXo06+qyqz1+7xta9ljsIxduNlLZ5SZ1GkrpHPSaPUuwfdzofOWI9Ksy0BVwOZv4f6w4BlA8Xz307JSr10fBfTlu89LzaYdtB5Dpy3TcpbsOitlq9WXroPHCGNuzaGrUrl+S+nQf6QqHZEAuUlrAT2xAT2uFrr/unIfsFZ3+1N1q/s8d7npccdHGuVO8BgBbgSlEahmDp4BzE080em4tnG5V0/dJUkLTsqQpacV2Bfvuiopi09Jy/H7VRn48edfFLBzH3+v1jL5E9jGb/TqLLW+T2U/0HepS8/IN09+lInrz+s8/oPHz3Uevs3EAxrUhvXN3P7Ve9/J/W++l5xvmMO/JMt2X5MJa7M06K3OsExvUB11Z9qAMxY6Vj2Bd7Fa1/H4HkA3gzqSM4Bbq3kntRgr1W0uzbsmyZgFG6VB2x5SoXYTFYDbzuRKxrkHsiPrgQqcxTtOys6sXN1r25RVunIdWX0oz/WNe5g8cC2ThjxwbQJgCFxAiGssKidtT0keP1fLmL56l1Rt0Ep2nnsg6bqftzM/+WWVuoKlM2/rMVm596KCOnuqT1yWrnmYukRybhLFXu7R7hQ3YMwctcawyBdsPyFV67dU2pSuUENW7rukwPn6e58KANui2yD525vvC8CCtYh16VjoO7UP8GLMXLtHFaYJS9Pl03LVNC9oPGzGShkybblak+VrNtFr7heln1Kgee+zstK+3wiBnljtlFWhdlMpXamW4GouV7ORekjKVq2rVvxX1erLV9XqSd2WXVSp2nDUcVtHQmcH0MP3ZNUeE11QHF4OLOBW3QdJxwFpqoD2Gz1Lpx76pc0SFJLZGw/qVAMu9w9LV1Awr1i7ibTvP0I9FuTRskey4DFifJij48A0tfpp97Ld55SueIhqNesoLbsN9t6vO3Jdxi/eKihOrXulypsffi79x8xRRRTFjP5Hifvoy0rqTShXo4E4NK4vZSrXlvptukvdVl2jGs8W0C2gazS7zp2HcLcD8tG43LFyAW/A+uil+97jyMUHek2EO8Fzs7ddVut5w+Gbcv7WY7me80QA73uPnsq1e9/KuLVZQqT70+9/lpV7r8utB09k5pZLOv/OfDw/lpPxj07Ji07KjdynMnf7ZS333tfPNIoeAMedj/t95Mqzcu7mY8m+962sO3BDI9jxCuBJICp+5b7rwhK52sMyVRnBbY81Tl05E1WvgD4ycQA9GpcowNCm9xAVIs27DhTmr//31X+qQELIL99zSS0QrBCOP/39TanetJP32aCJC1XwvPtZWfmsfHXHqsayrtZALflpa/boe+aFm3YeoIBWoXYzBRLuEaKAe7eUCTJ/23EFuiHTl+v3ABDAh+WCEP2oTCWp3byTCmBc8xXrNJPFO89oudG0nTyL1EIfPVtdwaUq1JS1h67p1APTCFiO1AX3a5kqdWTdkRsK8Cg+aw5e1fZXrNPUa6G//VFpad9vuLTrO1w69hsmrXsMVvDAygP0xy3aotZlu77DdP54wpJter80M0sBnTn0zgNH6Rwy3g76CnfxyNlrZMWei1qP0fM2SPLEha5jgYyYvcZnmoU6h3sUlYWOgohrPG3eBlVoSlWspQoKoPxllToaV4ACg+s8bd56BU5Afs7Gg0orpj7wSKBIoXB16DtMoCPn8rUaS8cBo7TNWODQmaNR+95KX+g8ZsEmVVyZauK77snjlE+xvGs266jTVsy3o3gxf8/8e/KkhTJ44gJJnrhAUiYtVK8Jimq4tHWns4Ce2IAezFiO9Dl49y9XH3yfbylaXkb8GcszCWnFs7FMBFHuWJ7GQj988YGs2HtdA9UIVuMg4A039uSNFxSQsbpZujZn2wWZtfWCPHn+o2w/fktmbbsk49eelUELT8jN3Cc6b06QGnmeyH6o+TDPTvBbr9nHtJy7j57LxdvfKPgD7rjk52y7JLcfPFFA7zrtsKw9cF32ZOVIztfP5Pr9J5Jx6q4COp4DIt3bTjwgxkI/dfWReghYZsdx4srDlwLQES4A+lc1GgpAw9zfH//2hgqa8rWbKNgivJbtPq8W3n/+9hUVStzjRiRIC4FSqlItWX/kurooAVeOuq2x0B1AHzxhvgbSMfddpmp9WX/khmw9k6uuT85bzzxQAdim91B1TTKvT704cDNTRvnaTWXj8TvqtiaYC0DHqzBq7rqohB95FiWgd+g/QgGA6YL5W49JqYo1NWiKOVfqAk3+8c5HSl+stN/98a/SpENvdRG/9VFpL6A36TzQZ0nX+mO31Splq9Sxi7ao0sA0xeyNhxTM8I7gxQDIKQcQqlq/hbTplSKvvfWBDJm6TIMLcVGnZz1UQGNeuG/aTKHfBo2fr/PQWJwoX+QR6VFUgM50AQpSk4591T3OtFGb3sNkzPyNSguAEuu5eqM2Ok3xtzfelRqN2kjVBq3l72994J1Dx0Ifs3CrD52HTl8uXQaN1rbjeif+AJoOGDtH+RSaoCgwD45SAEB/Vq66DBg9U17589+V/wnSS560WPNYtOOUfFCqvCSNnyeDJ8yT5Anzpe+omTofHyl9TXoL6IkN6HF1uWfnBt4wxljnVwOsPc8D/OgsdAA968bXcuHWY136xTI2cxDYNnz5aWkxbr90n3lEaqbuEualmcvedsw5th+/Ixy4wZfsvqbXPWYeFda3pyw5JVnXv5YB849Lg5F7ZOPhW4I7HXDnel76Fc2bNCyXW7Xvhi57YwkcG9sQ4IZLv+HIPbLh0E1NT31ZMnf2+jdCUFytobvk0m0nCp419OZIP3FHrud8J/USyOUejZWKhf7eZ1+pezF16nJ1qQLyBG8RpMOcI8ICy6dm0/aarky1+urWdZfHHDqWtAFzzvVad1NAX33wqnxZpZ5G/eLOx5IBhNPmrlN3MsFXRiBxRgnwD4ojwh4XMRYrc6BTVu6SBu16OXU8eVeYn3bXx51fqOuiBPRyNRoJ86bM6eJyxUKjncy5UsdZGw6q+5brLafuqbJC1DZTElXqt/ICOvPbAKs5CHTDO8J3uHPpP5Qd7pnnRSFKmbxIp1AAc+Zyk8bNUzCij3EZv/H+ZzJ/61H9BjCC1lj75MEBbeGJRAd0aFG7RWeZujpTAZ05dOIR/r//+G9hdYVpD3yNEjt11S7Zcf5rHxqTBgt9+MxVXhrT7qQJC6XTwDSlBfyO655pJRSmBduOS+8RUzU/aM8qAoJIk8bPVwWUAE7iT5i6MFMWi3aelmoN23jrRLnQHCXV1DPSswV0C+ght3qNFdBxgdcdvktd4+UHpIv7YEe3iJZ88b3ff+ZWGlTwvBzls48u3wLQ1VN2Ct+xWYzWh+dDMjQIzj9/6l+P+if7Lk0jsr3+iEypGEb5/nkWxn20QXGAJwAJaHAQBbz5VI6sOXRdAO6NJ+6o9fZRmco674qAWbX/igI/AWlY3DzDogMYAFkABwvztbc/1Dl0rH5c7liigybMV3fz0sxz8ulX1VRg4qbsP3q2vicN37/2zkfee5ZX4dpnvhfLqW6rbtI1ebyUqdZAA+jGL9mmQBap8CN9UQE6dCWor1XPZD0DCBx/+cfbaqnXadFFGrTrKYMnLlJ6GkCfs+mQtO0zTAhC3HzyrkxavlMtyXptukv91t1VaYLuBHXRHlYTAArMzzJ/y3w8fUPsAW5elrcBGLxjOqN6k3bqRgeAsGyHTl+h1iWeAjw21Nk5amu5iQ7oI2aulja9hkj9tj2kW+oEndZAOWE+HECFDwHqT8pWVbBdf/S20qhRhz6qBBmlEEDHXV9PaQyduyuNOw4cpYBOvzAO3vjgM/0eOjPtxBQKdB4ybZmuMuiWMl6VOL5HGSUegngHaE+8wu/++KqLxnW0TPgiGl7mGwvo+TGiMORtNHmCQeH8n4obc4Ndq8s90Etn7/ancrWALV/Nt+EGxQGEPo32A3MDpD5p/MA6knf5yoshr3DKrZBUtIxTUHlOUFzkm1vg9hsxa42PAGEJE6CKqxV3O1YELmJ/IZMyebEMnbZcn+N6JC0ueA6sT4KRiLo23xH4haBs0KaHzjtiZfMOi3DSsh0yZv4GGbtgo4zjWOgcY/XZJnUjG/c+6RHMWO2stWZ5FuvRTTnhnJlvRng3npS3G2A4/V4pJVOWHHK8FuGUY9JgadN+7jPO5x3mnjNTGLSNa5Sr+duc4D9cu8x/8xy3PHEDXJsDC9EoVu5npOMwFiHvUArMfgLcY8mab8yZslGytp/NlZ3nnXI4j1+8TbZ6lipCP5M+nPO0Xbc0viUcGpOGneLc88jhlofCgUJDu2kr3hAAljpuO5urNMZDZJ7xfOH2k0o/3pu2sAph7WFWbeS1c83BbFmWec7nGeUZOpu+4xu34kP/zFi71+c70jBGmAqBH0w58Mn4RZu99+Z5uOcBKy74yt0gcrAgeRJuP4Wbrujlsx/+BKFDuPUvKF047cMIDLWtusHYcM4K6AE3jbnv+We1MLakiyYoriBC2PfxUQyitdDDFRQva7qistBfVvqF266imkMPtz4vazprocdHnhYGLsX939auhJpDdy1PC6YhEDAXroVeGASxeQZnVgvoeVZOJMLaAnp0dIuExqS1gF40dLaAHlxGvmj8iL/LPcCytCs5TyPy60ca5f6iiVhSyreAHp3AtIAeHd0soBcN3SKlswX0xAb0OEe5+/7hCvPnLFW7FsRy97fUcdkv3XsjrDmakgKkRdXOguZoeiyKbmOZYAIj3DnLYN8Xj+cPJeKNZVIyJdqNZYoHTQoHqKZl3pIKEQSQsrGMCVB7EXQrrvxvAT2xAV1j1sLwhvtjr/+9sw49N8A6dKz2MObPTYbW5Z6YDGMt9OiAyFro0dEtUpC1LveiobMF9MSUzxh+cXe5+4fMX855GrZ1ngfoN62FXsgRk9FY/RbQoxOYFtCjo5sF9KKhW6R0toCe2IAeX5e7/xy6utyfF7g7nAFzG+WeuMxiAT06AWsBPTq6RQo01kIvGjpbQE9cGR33KPd8f596/2mIrWB959sNqFuXe2IyTMd5p2X5kRxZfjS6Y8XR+z7f+t+Tb6Bnxbk82tNw4tGIPE4VU3ZJ3xUXJWXtFe+RvPay99o8D/TMvDPncNKYtO5zoO/8n/nf832gZ+58g12H812gNO5n3Zacj2gOvfrI/VHXN1g7gj1PdvWlSZO8Jn+fmnexngOWF4CHoimn5YyTEfFzNN5A+010GACgGxyN9exsLOOaK3c2lHkmBW336l+wBfToOrOwB0GF5AyplLpbj4opmaJHcqZUStmtR0W9zhTn7H62O+AzNlAxac2ZvILlw/Nw0uXl4VsH9/Nw8ompPKVTpkOrwRmxC8BAmyaV9GeFMS1ldoo0tKWMcJ+Z+kTzbTTfFFV5phx7jn0cFzIN426hX3UFxel8ur8LvoDoO+tyT0wwD6gsGCFkzz7bDXsBoJAHb8A+sWUmvNC1/VaMZFwxG0+FBugAM8vV2O410kn6ZXttUFyxGfSRgDmDw53e/979Lh7X/vn738ejDHceJn/O9rA0sDxgeaCIeSDuLncT5e4F9AIscn93u90pzoKBBUPLA5YHLA9YHoicB+JuoZugOONuD7i3ewiQty73yDvRMr6lmeUBywOWBywPqIXuimPzN5gjuc8XFBfu7nD+hditXy1jWuFkecDygOUBywOR8UDcAf3qA2enOCxz5tBxofsDdqh7a6FH1oGW4S29LA9YHrA8YHkAHigEl/tzXaamYB5hhDtAbwHdMqYVTpYHLA9YHrA8EDkPqIUeoREdzMD2uNydqPZrD56LmU8P9kGw59blHnlHWua3NLM8YHnA8kDJ5oFCsNA9G8lEYZ0bgN978ZG0mXhQWozfLy0DHDw3RyzvY/k2ZN3Gxb/epr0hy/XQxbSrxbh9knfsl+Y+9/uUtrznufNuvyu98y15mff+35u8zXtzz5nv3HmTxjzLS5c/b/80gfI235t3gfPepzxi0rjr5K6X0tWPLu73fG/K8z3n1d08N3XPKzM2PiA//8PNB/68EOqdycekMffus3nnn69J02Kc77hzpyvw2xjGbLzyNu1wn19o3n70DFivOMoS018xt9lTb3d9zXXMefvJMJMv5wLzDkFP7/dxpKepW4H1ctXdfOM+m3HlfmauI8275+xjEf1VucHcQGfHQs9l/flzifYv3HC5Y9njslcL//5TZy07/6mOksC69pynks2Wsvefeq8dF79z76TLu77qTedZF5/jeadl5OVB3vyZDPnq+nlzTSyA513+vJ36aMyAp27O/7/nr2vAvHWdfv42UY6ptztv8jC0cehAOU+13ldc9dZ3nnZevvfEQ6snwrWhH+fLOU8km/M9553S1XNv8r9k3ml+nu/98tY6+OdNuZ68yEPr7ZP3Uyko7yvUj/b55W3aR/15B61MWXnvnO94Tj7mOWcnP3fe7msnL74xeZO/tw5878nD5O2kc/rRnbeWSb/AQx6a5echw4N+/Kn8nvcuNH86dQo773y873wPrcnDW++Y+dMZT8F4P/B4dsY/37h5OjDvO2PWnY66O3TIawftctrkie1x9QXPNW+ftjt9oXXw5ufkEWnepj55dPXk7eFpJ7+C8s7PQ7TZydvdZ8HrDQ0C0zt/3oZe8L2RQ3xr2mDaZNLxzp23Scf7QpXNIfnTM+Zc9c7PQ6H5E9lLWx3aGXq7+TOPJvnzDi6bnT7Pn7fS2MgKFz+avPPoavqZPDx/T671fBZRzFogIDfPFNCvPfheAZ0IdwXnKP35kW4Xayphz5EFIVp6WXpZHrA8YHmg+PEAGKlT2x6MVcz0KDjx6E8FdC0k95lcyomfphCPytk8ih/D2j6zfWZ5wPKA5YFwecDxksRqTBt6K6Cri+L+Mx/NwSSw53A7xqazvGJ5wPKA5QHLA5HxANPdzhRHZN8ForNjobN/e4zu9kCZ22exd5CloaWh5QHLA5YHXl4ewKA28Qyx9nNcAP383afSf9FpaT3xgLSeeDBORzh5xSsNdY5XXuHkE7y8VhMOiDmok7k2Z+hrrjm3dqU3z/3TaLoAeZn05lyY5QXOO4z2Bah3OO0LXJ4v7Ry6+D7ju/B42D+d/3244yDc7/zT+d8HK88/nf99YX8XLH//5/718r/3T2/uw0kXKI3/M/97k7/fmTFXoIyLVxrKjlde4eRTEsqVTPVEAAAgAElEQVTz68+AfRkOrcJJU3BZ3eackBM3vpVrzKkTxB3jFrAK6GSmWkKUwXBHsr+x/9BTxP/QY9euluy1q7b/bf9bHng5eGB3Vq5kx8lL7rHQo99Qhqj4I1e+toBuAd3ygOUBywOWBywPRMgDmWcdQHfc7rFNLSigox2QWaR7uBt//1FroVsmjpCJrXXxclgXth9tP1oeiI0HMs7c13XoJjjd4Go0Z8dC92xeEE0G1kKPrTPtYLD0szxgecDyQMnlgV1qoTuWOWvUo93gDfz2uNyjX39uAb3kMqIVQrbvLQ9YHrA8EBsPZJy9rxu6gaXXFdCjd7sroKMVxLJszbrcY+tQOyAs/SwPWB6wPFAyeQALHTBngzdw+HIMG7x5LfRYAP3wFRvlbgdjyRyMtt9tv1sesDwQCw/s0ih3l1UeQzybY6HHuGzNArpl6FgY2n5r+cfygOWBksoDxkJnDlx3jdO93V0AH8FycgX0WHepsS53OxhL6mC07ba8b3nA8kAsPKCA7vqzFqLdo3W7eyx0z9ZzEWgCJiLeBsVZZo6Fme23ln8sD1geKMk84I5y17l08zfkUeCxaw49OhMfYLc7xdkBWZIHpG275X/LA5YHouUBt8td3e4xBKl7AD16MKcC1uVumTlaZrbfWd6xPGB5oCTzgNtCV0DHMucPW7DUI7TSHZf7AyeDaHeKs0FxdkCW5AFp22753/KA5YFoecA9hw6A43bXnVsV1CMzthXQs+8/1fVvkWoDJr11uScuM9cefUBazzihR6sZx8UcBT3jPWnd6fyv/d+Hm3egdN7yZjp1bTLlmFQYtCPyLXWTdkjTKcd86h1Oee62tPbUwXuGfjwzh4ee3nuTPlQ68879ree67thDkbdzYLpUGbonr07+dQhWnrsN/t+435nvw31m0nvalI92nvfUOVzB12lBloxPv5Fgx/Wg9Ulamy0VBu0Mu31uOtQZe8jLs17a+fePP23938faV/75xVhe9RH7IqZFhaQd0mSKR+741yfB2qfy0NTRnD187n7XavoJqZSSGZQW/i53B9SfCfvDKLhHYKU7LncF9Mg0AQPmnI/YdehBO8s9aF/EdfeFZ2Xb2dyoj+1ZDwr8Npw04dbB5DUj86aUjwLQEaiz994qsM559fFtH+UX6nHWN3/q0WfZ+aj4p2baQdnml1+BdY80fYz0cNePttYefTDstg5afVHSzz1KqGN71sOg9Zm++3bUgN576bmAfOemX4F9G2Nfaf5x5I/mU4+H3ddGNgLokzNuBqRFkbQ/HjT0y2PdyftSeejeoLTItw7ds3zNsdIjw2XPHHr0Ue4A+mH7b2tBO8sw6os6A+ihhFCiCUxTn5m7b0cN6HP23g4qdE3+iXTuGwOgF7e+rT0mEkC/VKz6cUYMgN5n6fli1dZwxk/zaVEC+q5bLxUtNpzKDQ3onp3i3EayY5lH/qdpLgv9WcTmvalAtC73pIUnJWnhCS8Ytp54QCZtPC+VB0futqo/co/M3nZZmo7dJ5WTM1RTHr36rAyYf0LvKw7aIdVSMqTmkF161Bq6SxqO2qNHA8+53og9UjEpCjdvAv/TWHEF9Bm7b0UP6PvuFCuBEAughyNYEyfNwwgt9JIE6OeKFc+Gw1PRW+gvF6CvjwLQDbZGuoOr10KP1FdvCuQcLaBvO35Xth+/I71mH5Wdp3Pk8t3v5NdfRXZn3ZeM0/ek87RD0nfucdlx6q5knM7RM+l2nrqr6XeeviejV2dJpUE7JPNMjvwqIldznsilu09k2d7r8vyHn+Wbpz/KpXtPZNb2K7L95D25/eCp3HrwVA5euC+Pn/0k3z77SR4/+1HPV+8/kdrDgs91vCgrO5Zyiyugx2ShW0BPWHCoPSb8eIFBq4sXoMficrcWuhOH5LjcXy5A33DqQWgLPetB8Gj2CAPjFNCv5T6TqzFsNxeNyz1t7XnJffy93Pv6uczfcUXOXv9aruU8kTnbL3sAN1dajNsvkzdekF9+FdmfdU/2nLkre87ekz1nc/T85PlPsuHQTek566hcvP1Ywf36/Scyd/t5OX7loew6fVeOXLwvC3dmS51hmdJl2iF5+O33smb/DVm+J1su3X4s0zZdkDsPn8moVWfk0XffS53hxQvQGQChAB9AD0ebDjfNjiKa0wTQowkwqjg4Q6zLPbHmnfN466HUimgOPfEAPRT/F4bLfcf5r+M6fvP6ovB5JGoL/SVzua8/WZDL3fm3NbeRzDV/1qLz6BH8WYvLQo98zZupwJEo5tBTl5ySG/efyPWcx7Lu4E05d+MbtZJX7bshP/78ixy+kCPJi0/J1E0X5PmPP6ub3B+4sLQ3Hb4lXacflgfffi83cp/IN09+kIff/SCPvvtBFYOcb56r4gCo48oHvMevOyfTN1+QH376RR4//UF+/uVX+drzHcDvX05xvrcWeuELrliFpHW5B14lUtws9FgAnaC4WPko0b6PGtAzXjYLvSBAd/5tzeCp+4zLPRK3uwK6s2ztuRT1OnTc7XvP3ZclmVflwLkcefL8Rzly6YHjUj95V6ZsvKAW+vc//hIc0I/cksZpe2XNgeuyZv81WZJ5RZZmXpWlmdmylOtdV2TL0RvSf94xWXvghpDXjdynknHqrlzN+U4WZWSrl2DWtkuqFFhATwwAtC73wCDnVi6Jck80IV5QfazLPXC/Wpe7dbm7gdxcMxXO3u7mvqCz10KPZlcak3k0G8us2JMtz374Wa3jk1dyFch/+eVXOXrpgew4cVeP1MUnCrTQNx6+pRb1sGWnFKxxwa93HTcfPJNtx+9osBsW/+OnP0rGqXuyMOOKWvC4/X/86Re5mftUzlz/WmoNtRZ6QUK5KN7HBOglKMo9/VzwZVRF0U+RlWGD4twKmfv6pQT0aJetvWQu92ii3A22Gre7s3NcwUvYvHPo4X5gCnKfowmKS1t1Vq7lfCeHLuTKpA3n5dn3P8nhC7myLDNbvv/xZzmZ/Uj6zD0mUzde0OC2GqkZ+VzhN3Of6Bw6AwNA/+nnX4U59Os5eQdz9Kv2XddvKySlq8t93Jos6T7jiMzdfll2nLyr8+rM4+PeJxLePdAivS5oTjvS/ApKT5tCpemxKCu4FZf1UFbtvyzbzz7QNJtP3ZP1R28ETx/G/PnW0zmSHmKtbrgAMHNP9HPoc4MExW2hbp42sNxr29nwwJDvWANrvnWf3Xm6n0dyHf069AMFLkmMR/1oy7Yz7GUQmAbhthWaRzKHnrQq9Dr0LacfyJKMM7Ik46wey3efV3qs3HclYF9tPH5HJq3I0HcTl6Z7abf1zAMZOWuVhJofD6eNjss9dExLsLEazOVu6rT1zH1vfUPX5aFsOZXH56HT5vfGMWcPr1NepN/6pM96KM2nHgspmwLSIild16H75OUnd7aevu9pY3jjN1ReBb1zxk9s5Thz6ME3VMo4c18uh7LC9d/XnoZO49l8xtflzpZzEexKY9JGY6HTmbjcOZqN3adz6MyDA+TMgzcf6yzEB2R//PlXmbIhS8as8T2Y9950xLHQhyw9pcFzWdcfytnr30jW9Udy5tojOXfjkew9e1dYptZhyiF58Ph7uXznW0k/cUt2n8mRs9cfydPvf5bdZ+7KtmO3NF1ARkvgpWmh6htqDn3E7DXy+nufSu8R02TwlOVStWEbqdOii/QZOV2GTFshyZOX6PXAcfOkcce++q5s9QZSp2UXadd3uA783sOnyJSVGTJ/+0mZvCJDPq9QS4ZMWyZTVu6SlfuvyKoDVyRlyhJJmbLUc3DtHGsOXQ0qpGKz0AMvW/uiSj3ZcjpXy5y/9ZhUrtfSp/w+I2fIxGXp0rxbkgozhNrC7SekTe+hMn31Lll/5Lo06tBb1h+9JdNW75Z+o2dLxTrNZOqqTJmz6bAC3vjFWyV16tJ8x9TVmRLMmo5tDj2/sEGgbzp5VzaduCNV6reUUXPX6f3mk3e9ytv/3955f0dxZHv8/3jnhd2z6/XaZh2W9TpjHIgmZxA5CBElosiSAAmQkAQSGAEiiBwkgshgwATJ5GCMcCDaaxtjL7vnvWN+ve98bk+NepI0mlGYMfVDn+qZ7q6u8K37vffWrWojyJLTFkuzv74muyp9A9DyN+6XzKKtsuP0La1fnxETJHXBx3q+88yXmjf9vGAVh299d54JPR8crct9ycYDMmhsqvQcMkYWrNwu77XvJqNS58uYGQvkzffba/8OHjddEqdkSLPmr0u77v3lz81ekfxNhyRn7W4ZMSlNTnz5WPqOSBEU2EnzlsroaZny2rutZfjEOZrP3gvfyuy8NQLWO/UbKV36j5AuCSP0vPvAJNl/KbjS2xBR7vsufSd7z9+T8bOzdZxyznHgijPPnLNuj5aV8q7ac1Y2HbuqY9X0LymKa4s2nVRZZ6wvKi5TfLPRD9fX7KuU1AXLBUUILCelZsrIKXP1fOuJG0qeuev3BvQz/b75k6shib8+16Fnr3HqOStvjQwcM1U+6NDDW2/qnrWqTPuWPqSPEyena3+a85mLV8mh6w+la/8R0m/kRO1/PU+coOfggLaYnl0kq/eekc2fXFcZ1rpLX8les0vbYs+5e7Ln3B1POwRif9/FB0HbIqood+Xj8OfRHZf7o18jXoMOqUcSFMf687s//p+cuvFQCvZWybErP6iFDeGylOzqnccycdVFtZpZyvbw8ROd6ybI7UfOHz9RAicoDkJbtPNzteSZP99+6p7Oy5NWVD3S51hz/s0P/6vBb7jcr915rO+8cf9fQrT8iWv/UNf8jJK6b4ZQE6E29bVQhL6mvFLJaMz0LIGUR0/PkqQpGdJtYJLkb9gvW45fl+LyCmnRuqOsKD0pHfsM1YHfpms/Wbf/nN7H9XbdEpTgIWyE3rRFRZKclit9EyfIpmPXJGftHmnVubdMySzQY+r8ApmaWaCCuHDbUR9CdQuhqNah+7ncD137UcvV7K+vS0bBBvnbW+8J9XjjvbbStluCCnMGavM335O23frJK6+9IwlJk5TcEfwoL0U7j8vEufny1gftBQUHwTFqWqbMyF6pbZFVtF0F3zutOsqEjDxJzSqUaVnLNB03K1vf566f+7w+CR3rpV33BEkYOVH6J02Szn2HSc/Bo7WP6FuIgXdzX3J6ngwZN01KDp7XPtp45LJe23byCyXMLgnDVQnrPmiUTFu0Qgmdc/qde994r41MySyUVE89qTMKDqThrl/1efQud4hs6/HPlYTTl5ZISnquTJq7RDYfuyof9Rok9DWCtWDLYb02IX2x9EucqH2WtnS9Cvr0ghJ56dU3ZfycHFl/8LwMGDVFsO7HzlwoOWt3qdKD0lq49YiUnv1Kdld8LWVnv9Lz9j0GBCg/pn7RBMWFcrnTZ4PHTdPxhKIyLGW2kPYZnqxtvOHwJSkqPalH/sYDSmYt2nTWvspauVPHV25JudabcqKULVi5Q/aev6vYh7AHjJ6q+Jy/YquX3KZnr5Qu/RNl2bZjggL3RkvT19W4HjR2moyYmBairx9LxEFxQVzuW098rv2RtmS9zC0oEfqeY+6yTapMU0aUav8DfI6dsUB2fHpDDlz5Xjr1HiS7Kr6SkkMXFKv078ajV3SMoNggD2gPFFWwTDuAMcbT5uPXldyRHVOzCvVIVfwXynvtu6q8MFhwp9GsQ4dfcbszjx7OXLp3Dr0ukXTGMjdpJBZ6btlNufT1L5K28bLsqnggJ6//KFjZvTJPytjl53Rp2cDFZ3RJ2u7K+9Iz81PpnH68+sg4LptO3JZFO28ooc/ecEVuffdvOXjhH3LAdaAwsHSNDWXGfnxOesw/Kd3nnZTVh76W9Ue/kjVHvpHiw1/L2qPf6O/xReGvk21qsg7n/cEIHdfn5k+u6YAdMHqKDuJ323ZRQYH22mvoOAU0oESAISQREgi5Z5u9IjzTrkd/HSCQd+66PQpmhAzWNymDAGLAKpqQnhcw6JOmztMBSlk43AOA86gsdD+XO5bI7s/uyAcdeqrFiXKRPGexHL7+UAkuJT1PVpSekPSCDbJ08yGtHwMdawdCHzsrR1btRmu/JglJE5UEFq4ulT4jktXawUrEYscidtrL10OARdWh1+CAOpo6R0fovm7To1/8rCSLe3zJpgMyZkaW970IvfmFJbL2wHkV4MmzF8nxKsdKw3XdvudAVVLKKm/L/I+3qKKHpwXvzJz8tTIqdZ4MGT9DyRNCR8iZOpgUARua0B9L3XaK83W5g5Odp28JVnKPwaMFhRCcJU2dqwIaixpPQ8u2XQQPA9c69R2mfTh32UaBDLDcKGu/xAlaj6Eps9Taw+p76dW3tK4lhy+qMgQ5mHqZtFOfoTpNZX6702gIPZTLvefgMUqo+y9/J+agDXoNGavbG4NTlBGONeUVkppZIJ37DpX8DeWq2OGV+esb7wqeI8oKoaN0t2jTRfB2MJWyZNNBSZ6dLav3ntWxmpKWK1Mzl2kbrz94QfPuNmBkQFusLPtUFVt3G7jPI7bQQ0S5z8hZJcmzcyR7dZnkFJdKTnGZtOnSR5VT3ovHgHL2HjpWOvUZIjtOV+n4BLtc33/le1XWx81aJCMmpasCzzneiI59hsjBq98LHqv8DftUHiDH8EL1GT5eJs5dIjtO3VRCN9a8T12nzBWmcdz/mfNo5tDhWJ9d42rxoteLhR4JoTPXbOab2cUtHHLSeyD1IO5vdnjTHebcpJ9+XIPhIHHzrmDP/pb/C0XoZRXfqOAdPH66WiZYJxwIPKxzBED/UVPkv37/jPQdPl7adk9Qwnv7w49kbuFGFZQAdtI8hxxx00/NWqZknra4SNLzi2VV6XFZvG6PICAMuE3aoITustCNwoD7vGW7rqpEtO/eX8tF7ADE3LH3ECVyCADCQnnBys5Yul5JGwsbwkYpwAsxZ8k6dfcx0KcvWCYZeasla/km2XfxvrTviQJUE6EHKi/REbpvfigdkBRK17PNXlbiok4QIBbVuDl5WnbczB17D5I2nXsrkXXsNUgtEgQ+Fi5uxmEps2R2/lqddoFE03JXScaSNVK4ab9sPHpZ8zb9aVKIs2ZCD19hDrVsbVjKTPWUYJ2CLdyqWHAdeg3SuV+mSZj+QTh37jdMrVs3ofPc6y3bqOVWevqmelkWrNgiu85USenpKlX0UF4bk9BDWejte/SXEXiDUuerV4IU7xAEhOuf339p/oaS0pSsZbJ82xFJnpOjUyz0Gf898/yLqvzQR3hofv+n5xXvps9Q2lDOTF/jFUjLXS0Z+cWyuHiHKhRdByQGjOEGI3QfC93BN+N3Tv46GThqsoyelqUeRbyKjN19lxxXN5jGk3bw8rcqh+jnRcWlWi/qevDKP9QzCFaK957VsYysW7f/M52a4h7IGkzhxp+atVyxk567UnFfvOukGiiQu2k7k6IUhCb02jaW+bnWqW4+1BJOnJt3Dp0o90h3i7tw+19BSbbJiNKQvkmDKABNVrZGLguEbkBnUmMR46Zkbg0ynrm4WJhDfvP9doKVZ+7FjUlgyOT5BZK5Yqu0aN1JXXbTFxXJtIUr5O8tWsnIyekycGyqWqfN32ypc1zMc+aW7Bfm6UMRurEaTHnMO0lxuUe+sUw1oZI3lk3nfsPlTy+8LHkl+9Riw22JVUaK25D7mG/GZf7nF5urBQup9R2RrK5ZzrG+32zZRn8PGpMqf3rhJembmKLkOWbGQtl36Vu1ctH03XVpWAvdl9ARfOUX7gtTKbgbyy/cU3fx+x91lx2nqrSMlE0D3Kp+kc3HcDeOUUvdBEdmr90lb7fqoJYOpM7151/6m85dDxyTKhmFm9VNiZXrrifnDqGvCvjfua9uQXGhCB0vEB4lXKUokSiZWGFgDm8MuMKtDnmhgDF9ghKKixaFFUGNV2VN+VkZMn66vPza26oUtOrUSxW67aduqjcqFKHvqrwdtH7RWOgBhO7xWoFJPF17zt31HttO3lAXMW265ZPrqsARJ4E1jjK1cNVOtTYhfea+EydnKBENmzBLnnnuL5K2ZJ23/MR2vNu2s3zUc4CgZGOVMk5oS8bH1IVFaqHjfvbva5QmlAv//83v+nG5O/hG9hA3QRnxyDgH5/M01gE8E0exbl+FM2WSNFn8CZ2YHeQVXiQwgFLHOdNJtFXqwo81poipx0Hjpmn8xatvv++VZ3kbD0ZE6LVvLBN6HbrxguNBZwO42jja63Jv7GVrTwuhNnU9/S10iMtEKxMYxtwYc8Ro9QhAhB9WnhmUkBhRxMw3ItxfeOU1tQaM2wk3GEFx3MN8+6Gr3wturI93fKJ54HIPRejMUVIeDvM+k9aXy92dNy5lCI93lF98IO16DPC+G9cj1hBCACHBnDiDnjbhKN5zRi1X3M/k2XvoOJ1qQMNH+BHwRt4EYR0MaqEPCqijqWt0Frqvy93kCZm37txbULz6j5yghGaukaog7DVIie13zzyn1i3WjiEx3PVZRdtUASBuoPz8XZ2Hnrd8s9YDl3soQgcT7ne5z+sWFOfrcicflCU8LVifeSXlUrjtiLTp2lcxx7QBUwWQTFHZSfUogW/OiQNhLjlpSpqcuPVPLTvjgLnS7gMSZf6KLUoYpqzEH6AAgG33wbtZGWLuc6fREHoolzvztXhb8LqYg98o2rw7cVKarN1/TlLSFmt7oLiWnrkl5Ze+la4JIzRyf/T0TJmZs0qyi8vU5Z5ZtE2fJRaCNlm7/zNVzolub9mui2w6elmna1DieQdTNcEIvcEs9CAud4wOvH0oGbjUExJT5K3326qs6powXKcOUFxatO4gXfoOlVYduusKCLXQ8xyXOwog8mz59mPqikeBW7b9qOZr6jcjZ6UGxSHP3m3TSQ5f/0E9l2CItkCxD2WhL/fIPDcmOA/L5R5GMPpt73fSQwevewkdDcBoA3VNI9n6tamJ7ml5fzBCN0uwIPR3Wn2kGirWNnNrBH4xD4XghJiff/lVFZBYCFh4uDU5R9uFBAkawWVHsBKD7rkXm6sWjFsLi49B+D9/eFYtf6x/c/zn7/4ghVudoDg36ZrBEBWhe1zu5GsO8mUwUy8sWKwegvXKL97XgyAxAmKYPyWGAMsbZYRIaFx5uNyxdockz9A8Cab6sGNP+cOzzdQ6xDqC0F9+7R15/d3W6hKGCDkIwsNCduoWqLxER+ju/Jxz6rzn/F11G9Ifjks2Q8oqvtYlhUc+f6jKCa51AoGwYjnnwI3L88wjYhXhnYEIXmz+urzwyt9V4YEIwc5//PfvfepJXf/43F8a1OWO4kkgInXB5YoCRd9gyWJhocjQz8yvQ75Y6yhu9Cs4HZ4yU3aeva2ueDw3K3edkd7DxisuyYugSeoMadIuBKS5j1deb9EghO5roVf3KWMR5Unnyj2BefxGoWHM0b/M6+MmB2Md+zlj14n/SPYSesHWw4o/xjnuZPqaKTY8Gcy9o7zS7yhyWKV4n4grYVzwbtz0Bs8mRbkfXlNQXD1+bc0QercBSRrEiGeNctAWKDHIorLKO3KE73ywXS5L72480riJ2R5Cn5Ceqwof45AgWLwR1JkAQaakWG6rUe57zqic4J14prDkkRdcRyagAJs2MCnyLGKX+83aXe7Opm9OtHtNS9y8Lvd7TL6HoSUEI/tI5tCfFkJt6nrWSOjHrmqkNxaNOXA14WJlMBTvPaMDBaByHQudqGnO0YZn5a0VtFyscYK+IMJl24/pEg803qWbD6qwXeRZJmPImhRLav2hCzqgGFTua5xHFeXuCYojX5SXIzceqeBh0C7duF8VFoQ1ZUdg4srDCkHgUya8FAxc5sIRHETyE+WMVY4lhCDkOSwYnoNkcEVD/szb+q8DRvAGCww0dY58HbrvTnHUl+kSyv9hx15aVgQX/y9aXarBX7iTccP2GJiky/aIZMeSZwkfJJEwcoKs3H1GPuzYQ4U7REm78Qzz5sQN4FZnaVqwuXKwQpCVqZtvGk2Uu4MRlDHypI15PwoaCgbBSxmFG9Tzkr3GsUQhIu4lUM6JCZmsCszs/PXquSAAkr7EQuU+1qnPyC5SYb/h8EXv0jB3HbBqnbXJgZ6RaCx0X0Kvzrt9j4HSZ+hY9bIkJE4Qjt5DxyiJUa5TX/1LCYyphk59h+oKAHCJC7lgyyGtFx44xiX3s/KE++hvVj+sP3hRx8GCoq06j05fMz2BtwNFBk8cU0YoSu524BxPHis+/P83vyN2uftY6E6/4y3JLdmrgYxGXuDyRx6Bd/OfeXdx+VlV2FnJgsIH4SOTwAv3lF94oNMsBEqi2BOLkL/hgJ4XlR7X9gPrLGNdtfu0Plu49bAwRYGRYt5jUuQZyoX57U7rw+UO75po92AcbP7zWujhhMSbh/zTSDaWaWqie1reXxOhIwiJ9HaDj4FBVLv7v1DnkAfrnbnOQHEPKvJmEIV61vzPM+7nzP9RWeiuKHeTP3VCSTH5h0rxKkDM5jp1oC781nXcVc5185/7PnNeYxpEeYnOQq8W/maduymnfzmoi2nrmj76wT3kwfP+AX785193//fU9Dtal3tNeTf1tWgIPZTL3fQD/aWHZ5MV/3FL3Q2+6T93H6GAuH/7tFMVfWz6+kcvPsw94Yxhc69/Wp9R7ni//MtCncCnb90cBYBxzDX3WHbHBlFW2ovjyPUfVPEnH3O/aRNTJ5UjEW6sVOs69DAsdC/nsgFNDZvQKKETQdfYy9aeFkJt6npC6AaUpP6D3X2tqc4pk/+7oyJ0vyh3/7xj7Xd0hB7YdjFTvyD9Wped4kIFxcVM/fx2MIuG0ENZ6LFa18ByBeIwYgvdJ8rdrbDG53k4hB6Od5yAODzpEHooA9xloYeeaPdqByFc8pFsLNPURPe0vL8mCz1wUDb+gFHNN4jgrz+Xe6CgiYV6u8tQXy53d56xeR6Ny73xsVnXNny6CT2wfyImdB+Xe2C+de2Xpr6/vlzuhodrindzLHT882GExJsM/VM7hx58bXaHylIAAAeuSURBVHwsKA3xSuhRWeg+c+ixRuiB5YnOQo8vgVc3l7vvdrRNLZh93x/Yj9EReujtcn3fGz/9Hb3LPbCN47EtarXQq2oPivPn3FBud6+FHuqGgIyCWOmW0OOL0H3nnJpWQISy0KMidFeUezwIgGgIPdh0RSzXuW47xcUuoQdr9+gI/cuAaadY7sdwyhYxof/mXO6Rfw89gH89c+j31O0e6FV3CP3Rr45vPghZB2QY5B4bFBdfhG6WrYUzKBv6nlCEHq3LPVS+DV2f2vMPtDqiIfTa39e0Cptv+X47Lvf6J3RjoQfiw7cNY6k/ay6Ldbk77VOby/3Tm49q3TDGn4fxqOt8uh8f1w+h3/l3bO0U18i7scWCaz1UGYIFxcUDoUdlobtc7vEgDJ8eQmcv9/C3fuXzqUdv/lOPY1WPpeGPf9b6DspDOY6yisOvTKtPR7a7IWM3/oPiAsk9Ygv9NzaHXqvLvS5R7obAa7LQw90n1l9LML/txjKxa6EPXn5JZmy/VW/HzHrMq6ZyJW/4QjrPrcMe/x4lju1iUzZ+EXF9Z+74Uhr7GFYUwXejM45Lz5zKRi9rtG1DmUMpn/7/d190VnrkVPoe2ZXSo6mOnErpnl3hWx6/8kX6zYhhK64E78vtjY/HaPvYPJ+w5HzYfW36nvYbv+GL4G3RBGPT1CWadNq2W9JtwZmQbXHqZu1bvxquNen9X57I7Z8CN4Orl6C4S9ZCD9lZBqgxmfp9yMbna3bmGkRpzs3e+O7fkZ43thclVDmD1a+xy2bfF5/jx/ab7bd6wEAkhG6I3T/1BsXVtum7/4Pu3zYoLnYt9JhUJOphENh6WcxZDFgM/BYwcKrqlzpvu647uwbZYMZL6HbZmh0cv4XBYetgcWwxYDEQTxg4FUFQnBrUj34NUAS8hB5q5xm3JR7q3FrodgDF0wCyZbV4tRiwGIgVDETscg8SGOcl9Gg+zmJ3irODI1YGhy2HxaLFgMVAPGEgEpe7Y6EHLl1zCP2R81m2UBZ4bf9bC90OoHgaQLasFq8WAxYDsYKBSCx0Yt7u88lzv3l0r4Xuf6E2Endfv3zXrkOPFXDYclhBZTFgMWAxED8YiITQHf59Ind/+tVnUxqPhe7sFBdppLu10OMHPHag276yGLAYsBiIHQxA6G4DOdxzvtDmv2Ocl9AjJXNejoXebf5JuybRLseyGLAYsBiwGLAYCBMDbKRzuqruG8vAuwSy3/nJd7pcCT3a76GjDBy99lDKKr+TsspvpZSjwkn57X/otYrA/819NV2P1by95QpRL+/1IO2hbUZ76fFASit8j50VD2Tn2QdC6n+NfPXa2SDXPPfXdL3GvM17XXk7Za1+V33m7a6bKVdEbRKk3MHyDtaeWj8Pfg0e/dOnGZ/+beFuL7BY0/Vg1/R5D/aDXQ933AR7tiHypu81XyPjohzvwcrtrXND5h2qr2roi4ZoT1P/RqlzTLXndyrv9138Xr55GLj8LFwr3Xwf/d4vzodaHEJXtg/8cku4mZr7yNSsZzcbxzvpE/Fe+5nJfLQLz8fa2WTe8xz5oFxUX/Pco0F7/s8FPm9cENXPO1GAlClo3toInms+ZXK919TJU+67fuU2sQem3Hc973IaOMR72Y+XOgXJm//v6PpCAh6YH3kifFlHt/nzfGlH32Gu/Vx9TZceqtYGQHjuV7ntecZ7rYa89R4NtPC8l7xDPK95s/WgltekznuDlTto3v7P/+QAu+55+723tjZxv1f73f28P86q+ykohkxfKj7oO4NLk1Y/3xj4rH6/8976xqf/eNY2cY8dF66da0HaxHMPQT1OmzAeAtsrIG9cjAGyojrS1y3cNG9vnpHmbZ7zpJ4AJHfe4LrWNglXxv3iBDpV9yEyGRniwtCjJ1HIzyB94c7b9Rltb508/9WO/RBy20/GVdfNUyfTpl6578hMH/npxpeWJ7T89JY7ACemLz3jwnCC57PhznPV/WxwFj0+zXv983YsbPNe2jfiw9OGPK+EjgAmYxo74kw9BaIBos3DPm/b0GLAYsBiwGLAYqBmDOh3WFycq4TuWLCOZmQbsOYGtO1j28diwGLAYsBiIKYw4LHSLaG7tJuY6iBbLuvpsRiwGLAYsBioBQNmOpVpAi+hq8u9lgct4Vmt1GLAYsBiwGLAYiB2MKBud08sh0PoGtgUOwW0YLF9YTFgMWAxYDFgMRAmBtyEDsOb6HTbgGE2oPVmWFeYxYDFgMWAxUAMYMC43dVCN8uMLJlbMrcYsBiwGLAYsBiIHwzoyrJHT+SBdw5dl605axRtR8ZPR9q+sn1lMWAxYDFgMYCHHU+7NyjObEBhwWHBYTFgMWAxYDFgMRA/GMBKZ8M2h9A9G8vYDoyfDrR9ZfvKYsBiwGLAYgAMmB0LvRa6XbZmgWGFg8WAxYDFgMVAHGJAN5Z54ljo+N41Si4GovUsmOIQTBY3NtLXYsBiwGKgSTBg9sdnHl0tdLtszZKoVaQsBiwGLAYsBuIVA84Hsrwu9/r4MIsFQ7yCwZbbYtdiwGLAYiBeMeB8j8UExfEJPc9n5OK1QrbcdjBaDFgMWAxYDDyNGCAGjs/6ei10u2zNDoSncSDYOlvcWwxYDMQ7BvCwG0L/fylNtUDWLWcqAAAAAElFTkSuQmCC;" vertex="1" parent="1">
          <mxGeometry x="20" y="-670" width="739.55" height="460" as="geometry" />
        </mxCell>
      </root>
    </mxGraphModel>
  </diagram>
  <diagram id="7QcvH00Ai8PCEHtqAPEW" name="DFD">
    <mxGraphModel dx="2300" dy="516" grid="1" gridSize="10" guides="1" tooltips="1" connect="0" arrows="1" fold="1" page="1" pageScale="1" pageWidth="980" pageHeight="690" math="0" shadow="1">
      <root>
        <mxCell id="hdogqXHSBpEaAjrL4_Qm-0" />
        <mxCell id="hdogqXHSBpEaAjrL4_Qm-1" parent="hdogqXHSBpEaAjrL4_Qm-0" />
        <mxCell id="zKTPC_A6eEu45X3fTq7L-4" value="CR" style="edgeStyle=none;rounded=0;orthogonalLoop=1;jettySize=auto;html=1;fontFamily=Helvetica;fontSize=8;" edge="1" parent="hdogqXHSBpEaAjrL4_Qm-1" source="zKTPC_A6eEu45X3fTq7L-0" target="zKTPC_A6eEu45X3fTq7L-3">
          <mxGeometry relative="1" as="geometry" />
        </mxCell>
        <mxCell id="zKTPC_A6eEu45X3fTq7L-0" value="&lt;h1&gt;CMG&lt;/h1&gt;" style="rounded=0;whiteSpace=wrap;html=1;shadow=1;fontFamily=Helvetica;fontSize=8;align=center;" vertex="1" parent="hdogqXHSBpEaAjrL4_Qm-1">
          <mxGeometry x="-50" y="80" width="120" height="60" as="geometry" />
        </mxCell>
        <mxCell id="zKTPC_A6eEu45X3fTq7L-7" value="list watch" style="edgeStyle=none;rounded=0;orthogonalLoop=1;jettySize=auto;html=1;fontFamily=Helvetica;fontSize=8;startArrow=classicThin;startFill=1;" edge="1" parent="hdogqXHSBpEaAjrL4_Qm-1" source="zKTPC_A6eEu45X3fTq7L-3" target="zKTPC_A6eEu45X3fTq7L-5">
          <mxGeometry relative="1" as="geometry">
            <mxPoint x="290" y="260" as="targetPoint" />
          </mxGeometry>
        </mxCell>
        <mxCell id="zKTPC_A6eEu45X3fTq7L-3" value="&lt;span&gt;K8S&amp;nbsp; ApiServer&lt;/span&gt;" style="ellipse;shape=cloud;whiteSpace=wrap;html=1;rounded=0;shadow=1;fontSize=8;" vertex="1" parent="hdogqXHSBpEaAjrL4_Qm-1">
          <mxGeometry x="180" y="70" width="120" height="80" as="geometry" />
        </mxCell>
        <mxCell id="84nE5ot_cG_BJnyZ2Ct3-1" value="" style="edgeStyle=orthogonalEdgeStyle;curved=0;rounded=1;sketch=0;orthogonalLoop=1;jettySize=auto;html=1;exitX=0.467;exitY=1.067;exitDx=0;exitDy=0;exitPerimeter=0;" edge="1" parent="hdogqXHSBpEaAjrL4_Qm-1" source="cLjiAWQgn1-5IM3SHc4H-0" target="84nE5ot_cG_BJnyZ2Ct3-0">
          <mxGeometry relative="1" as="geometry" />
        </mxCell>
        <mxCell id="ZomJhwY5Qn4O2pSg4ZhM-9" value="记录数据库，刷新缓存，发布通知" style="edgeLabel;html=1;align=center;verticalAlign=middle;resizable=0;points=[];fontColor=#141414;" vertex="1" connectable="0" parent="84nE5ot_cG_BJnyZ2Ct3-1">
          <mxGeometry x="-0.3101" y="2" relative="1" as="geometry">
            <mxPoint as="offset" />
          </mxGeometry>
        </mxCell>
        <mxCell id="REnGQltveiTFZSzDhmxL-0" value="调用" style="edgeStyle=none;curved=1;sketch=0;orthogonalLoop=1;jettySize=auto;html=1;startArrow=none;startFill=0;" edge="1" parent="hdogqXHSBpEaAjrL4_Qm-1" source="zKTPC_A6eEu45X3fTq7L-5" target="UfGcfgyKQdFJ5vjehDNS-1">
          <mxGeometry relative="1" as="geometry" />
        </mxCell>
        <mxCell id="zKTPC_A6eEu45X3fTq7L-5" value="operator" style="rounded=1;whiteSpace=wrap;html=1;shadow=1;fontFamily=Helvetica;fontSize=8;align=center;fillColor=#b0e3e6;strokeColor=#0e8088;" vertex="1" parent="hdogqXHSBpEaAjrL4_Qm-1">
          <mxGeometry x="180" y="210" width="120" height="60" as="geometry" />
        </mxCell>
        <mxCell id="84nE5ot_cG_BJnyZ2Ct3-0" value="" style="shape=cylinder3;whiteSpace=wrap;html=1;boundedLbl=1;backgroundOutline=1;size=15;rounded=0;sketch=0;fillColor=#d0cee2;strokeColor=#56517e;" vertex="1" parent="hdogqXHSBpEaAjrL4_Qm-1">
          <mxGeometry x="377" y="507" width="60" height="80" as="geometry" />
        </mxCell>
        <mxCell id="58FKScHTOD0fjgMbz1a8-3" value="" style="edgeStyle=none;rounded=1;sketch=0;orthogonalLoop=1;jettySize=auto;html=1;strokeColor=#99004D;" edge="1" parent="hdogqXHSBpEaAjrL4_Qm-1" source="84nE5ot_cG_BJnyZ2Ct3-4" target="58FKScHTOD0fjgMbz1a8-2">
          <mxGeometry relative="1" as="geometry" />
        </mxCell>
        <mxCell id="84nE5ot_cG_BJnyZ2Ct3-4" value="AMG-网关" style="rounded=0;whiteSpace=wrap;html=1;sketch=0;shadow=1;" vertex="1" parent="hdogqXHSBpEaAjrL4_Qm-1">
          <mxGeometry x="-300" y="80" width="120" height="60" as="geometry" />
        </mxCell>
        <mxCell id="58FKScHTOD0fjgMbz1a8-0" value="&lt;font face=&quot;宋体&quot;&gt;流控、熔断等上报接口&lt;/font&gt;" style="endArrow=classic;html=1;entryX=0.45;entryY=1;entryDx=0;entryDy=0;entryPerimeter=0;edgeStyle=orthogonalEdgeStyle;exitX=-0.025;exitY=0.56;exitDx=0;exitDy=0;exitPerimeter=0;fontColor=#141414;strokeColor=#141414;" edge="1" parent="hdogqXHSBpEaAjrL4_Qm-1" source="cLjiAWQgn1-5IM3SHc4H-0" target="zKTPC_A6eEu45X3fTq7L-0">
          <mxGeometry width="50" height="50" relative="1" as="geometry">
            <mxPoint x="460" y="270" as="sourcePoint" />
            <mxPoint x="20" y="150" as="targetPoint" />
            <Array as="points">
              <mxPoint x="4" y="388" />
            </Array>
          </mxGeometry>
        </mxCell>
        <mxCell id="58FKScHTOD0fjgMbz1a8-12" value="" style="edgeStyle=none;rounded=1;sketch=0;orthogonalLoop=1;jettySize=auto;html=1;startArrow=classicThin;startFill=1;strokeColor=#CC0066;" edge="1" parent="hdogqXHSBpEaAjrL4_Qm-1" source="58FKScHTOD0fjgMbz1a8-2" target="58FKScHTOD0fjgMbz1a8-11">
          <mxGeometry relative="1" as="geometry" />
        </mxCell>
        <mxCell id="5svcY1SSpPLeqzfkWsX5-5" value="" style="edgeStyle=none;curved=1;sketch=0;orthogonalLoop=1;jettySize=auto;html=1;startArrow=none;startFill=0;strokeColor=#CC0066;" edge="1" parent="hdogqXHSBpEaAjrL4_Qm-1" source="58FKScHTOD0fjgMbz1a8-2" target="5svcY1SSpPLeqzfkWsX5-3">
          <mxGeometry relative="1" as="geometry" />
        </mxCell>
        <mxCell id="58FKScHTOD0fjgMbz1a8-2" value="&lt;p class=&quot;MsoNormal&quot;&gt;&lt;span style=&quot;font-family: &amp;#34;times new roman&amp;#34; ; font-size: 10.5pt&quot;&gt;&lt;font face=&quot;宋体&quot;&gt;服务调用网关&lt;/font&gt;&lt;/span&gt;&lt;/p&gt;&lt;p class=&quot;MsoNormal&quot;&gt;&lt;span style=&quot;font-size: 10.5pt&quot;&gt;&lt;font face=&quot;Times New Roman&quot;&gt;amg-api-gateway&lt;/font&gt;&lt;/span&gt;&lt;/p&gt;" style="rounded=1;whiteSpace=wrap;html=1;sketch=0;shadow=1;fillColor=#ffff88;strokeColor=#36393d;" vertex="1" parent="hdogqXHSBpEaAjrL4_Qm-1">
          <mxGeometry x="-300" y="375" width="120" height="60" as="geometry" />
        </mxCell>
        <mxCell id="5svcY1SSpPLeqzfkWsX5-1" value="" style="edgeStyle=none;curved=1;sketch=0;orthogonalLoop=1;jettySize=auto;html=1;startArrow=none;startFill=0;" edge="1" parent="hdogqXHSBpEaAjrL4_Qm-1" source="58FKScHTOD0fjgMbz1a8-7" target="58FKScHTOD0fjgMbz1a8-13">
          <mxGeometry relative="1" as="geometry" />
        </mxCell>
        <mxCell id="58FKScHTOD0fjgMbz1a8-7" value="Actor" style="shape=umlActor;verticalLabelPosition=bottom;verticalAlign=top;html=1;outlineConnect=0;rounded=1;shadow=1;glass=0;sketch=0;" vertex="1" parent="hdogqXHSBpEaAjrL4_Qm-1">
          <mxGeometry x="-476" y="670" width="30" height="60" as="geometry" />
        </mxCell>
        <mxCell id="58FKScHTOD0fjgMbz1a8-14" value="" style="edgeStyle=none;rounded=1;sketch=0;orthogonalLoop=1;jettySize=auto;html=1;startArrow=classicThin;startFill=1;" edge="1" parent="hdogqXHSBpEaAjrL4_Qm-1" source="58FKScHTOD0fjgMbz1a8-11" target="58FKScHTOD0fjgMbz1a8-13">
          <mxGeometry relative="1" as="geometry" />
        </mxCell>
        <mxCell id="58FKScHTOD0fjgMbz1a8-11" value="中继AMG" style="rounded=0;whiteSpace=wrap;html=1;sketch=0;shadow=1;" vertex="1" parent="hdogqXHSBpEaAjrL4_Qm-1">
          <mxGeometry x="-521" y="375" width="120" height="60" as="geometry" />
        </mxCell>
        <mxCell id="58FKScHTOD0fjgMbz1a8-13" value="其它省AMG" style="rounded=0;whiteSpace=wrap;html=1;sketch=0;shadow=1;" vertex="1" parent="hdogqXHSBpEaAjrL4_Qm-1">
          <mxGeometry x="-521" y="520" width="120" height="60" as="geometry" />
        </mxCell>
        <mxCell id="fqj1xfR9sEQ374SJdePA-6" value="" style="edgeStyle=none;sketch=0;orthogonalLoop=1;jettySize=auto;html=1;fontColor=#141414;startArrow=classicThin;startFill=1;strokeColor=#141414;dashed=1;endArrow=none;endFill=0;" edge="1" parent="hdogqXHSBpEaAjrL4_Qm-1" source="aicW-fnA6qDHuhY_AQFV-3" target="fqj1xfR9sEQ374SJdePA-4">
          <mxGeometry relative="1" as="geometry" />
        </mxCell>
        <mxCell id="aicW-fnA6qDHuhY_AQFV-4" value="日志" style="edgeStyle=none;sketch=0;orthogonalLoop=1;jettySize=auto;html=1;dashed=1;fontColor=#141414;startArrow=none;startFill=0;strokeColor=#141414;" edge="1" parent="hdogqXHSBpEaAjrL4_Qm-1" source="5svcY1SSpPLeqzfkWsX5-3" target="aicW-fnA6qDHuhY_AQFV-3">
          <mxGeometry relative="1" as="geometry" />
        </mxCell>
        <mxCell id="5svcY1SSpPLeqzfkWsX5-3" value="ESB" style="rounded=1;whiteSpace=wrap;html=1;sketch=0;shadow=1;fillColor=#eeeeee;strokeColor=#36393d;" vertex="1" parent="hdogqXHSBpEaAjrL4_Qm-1">
          <mxGeometry x="-300" y="530" width="120" height="60" as="geometry" />
        </mxCell>
        <mxCell id="cLjiAWQgn1-5IM3SHc4H-4" value="" style="edgeStyle=orthogonalEdgeStyle;sketch=0;orthogonalLoop=1;jettySize=auto;html=1;startArrow=none;startFill=0;" edge="1" parent="hdogqXHSBpEaAjrL4_Qm-1" source="UfGcfgyKQdFJ5vjehDNS-1" target="cLjiAWQgn1-5IM3SHc4H-1">
          <mxGeometry relative="1" as="geometry" />
        </mxCell>
        <mxCell id="cLjiAWQgn1-5IM3SHc4H-5" value="" style="edgeStyle=orthogonalEdgeStyle;sketch=0;orthogonalLoop=1;jettySize=auto;html=1;startArrow=none;startFill=0;" edge="1" parent="hdogqXHSBpEaAjrL4_Qm-1" source="UfGcfgyKQdFJ5vjehDNS-1" target="cLjiAWQgn1-5IM3SHc4H-0">
          <mxGeometry relative="1" as="geometry" />
        </mxCell>
        <mxCell id="UfGcfgyKQdFJ5vjehDNS-1" value="&lt;span style=&quot;font-family: &amp;#34;times new roman&amp;#34; ; font-size: 10.5pt&quot;&gt;&lt;font face=&quot;宋体&quot;&gt;接口&lt;/font&gt;&lt;/span&gt;&lt;span style=&quot;font-size: 10.5pt&quot;&gt;对接&lt;/span&gt;&lt;span style=&quot;font-family: &amp;#34;times new roman&amp;#34; ; font-size: 14px&quot;&gt;&lt;br&gt;cmg-interface-proc&lt;/span&gt;" style="rounded=1;whiteSpace=wrap;html=1;sketch=0;fillColor=#ffff88;strokeColor=#36393d;" vertex="1" parent="hdogqXHSBpEaAjrL4_Qm-1">
          <mxGeometry x="440" y="210" width="120" height="60" as="geometry" />
        </mxCell>
        <mxCell id="cLjiAWQgn1-5IM3SHc4H-0" value="&lt;p class=&quot;MsoNormal&quot;&gt;&lt;span style=&quot;font-size: 10.5pt&quot;&gt;管控指令处理&lt;br&gt;&lt;/span&gt;&lt;span style=&quot;font-family: &amp;#34;times new roman&amp;#34; ; font-size: 10.5pt&quot;&gt;cmg-command-proc&lt;/span&gt;&lt;br&gt;&lt;/p&gt;" style="rounded=1;shadow=1;glass=0;sketch=0;horizontal=1;verticalAlign=middle;whiteSpace=wrap;labelBackgroundColor=none;html=1;fillColor=#ffff88;strokeColor=#36393d;" vertex="1" parent="hdogqXHSBpEaAjrL4_Qm-1">
          <mxGeometry x="350" y="360" width="120" height="50" as="geometry" />
        </mxCell>
        <mxCell id="cLjiAWQgn1-5IM3SHc4H-3" value="记录数据库，刷新缓存，发布通知" style="edgeStyle=orthogonalEdgeStyle;sketch=0;orthogonalLoop=1;jettySize=auto;html=1;startArrow=none;startFill=0;exitX=0.5;exitY=1;exitDx=0;exitDy=0;exitPerimeter=0;" edge="1" parent="hdogqXHSBpEaAjrL4_Qm-1" source="cLjiAWQgn1-5IM3SHc4H-1">
          <mxGeometry relative="1" as="geometry">
            <mxPoint x="440" y="550" as="targetPoint" />
            <Array as="points">
              <mxPoint x="574" y="550" />
            </Array>
          </mxGeometry>
        </mxCell>
        <mxCell id="cLjiAWQgn1-5IM3SHc4H-1" value="&lt;span style=&quot;font-size: 10.5pt&quot;&gt;&lt;font face=&quot;宋体&quot;&gt;&lt;font face=&quot;times new roman&quot;&gt;管理数据处理&lt;/font&gt;&lt;br&gt;&lt;/font&gt;&lt;/span&gt;&lt;span style=&quot;font-size: 10.5pt&quot;&gt;&lt;font face=&quot;Times New Roman&quot;&gt;cmg&lt;/font&gt;&lt;/span&gt;&lt;span style=&quot;font-family: &amp;#34;times new roman&amp;#34; ; font-size: 10.5pt&quot;&gt;-globaldata-proc&lt;/span&gt;&lt;p class=&quot;MsoNormal&quot;&gt;&lt;/p&gt;" style="rounded=1;shadow=1;glass=0;sketch=0;horizontal=1;verticalAlign=top;whiteSpace=wrap;labelBackgroundColor=none;html=1;fillColor=#ffff88;strokeColor=#36393d;align=center;" vertex="1" parent="hdogqXHSBpEaAjrL4_Qm-1">
          <mxGeometry x="513.5" y="360" width="120" height="50" as="geometry" />
        </mxCell>
        <mxCell id="fuknoj8fPmJn_HlXlpeP-2" value="" style="aspect=fixed;html=1;points=[];align=center;image;fontSize=12;image=img/lib/mscae/Cache_Redis_Product.svg;rounded=1;shadow=1;glass=0;pointerEvents=0;fillColor=none;gradientColor=none;" vertex="1" parent="hdogqXHSBpEaAjrL4_Qm-1">
          <mxGeometry x="382" y="548" width="50" height="42" as="geometry" />
        </mxCell>
        <mxCell id="fuknoj8fPmJn_HlXlpeP-3" value="服务管控平台" style="whiteSpace=wrap;html=1;aspect=fixed;rounded=1;shadow=1;glass=0;sketch=0;fillColor=#eeeeee;strokeColor=#36393d;" vertex="1" parent="hdogqXHSBpEaAjrL4_Qm-1">
          <mxGeometry x="609" y="200" width="80" height="80" as="geometry" />
        </mxCell>
        <mxCell id="fuknoj8fPmJn_HlXlpeP-4" value="" style="edgeStyle=none;curved=1;sketch=0;orthogonalLoop=1;jettySize=auto;html=1;startArrow=none;startFill=0;" edge="1" parent="hdogqXHSBpEaAjrL4_Qm-1" source="fuknoj8fPmJn_HlXlpeP-5" target="fuknoj8fPmJn_HlXlpeP-3">
          <mxGeometry relative="1" as="geometry" />
        </mxCell>
        <mxCell id="fuknoj8fPmJn_HlXlpeP-5" value="" style="shape=actor;whiteSpace=wrap;html=1;rounded=1;shadow=1;glass=0;sketch=0;" vertex="1" parent="hdogqXHSBpEaAjrL4_Qm-1">
          <mxGeometry x="633.5" y="120" width="31" height="40" as="geometry" />
        </mxCell>
        <mxCell id="58FKScHTOD0fjgMbz1a8-1" value="" style="rounded=1;sketch=0;orthogonalLoop=1;jettySize=auto;html=1;exitX=1;exitY=0.5;exitDx=0;exitDy=0;exitPerimeter=0;startArrow=classicThin;startFill=1;entryX=0.033;entryY=0.675;entryDx=0;entryDy=0;entryPerimeter=0;dashed=1;" edge="1" parent="hdogqXHSBpEaAjrL4_Qm-1" source="58FKScHTOD0fjgMbz1a8-2" target="84nE5ot_cG_BJnyZ2Ct3-0">
          <mxGeometry relative="1" as="geometry">
            <mxPoint x="-170" y="405" as="sourcePoint" />
            <mxPoint x="390" y="580" as="targetPoint" />
          </mxGeometry>
        </mxCell>
        <mxCell id="ZomJhwY5Qn4O2pSg4ZhM-11" value="Text" style="edgeLabel;html=1;align=center;verticalAlign=middle;resizable=0;points=[];fontColor=#141414;" vertex="1" connectable="0" parent="58FKScHTOD0fjgMbz1a8-1">
          <mxGeometry x="0.4982" y="-1" relative="1" as="geometry">
            <mxPoint as="offset" />
          </mxGeometry>
        </mxCell>
        <mxCell id="ZomJhwY5Qn4O2pSg4ZhM-13" value="订阅通知，刷新JVM内存、定期全量同步" style="edgeLabel;html=1;align=center;verticalAlign=middle;resizable=0;points=[];fontColor=#141414;" vertex="1" connectable="0" parent="58FKScHTOD0fjgMbz1a8-1">
          <mxGeometry x="0.502" y="-3" relative="1" as="geometry">
            <mxPoint x="-79" y="-25" as="offset" />
          </mxGeometry>
        </mxCell>
        <mxCell id="ZomJhwY5Qn4O2pSg4ZhM-14" value="&lt;p class=&quot;MsoNormal&quot;&gt;&lt;span style=&quot;font-family: &amp;#34;times new roman&amp;#34; ; font-size: 10.5000pt&quot;&gt;&lt;font face=&quot;宋体&quot;&gt;全局流控&lt;/font&gt;&lt;/span&gt;&lt;/p&gt;&lt;p class=&quot;MsoNormal&quot;&gt;&lt;span style=&quot;font-size: 10.5000pt&quot;&gt;&lt;font face=&quot;Times New Roman&quot;&gt;amg-rate&lt;/font&gt;&lt;/span&gt;&lt;span style=&quot;font-family: &amp;#34;times new roman&amp;#34; ; font-size: 10.5000pt&quot;&gt;limit-control&lt;/span&gt;&lt;/p&gt;" style="rounded=1;whiteSpace=wrap;html=1;sketch=0;shadow=1;fillColor=#ffff88;strokeColor=#36393d;" vertex="1" parent="hdogqXHSBpEaAjrL4_Qm-1">
          <mxGeometry x="490" y="700" width="140" height="50" as="geometry" />
        </mxCell>
        <mxCell id="aicW-fnA6qDHuhY_AQFV-7" value="" style="edgeStyle=none;sketch=0;orthogonalLoop=1;jettySize=auto;html=1;fontColor=#141414;startArrow=none;startFill=0;endArrow=classic;endFill=1;strokeColor=#000000;" edge="1" parent="hdogqXHSBpEaAjrL4_Qm-1" source="fqj1xfR9sEQ374SJdePA-3" target="fqj1xfR9sEQ374SJdePA-7">
          <mxGeometry relative="1" as="geometry">
            <mxPoint x="-70" y="670" as="targetPoint" />
          </mxGeometry>
        </mxCell>
        <mxCell id="fqj1xfR9sEQ374SJdePA-3" value="&lt;p class=&quot;MsoNormal&quot;&gt;&lt;span style=&quot;font-size: 10.5pt&quot;&gt;网关&lt;/span&gt;&lt;span style=&quot;font-family: &amp;#34;times new roman&amp;#34; ; font-size: 10.5pt&quot;&gt;&lt;font face=&quot;宋体&quot;&gt;日志汇聚&lt;/font&gt;&lt;/span&gt;&lt;/p&gt;&lt;p class=&quot;MsoNormal&quot;&gt;&lt;span style=&quot;font-family: &amp;#34;times new roman&amp;#34; ; font-size: 10.5000pt&quot;&gt;log-collect-cmg&lt;/span&gt;&lt;/p&gt;" style="rounded=1;shadow=1;glass=0;sketch=0;horizontal=1;verticalAlign=middle;whiteSpace=wrap;labelBackgroundColor=none;html=1;fillColor=#ffff88;strokeColor=#36393d;" vertex="1" parent="hdogqXHSBpEaAjrL4_Qm-1">
          <mxGeometry x="-130" y="540" width="120" height="50" as="geometry" />
        </mxCell>
        <mxCell id="fqj1xfR9sEQ374SJdePA-8" value="" style="edgeStyle=none;sketch=0;orthogonalLoop=1;jettySize=auto;html=1;fontColor=#141414;startArrow=none;startFill=0;strokeColor=#141414;" edge="1" parent="hdogqXHSBpEaAjrL4_Qm-1" source="fqj1xfR9sEQ374SJdePA-4" target="fqj1xfR9sEQ374SJdePA-7">
          <mxGeometry relative="1" as="geometry" />
        </mxCell>
        <mxCell id="fqj1xfR9sEQ374SJdePA-4" value="&lt;p class=&quot;MsoNormal&quot;&gt;&lt;span style=&quot;font-size: 10.5pt&quot;&gt;上下游&lt;/span&gt;&lt;span style=&quot;font-family: &amp;#34;times new roman&amp;#34; ; font-size: 10.5pt&quot;&gt;&lt;font face=&quot;宋体&quot;&gt;日志汇聚&lt;/font&gt;&lt;/span&gt;&lt;/p&gt;&lt;p class=&quot;MsoNormal&quot;&gt;&lt;span style=&quot;font-family: &amp;#34;times new roman&amp;#34; ; font-size: 10.5000pt&quot;&gt;log-collect-app&lt;/span&gt;&lt;/p&gt;" style="rounded=1;shadow=1;glass=0;sketch=0;horizontal=1;verticalAlign=middle;whiteSpace=wrap;labelBackgroundColor=none;html=1;fillColor=#ffff88;strokeColor=#36393d;" vertex="1" parent="hdogqXHSBpEaAjrL4_Qm-1">
          <mxGeometry x="-115" y="710" width="120" height="50" as="geometry" />
        </mxCell>
        <mxCell id="aicW-fnA6qDHuhY_AQFV-10" value="" style="edgeStyle=none;sketch=0;orthogonalLoop=1;jettySize=auto;html=1;fontColor=#141414;startArrow=none;startFill=0;endArrow=classic;endFill=1;strokeColor=#000000;" edge="1" parent="hdogqXHSBpEaAjrL4_Qm-1" source="fqj1xfR9sEQ374SJdePA-5" target="aicW-fnA6qDHuhY_AQFV-8">
          <mxGeometry relative="1" as="geometry" />
        </mxCell>
        <mxCell id="fqj1xfR9sEQ374SJdePA-5" value="&lt;p class=&quot;MsoNormal&quot;&gt;&lt;span style=&quot;font-size: 10.5000pt&quot;&gt;日志&lt;/span&gt;&lt;span style=&quot;font-family: &amp;#34;times new roman&amp;#34; ; font-size: 10.5000pt&quot;&gt;&lt;font face=&quot;宋体&quot;&gt;上报&lt;/font&gt;&lt;/span&gt;&lt;/p&gt;&lt;p class=&quot;MsoNormal&quot;&gt;&lt;span style=&quot;font-family: &amp;#34;times new roman&amp;#34; ; font-size: 10.5000pt&quot;&gt;log-send-cmg&lt;/span&gt;&lt;/p&gt;" style="rounded=1;shadow=1;glass=0;sketch=0;horizontal=1;verticalAlign=middle;whiteSpace=wrap;labelBackgroundColor=none;html=1;fillColor=#ffff88;strokeColor=#36393d;" vertex="1" parent="hdogqXHSBpEaAjrL4_Qm-1">
          <mxGeometry x="200" y="700" width="110" height="50" as="geometry" />
        </mxCell>
        <mxCell id="aicW-fnA6qDHuhY_AQFV-9" value="&lt;b&gt;&lt;font style=&quot;font-size: 18px&quot;&gt;?&lt;/font&gt;&lt;/b&gt;" style="sketch=0;orthogonalLoop=1;jettySize=auto;html=1;startArrow=none;startFill=0;endArrow=classic;endFill=1;strokeColor=#000000;fontColor=#FF3333;entryX=-0.009;entryY=0.62;entryDx=0;entryDy=0;entryPerimeter=0;" edge="1" parent="hdogqXHSBpEaAjrL4_Qm-1" target="fqj1xfR9sEQ374SJdePA-5">
          <mxGeometry relative="1" as="geometry">
            <mxPoint x="140" y="732.2222222222222" as="sourcePoint" />
            <mxPoint x="200" y="740" as="targetPoint" />
          </mxGeometry>
        </mxCell>
        <mxCell id="fqj1xfR9sEQ374SJdePA-7" value="&lt;b&gt;EKL&lt;/b&gt;" style="outlineConnect=0;dashed=0;verticalLabelPosition=bottom;verticalAlign=top;align=center;html=1;shape=mxgraph.aws3.elasticsearch_service;fillColor=#F58534;gradientColor=none;rounded=1;shadow=1;glass=0;pointerEvents=0;fontColor=#141414;" vertex="1" parent="hdogqXHSBpEaAjrL4_Qm-1">
          <mxGeometry x="90" y="715" width="50" height="40" as="geometry" />
        </mxCell>
        <mxCell id="aicW-fnA6qDHuhY_AQFV-3" value="&lt;b&gt;省内KAFKA&lt;/b&gt;" style="shape=document;whiteSpace=wrap;html=1;boundedLbl=1;rounded=1;shadow=1;glass=0;pointerEvents=0;fontColor=#141414;fillColor=#FF99CC;gradientColor=none;align=center;verticalAlign=top;" vertex="1" parent="hdogqXHSBpEaAjrL4_Qm-1">
          <mxGeometry x="-275" y="660" width="70" height="80" as="geometry" />
        </mxCell>
        <mxCell id="aicW-fnA6qDHuhY_AQFV-5" value="" style="edgeStyle=none;curved=1;sketch=0;orthogonalLoop=1;jettySize=auto;html=1;startArrow=none;startFill=0;exitX=0.875;exitY=1;exitDx=0;exitDy=0;exitPerimeter=0;dashed=1;" edge="1" parent="hdogqXHSBpEaAjrL4_Qm-1" source="58FKScHTOD0fjgMbz1a8-2">
          <mxGeometry relative="1" as="geometry">
            <mxPoint x="-230" y="445" as="sourcePoint" />
            <mxPoint x="-75" y="540" as="targetPoint" />
          </mxGeometry>
        </mxCell>
        <mxCell id="aicW-fnA6qDHuhY_AQFV-8" value="&lt;b&gt;CMG KAFKA&lt;/b&gt;" style="shape=document;whiteSpace=wrap;html=1;boundedLbl=1;rounded=1;shadow=1;glass=0;pointerEvents=0;fontColor=#141414;fillColor=#FF99CC;gradientColor=none;align=center;verticalAlign=top;" vertex="1" parent="hdogqXHSBpEaAjrL4_Qm-1">
          <mxGeometry x="350" y="685" width="70" height="80" as="geometry" />
        </mxCell>
      </root>
    </mxGraphModel>
  </diagram>
  <diagram id="H5ks0xH23TNfroaOrBWy" name="微服务拆分">
    <mxGraphModel dx="1320" dy="516" grid="1" gridSize="10" guides="1" tooltips="1" connect="1" arrows="1" fold="1" page="1" pageScale="1" pageWidth="980" pageHeight="690" math="0" shadow="0">
      <root>
        <mxCell id="OC57HQLg-QQ5nuB7Cv97-0" />
        <mxCell id="OC57HQLg-QQ5nuB7Cv97-1" parent="OC57HQLg-QQ5nuB7Cv97-0" />
        <mxCell id="4jJnBZCPFhitQu8RjMwX-7" value="&lt;p class=&quot;MsoNormal&quot;&gt;&lt;b&gt;&lt;span style=&quot;font-family: &amp;#34;times new roman&amp;#34; ; font-size: 10.5000pt&quot;&gt;&lt;font face=&quot;宋体&quot;&gt;能力治理&lt;/font&gt;&lt;/span&gt;&lt;span style=&quot;font-size: 10.5000pt&quot;&gt;类&lt;/span&gt;&lt;span style=&quot;font-family: &amp;#34;times new roman&amp;#34; ; font-size: 10.5000pt&quot;&gt;&lt;font face=&quot;宋体&quot;&gt;微服务&lt;/font&gt;&lt;/span&gt;&lt;/b&gt;&lt;/p&gt;" style="rounded=0;whiteSpace=wrap;html=1;shadow=1;glass=0;pointerEvents=0;fillColor=#cce5ff;verticalAlign=top;strokeColor=#36393d;" vertex="1" parent="OC57HQLg-QQ5nuB7Cv97-1">
          <mxGeometry x="30" y="160" width="490" height="150" as="geometry" />
        </mxCell>
        <mxCell id="4jJnBZCPFhitQu8RjMwX-3" value="&lt;p class=&quot;MsoNormal&quot;&gt;&lt;span style=&quot;font-family: &amp;#34;times new roman&amp;#34; ; font-size: 10.5000pt&quot;&gt;&lt;font face=&quot;宋体&quot;&gt;&lt;b&gt;流量处理类微服务&lt;/b&gt;&lt;/font&gt;&lt;/span&gt;&lt;/p&gt;" style="rounded=0;whiteSpace=wrap;html=1;shadow=1;glass=0;pointerEvents=0;fillColor=#cce5ff;verticalAlign=top;strokeColor=#36393d;" vertex="1" parent="OC57HQLg-QQ5nuB7Cv97-1">
          <mxGeometry x="30" width="490" height="150" as="geometry" />
        </mxCell>
        <mxCell id="4jJnBZCPFhitQu8RjMwX-0" value="&lt;p class=&quot;MsoNormal&quot;&gt;&lt;span style=&quot;font-family: &amp;#34;times new roman&amp;#34; ; font-size: 10.5000pt&quot;&gt;&lt;font face=&quot;宋体&quot;&gt;服务调用网关&lt;/font&gt;&lt;/span&gt;&lt;/p&gt;&lt;p class=&quot;MsoNormal&quot;&gt;&lt;span style=&quot;font-size: 10.5000pt&quot;&gt;&lt;font face=&quot;Times New Roman&quot;&gt;amg-api-gateway&lt;/font&gt;&lt;/span&gt;&lt;/p&gt;" style="rounded=1;shadow=1;glass=0;sketch=0;horizontal=1;verticalAlign=middle;whiteSpace=wrap;labelBackgroundColor=none;html=1;" vertex="1" parent="OC57HQLg-QQ5nuB7Cv97-1">
          <mxGeometry x="70" y="50" width="110" height="80" as="geometry" />
        </mxCell>
        <mxCell id="4jJnBZCPFhitQu8RjMwX-1" value="&lt;p class=&quot;MsoNormal&quot;&gt;&lt;span style=&quot;font-family: &amp;#34;times new roman&amp;#34; ; font-size: 10.5000pt&quot;&gt;&lt;font face=&quot;宋体&quot;&gt;号码归属查询&lt;/font&gt;&lt;/span&gt;&lt;/p&gt;&lt;p class=&quot;MsoNormal&quot;&gt;&lt;span style=&quot;font-family: &amp;#34;times new roman&amp;#34; ; font-size: 10.5000pt&quot;&gt;amg-prov-query&lt;/span&gt;&lt;/p&gt;" style="rounded=1;shadow=1;glass=0;sketch=0;horizontal=1;verticalAlign=middle;whiteSpace=wrap;labelBackgroundColor=none;html=1;" vertex="1" parent="OC57HQLg-QQ5nuB7Cv97-1">
          <mxGeometry x="220" y="50" width="110" height="80" as="geometry" />
        </mxCell>
        <mxCell id="4jJnBZCPFhitQu8RjMwX-2" value="&lt;p class=&quot;MsoNormal&quot;&gt;&lt;span style=&quot;font-size: 10.5pt&quot;&gt;全局流控&lt;/span&gt;&lt;/p&gt;&lt;p class=&quot;MsoNormal&quot;&gt;&lt;span style=&quot;font-size: 10.5000pt&quot;&gt;&lt;font face=&quot;Times New Roman&quot;&gt;amg-rate&lt;/font&gt;&lt;/span&gt;&lt;span style=&quot;font-family: &amp;#34;times new roman&amp;#34; ; font-size: 10.5000pt&quot;&gt;limit-control&lt;/span&gt;&lt;/p&gt;" style="rounded=1;shadow=1;glass=0;sketch=0;horizontal=1;verticalAlign=middle;whiteSpace=wrap;labelBackgroundColor=none;html=1;" vertex="1" parent="OC57HQLg-QQ5nuB7Cv97-1">
          <mxGeometry x="370" y="50" width="130" height="80" as="geometry" />
        </mxCell>
        <mxCell id="4jJnBZCPFhitQu8RjMwX-4" value="&lt;p class=&quot;MsoNormal&quot;&gt;&lt;span style=&quot;font-family: &amp;#34;times new roman&amp;#34; ; font-size: 10.5000pt&quot;&gt;&lt;font face=&quot;宋体&quot;&gt;管理数据处理&lt;/font&gt;&lt;/span&gt;&lt;/p&gt;&lt;p class=&quot;MsoNormal&quot;&gt;&lt;span style=&quot;font-size: 10.5000pt&quot;&gt;&lt;font face=&quot;Times New Roman&quot;&gt;cmg&lt;/font&gt;&lt;/span&gt;&lt;span style=&quot;font-family: &amp;#34;times new roman&amp;#34; ; font-size: 10.5000pt&quot;&gt;-globaldata-proc&lt;/span&gt;&lt;/p&gt;" style="rounded=1;shadow=1;glass=0;sketch=0;horizontal=1;verticalAlign=middle;whiteSpace=wrap;labelBackgroundColor=none;html=1;" vertex="1" parent="OC57HQLg-QQ5nuB7Cv97-1">
          <mxGeometry x="60" y="210" width="120" height="80" as="geometry" />
        </mxCell>
        <mxCell id="4jJnBZCPFhitQu8RjMwX-5" value="&lt;p class=&quot;MsoNormal&quot;&gt;&lt;span style=&quot;font-size: 10.5pt&quot;&gt;管控指令处理&lt;/span&gt;&lt;/p&gt;&lt;p class=&quot;MsoNormal&quot;&gt;&lt;span style=&quot;font-family: &amp;#34;times new roman&amp;#34; ; font-size: 10.5000pt&quot;&gt;cmg-command-proc&lt;/span&gt;&lt;/p&gt;" style="rounded=1;shadow=1;glass=0;sketch=0;horizontal=1;verticalAlign=middle;whiteSpace=wrap;labelBackgroundColor=none;html=1;" vertex="1" parent="OC57HQLg-QQ5nuB7Cv97-1">
          <mxGeometry x="210" y="210" width="120" height="80" as="geometry" />
        </mxCell>
        <mxCell id="4jJnBZCPFhitQu8RjMwX-6" value="&lt;p class=&quot;MsoNormal&quot;&gt;&lt;span style=&quot;font-family: &amp;#34;times new roman&amp;#34; ; font-size: 10.5pt&quot;&gt;&lt;font face=&quot;宋体&quot;&gt;接口&lt;/font&gt;&lt;/span&gt;&lt;span style=&quot;font-size: 10.5pt&quot;&gt;对接&lt;/span&gt;&lt;/p&gt;&lt;p class=&quot;MsoNormal&quot;&gt;&lt;span style=&quot;font-family: &amp;#34;times new roman&amp;#34; ; font-size: 10.5000pt&quot;&gt;cmg-interface-proc&lt;/span&gt;&lt;/p&gt;" style="rounded=1;shadow=1;glass=0;sketch=0;horizontal=1;verticalAlign=middle;whiteSpace=wrap;labelBackgroundColor=none;html=1;" vertex="1" parent="OC57HQLg-QQ5nuB7Cv97-1">
          <mxGeometry x="370" y="210" width="120" height="80" as="geometry" />
        </mxCell>
        <mxCell id="LLhBq4zjOfd1W-s7-cfd-0" value="&lt;p class=&quot;MsoNormal&quot;&gt;&lt;span style=&quot;font-family: &amp;#34;times new roman&amp;#34; ; font-size: 10.5000pt&quot;&gt;&lt;font face=&quot;宋体&quot;&gt;&lt;b&gt;日志汇聚上报类微服务&lt;/b&gt;&lt;/font&gt;&lt;/span&gt;&lt;/p&gt;" style="rounded=0;whiteSpace=wrap;html=1;shadow=1;glass=0;pointerEvents=0;fillColor=#cce5ff;verticalAlign=top;strokeColor=#36393d;" vertex="1" parent="OC57HQLg-QQ5nuB7Cv97-1">
          <mxGeometry x="530" width="490" height="150" as="geometry" />
        </mxCell>
        <mxCell id="LLhBq4zjOfd1W-s7-cfd-1" value="&lt;p class=&quot;MsoNormal&quot;&gt;&lt;span style=&quot;font-size: 10.5pt&quot;&gt;网关&lt;/span&gt;&lt;span style=&quot;font-family: &amp;#34;times new roman&amp;#34; ; font-size: 10.5pt&quot;&gt;&lt;font face=&quot;宋体&quot;&gt;日志汇聚&lt;/font&gt;&lt;/span&gt;&lt;/p&gt;&lt;p class=&quot;MsoNormal&quot;&gt;&lt;span style=&quot;font-family: &amp;#34;times new roman&amp;#34; ; font-size: 10.5000pt&quot;&gt;log-collect-cmg&lt;/span&gt;&lt;/p&gt;" style="rounded=1;shadow=1;glass=0;sketch=0;horizontal=1;verticalAlign=middle;whiteSpace=wrap;labelBackgroundColor=none;html=1;" vertex="1" parent="OC57HQLg-QQ5nuB7Cv97-1">
          <mxGeometry x="560" y="50" width="120" height="80" as="geometry" />
        </mxCell>
        <mxCell id="LLhBq4zjOfd1W-s7-cfd-2" value="&lt;p class=&quot;MsoNormal&quot;&gt;&lt;span style=&quot;font-size: 10.5pt&quot;&gt;上下游&lt;/span&gt;&lt;span style=&quot;font-family: &amp;#34;times new roman&amp;#34; ; font-size: 10.5pt&quot;&gt;&lt;font face=&quot;宋体&quot;&gt;日志汇聚&lt;/font&gt;&lt;/span&gt;&lt;/p&gt;&lt;p class=&quot;MsoNormal&quot;&gt;&lt;span style=&quot;font-family: &amp;#34;times new roman&amp;#34; ; font-size: 10.5000pt&quot;&gt;log-collect-app&lt;/span&gt;&lt;/p&gt;" style="rounded=1;shadow=1;glass=0;sketch=0;horizontal=1;verticalAlign=middle;whiteSpace=wrap;labelBackgroundColor=none;html=1;" vertex="1" parent="OC57HQLg-QQ5nuB7Cv97-1">
          <mxGeometry x="710" y="50" width="120" height="80" as="geometry" />
        </mxCell>
        <mxCell id="LLhBq4zjOfd1W-s7-cfd-3" value="&lt;p class=&quot;MsoNormal&quot;&gt;&lt;span style=&quot;font-size: 10.5pt&quot;&gt;日志&lt;/span&gt;&lt;span style=&quot;font-family: &amp;#34;times new roman&amp;#34; ; font-size: 10.5pt&quot;&gt;&lt;font face=&quot;宋体&quot;&gt;上报&lt;/font&gt;&lt;/span&gt;&lt;/p&gt;&lt;p class=&quot;MsoNormal&quot;&gt;&lt;span style=&quot;font-family: &amp;#34;times new roman&amp;#34; ; font-size: 10.5pt&quot;&gt;log-send-cmg&lt;/span&gt;&lt;br&gt;&lt;/p&gt;" style="rounded=1;shadow=1;glass=0;sketch=0;horizontal=1;verticalAlign=middle;whiteSpace=wrap;labelBackgroundColor=none;html=1;" vertex="1" parent="OC57HQLg-QQ5nuB7Cv97-1">
          <mxGeometry x="870" y="50" width="120" height="80" as="geometry" />
        </mxCell>
        <mxCell id="LLhBq4zjOfd1W-s7-cfd-4" value="&lt;p class=&quot;MsoNormal&quot;&gt;&lt;span style=&quot;font-family: &amp;#34;times new roman&amp;#34; ; font-size: 10.5000pt&quot;&gt;&lt;font face=&quot;宋体&quot;&gt;&lt;b&gt;基础类微服务&lt;/b&gt;&lt;/font&gt;&lt;/span&gt;&lt;/p&gt;" style="rounded=0;whiteSpace=wrap;html=1;shadow=1;glass=0;pointerEvents=0;fillColor=#cce5ff;verticalAlign=top;strokeColor=#36393d;" vertex="1" parent="OC57HQLg-QQ5nuB7Cv97-1">
          <mxGeometry x="530" y="160" width="490" height="240" as="geometry" />
        </mxCell>
        <mxCell id="LLhBq4zjOfd1W-s7-cfd-5" value="&lt;p class=&quot;MsoNormal&quot;&gt;&lt;span style=&quot;font-size: 10.5pt&quot;&gt;容灾切换&lt;/span&gt;&lt;/p&gt;&lt;p class=&quot;MsoNormal&quot;&gt;&lt;span style=&quot;font-family: &amp;#34;times new roman&amp;#34; ; font-size: 10.5000pt&quot;&gt;base-failover-proc&lt;/span&gt;&lt;/p&gt;" style="rounded=1;shadow=1;glass=0;sketch=0;horizontal=1;verticalAlign=middle;whiteSpace=wrap;labelBackgroundColor=none;html=1;" vertex="1" parent="OC57HQLg-QQ5nuB7Cv97-1">
          <mxGeometry x="560" y="210" width="120" height="80" as="geometry" />
        </mxCell>
        <mxCell id="LLhBq4zjOfd1W-s7-cfd-6" value="&lt;p class=&quot;MsoNormal&quot;&gt;&lt;span style=&quot;font-size: 10.5pt&quot;&gt;本地服务注册&lt;/span&gt;&lt;/p&gt;&lt;p class=&quot;MsoNormal&quot;&gt;&lt;span style=&quot;font-family: &amp;#34;times new roman&amp;#34; ; font-size: 10.5000pt&quot;&gt;base-localservice-manage&lt;/span&gt;&lt;/p&gt;" style="rounded=1;shadow=1;glass=0;sketch=0;horizontal=1;verticalAlign=middle;whiteSpace=wrap;labelBackgroundColor=none;html=1;" vertex="1" parent="OC57HQLg-QQ5nuB7Cv97-1">
          <mxGeometry x="710" y="210" width="120" height="80" as="geometry" />
        </mxCell>
        <mxCell id="LLhBq4zjOfd1W-s7-cfd-7" value="&lt;p class=&quot;MsoNormal&quot;&gt;&lt;span style=&quot;font-size: 10.5pt&quot;&gt;监控告警&lt;/span&gt;&lt;/p&gt;&lt;p class=&quot;MsoNormal&quot;&gt;&lt;span style=&quot;font-family: &amp;#34;times new roman&amp;#34; ; font-size: 10.5000pt&quot;&gt;base-monitor-proc&lt;/span&gt;&lt;/p&gt;" style="rounded=1;shadow=1;glass=0;sketch=0;horizontal=1;verticalAlign=middle;whiteSpace=wrap;labelBackgroundColor=none;html=1;" vertex="1" parent="OC57HQLg-QQ5nuB7Cv97-1">
          <mxGeometry x="870" y="210" width="120" height="80" as="geometry" />
        </mxCell>
        <mxCell id="LLhBq4zjOfd1W-s7-cfd-8" value="&lt;p class=&quot;MsoNormal&quot;&gt;&lt;span style=&quot;font-size: 10.5pt&quot;&gt;日志搜索&lt;/span&gt;&lt;/p&gt;&lt;p class=&quot;MsoNormal&quot;&gt;&lt;span style=&quot;font-family: &amp;#34;times new roman&amp;#34; ; font-size: 10.5000pt&quot;&gt;base-log-query&lt;/span&gt;&lt;/p&gt;" style="rounded=1;shadow=1;glass=0;sketch=0;horizontal=1;verticalAlign=middle;whiteSpace=wrap;labelBackgroundColor=none;html=1;" vertex="1" parent="OC57HQLg-QQ5nuB7Cv97-1">
          <mxGeometry x="560" y="300" width="120" height="80" as="geometry" />
        </mxCell>
      </root>
    </mxGraphModel>
  </diagram>
</mxfile>
